


    <svg
        fill="none"
        height="20"
        viewBox="0 0 20 20"
        width="20"
        xmlns="http://www.w3.org/2000/svg"
        v-bind="$props"
    >
        <path
            d="M13.4915 1.66675H6.50817C3.47484 1.66675 1.6665 3.47508 1.6665 6.50841V13.4834C1.6665 16.5251 3.47484 18.3334 6.50817 18.3334H13.4832C16.5165 18.3334 18.3248 16.5251 18.3248 13.4917V6.50841C18.3332 3.47508 16.5248 1.66675 13.4915 1.66675ZM14.9998 10.6251H10.6248V15.0001C10.6248 15.3417 10.3415 15.6251 9.99984 15.6251C9.65817 15.6251 9.37484 15.3417 9.37484 15.0001V10.6251H4.99984C4.65817 10.6251 4.37484 10.3417 4.37484 10.0001C4.37484 9.65842 4.65817 9.37508 4.99984 9.37508H9.37484V5.00008C9.37484 4.65841 9.65817 4.37508 9.99984 4.37508C10.3415 4.37508 10.6248 4.65841 10.6248 5.00008V9.37508H14.9998C15.3415 9.37508 15.6248 9.65842 15.6248 10.0001C15.6248 10.3417 15.3415 10.6251 14.9998 10.6251Z"
            fill="currentColor"
        />
    </svg>



