


    <svg
        fill="none"
        height="24"
        viewBox="0 0 24 24"
        width="24"
        xmlns="http://www.w3.org/2000/svg"
        v-bind="$props"
    >
        <path
            d="M17.2798 11.1993C17.0898 11.1993 16.8997 11.1292 16.7497 10.9792C16.4597 10.6892 16.4597 10.2092 16.7497 9.91922L19.9397 6.72922L16.7497 3.53922C16.4597 3.24922 16.4597 2.76922 16.7497 2.47922C17.0397 2.18922 17.5197 2.18922 17.8097 2.47922L21.5298 6.19925C21.6698 6.33925 21.7497 6.52922 21.7497 6.72922C21.7497 6.92922 21.6698 7.11925 21.5298 7.25925L17.8097 10.9792C17.6597 11.1192 17.4698 11.1993 17.2798 11.1993Z"
            fill="currentColor"
        />

        <path
            d="M21 7.47925H3C2.59 7.47925 2.25 7.13925 2.25 6.72925C2.25 6.31925 2.59 5.97925 3 5.97925H21C21.41 5.97925 21.7497 6.31922 21.7497 6.72922C21.7497 7.13922 21.41 7.47925 21 7.47925Z"
            fill="currentColor"
        />

        <path
            d="M6.71997 21.7492C6.52997 21.7492 6.34 21.6793 6.19 21.5293L2.46997 17.8092C2.32997 17.6692 2.25 17.4793 2.25 17.2793C2.25 17.0793 2.32997 16.8892 2.46997 16.7492L6.19 13.0293C6.48 12.7393 6.96 12.7393 7.25 13.0293C7.54 13.3193 7.54 13.7993 7.25 14.0893L4.06 17.2793L7.25 20.4692C7.54 20.7592 7.54 21.2393 7.25 21.5293C7.11 21.6793 6.91997 21.7492 6.71997 21.7492Z"
            fill="currentColor"
        />

        <path
            d="M21 18.0193H3C2.59 18.0193 2.25 17.6793 2.25 17.2693C2.25 16.8593 2.59 16.5193 3 16.5193H21C21.41 16.5193 21.75 16.8593 21.75 17.2693C21.75 17.6793 21.41 18.0193 21 18.0193Z"
            fill="currentColor"
        />
    </svg>

