


    <svg
        fill="none"
        height="24"
        viewBox="0 0 24 24"
        width="24"
        xmlns="http://www.w3.org/2000/svg"
        v-bind="$props"
    >
        <path
            d="M12 19C11.8223 19 11.6447 18.935 11.5044 18.7958L8.20339 15.5191C7.9322 15.25 7.9322 14.8044 8.20339 14.5352C8.47458 14.266 8.92344 14.266 9.19462 14.5352L12 17.3199L14.8054 14.5352C15.0766 14.266 15.5254 14.266 15.7966 14.5352C16.0678 14.8044 16.0678 15.25 15.7966 15.5191L12.4956 18.7958C12.3553 18.935 12.1777 19 12 19Z"
            fill="currentColor"
        />

        <path
            d="M12 5C12.1777 5 12.3553 5.06498 12.4956 5.20421L15.7966 8.48086C16.0678 8.75004 16.0678 9.19559 15.7966 9.46478C15.5254 9.73396 15.0766 9.73396 14.8054 9.46478L12 6.68009L9.19462 9.46478C8.92344 9.73396 8.47458 9.73396 8.20339 9.46478C7.9322 9.19559 7.9322 8.75004 8.20339 8.48085L11.5044 5.20421C11.6447 5.06498 11.8223 5 12 5Z"
            fill="currentColor"
        />
    </svg>

