


    <svg
        fill="none"
        height="24"
        viewBox="0 0 24 24"
        width="24"
        xmlns="http://www.w3.org/2000/svg"
    >
        <path
            clip-rule="evenodd"
            d="M1.25 4.66172C1.25 3.03617 2.59168 1.78792 4.22166 1.92425C6.44026 2.10414 9.73026 3.20073 11.6113 4.37184L11.865 4.52409C11.8676 4.52529 11.8782 4.53014 11.8985 4.53521C11.9257 4.542 11.9609 4.54672 12 4.54672C12.0391 4.54672 12.0743 4.542 12.1015 4.53521C12.1208 4.53041 12.1313 4.5258 12.1345 4.5243L12.3005 4.41687C14.1818 3.23315 17.4869 2.12466 19.7059 1.93446C19.7273 1.93263 19.7486 1.93172 19.77 1.93172H19.8008C21.4092 1.81498 22.75 3.03992 22.75 4.67172V16.7417C22.75 18.0741 21.6941 19.2983 20.353 19.4659L20.3503 19.4663L20.0246 19.5057C17.9391 19.7841 14.6756 20.862 12.8374 21.8756C12.5663 22.0298 12.2587 22.0842 11.9938 22.0842C11.7305 22.0842 11.4301 22.0305 11.1626 21.8866L11.1346 21.8725C11.1264 21.8684 11.1182 21.8642 11.1101 21.8597C9.27067 20.8538 6.00894 19.7829 3.93065 19.5051L3.92752 19.5047L3.64189 19.4653C2.30319 19.2952 1.25 18.0724 1.25 16.7417V4.66172ZM4.0972 3.41908C3.34769 3.3561 2.75 3.90764 2.75 4.66172V16.7417C2.75 17.3293 3.25414 17.9051 3.83303 17.9775L3.84249 17.9787L4.12935 18.0183L4.13096 18.0185C6.38806 18.3205 9.81571 19.4453 11.8175 20.537L11.8454 20.5509C11.8547 20.5555 11.8639 20.5604 11.8731 20.5654C11.8731 20.5654 11.8827 20.57 11.9039 20.5748C11.9284 20.5804 11.9596 20.5842 11.9938 20.5842C12.028 20.5842 12.0576 20.5804 12.0793 20.5754C12.0906 20.5728 12.0971 20.5705 12.0997 20.5695L12.1074 20.565C14.1088 19.4601 17.5582 18.3206 19.8311 18.0183L19.8397 18.0171L20.167 17.9775L20.1681 17.9774C20.7465 17.9044 21.25 17.329 21.25 16.7417V4.67172C21.25 3.91488 20.6495 3.36549 19.8928 3.42908C19.8719 3.43084 19.851 3.43172 19.83 3.43172H19.8028C17.8225 3.60944 14.7741 4.63416 13.1033 5.68404L12.9256 5.79906C12.6339 5.9801 12.2953 6.04672 12 6.04672C11.7066 6.04672 11.3705 5.98085 11.0801 5.80244L10.8231 5.64821C9.14349 4.60082 6.07868 3.57949 4.09948 3.41927L4.0972 3.41908Z"
            fill="currentColor"
            fill-rule="evenodd"
        />
        <path
            clip-rule="evenodd"
            d="M12 4.74172C12.4142 4.74172 12.75 5.0775 12.75 5.49172V20.4917C12.75 20.9059 12.4142 21.2417 12 21.2417C11.5858 21.2417 11.25 20.9059 11.25 20.4917V5.49172C11.25 5.0775 11.5858 4.74172 12 4.74172Z"
            fill="currentColor"
            fill-rule="evenodd"
        />
        <path
            clip-rule="evenodd"
            d="M4.75 8.49172C4.75 8.0775 5.08579 7.74172 5.5 7.74172H7.75C8.16421 7.74172 8.5 8.0775 8.5 8.49172C8.5 8.90593 8.16421 9.24172 7.75 9.24172H5.5C5.08579 9.24172 4.75 8.90593 4.75 8.49172Z"
            fill="currentColor"
            fill-rule="evenodd"
        />
        <path
            clip-rule="evenodd"
            d="M4.75 11.4917C4.75 11.0775 5.08579 10.7417 5.5 10.7417H8.5C8.91421 10.7417 9.25 11.0775 9.25 11.4917C9.25 11.9059 8.91421 12.2417 8.5 12.2417H5.5C5.08579 12.2417 4.75 11.9059 4.75 11.4917Z"
            fill="currentColor"
            fill-rule="evenodd"
        />
    </svg>

