


    <svg
        fill="none"
        height="24"
        viewBox="0 0 24 24"
        width="24"
        xmlns="http://www.w3.org/2000/svg"
    >
        <path
            d="M22.0002 4.84969V16.7397C22.0002 17.7097 21.2102 18.5997 20.2402 18.7197L19.9302 18.7597C18.2902 18.9797 15.9802 19.6597 14.1202 20.4397C13.4702 20.7097 12.7502 20.2197 12.7502 19.5097V5.59969C12.7502 5.22969 12.9602 4.88969 13.2902 4.70969C15.1202 3.71969 17.8902 2.83969 19.7702 2.67969H19.8302C21.0302 2.67969 22.0002 3.64969 22.0002 4.84969Z"
            fill="currentColor"
        />
        <path
            d="M10.7102 4.70969C8.88023 3.71969 6.11023 2.83969 4.23023 2.67969H4.16023C2.96023 2.67969 1.99023 3.64969 1.99023 4.84969V16.7397C1.99023 17.7097 2.78023 18.5997 3.75023 18.7197L4.06023 18.7597C5.70023 18.9797 8.01023 19.6597 9.87023 20.4397C10.5202 20.7097 11.2402 20.2197 11.2402 19.5097V5.59969C11.2402 5.21969 11.0402 4.88969 10.7102 4.70969ZM5.00023 7.73969H7.25023C7.66023 7.73969 8.00023 8.07969 8.00023 8.48969C8.00023 8.90969 7.66023 9.23969 7.25023 9.23969H5.00023C4.59023 9.23969 4.25023 8.90969 4.25023 8.48969C4.25023 8.07969 4.59023 7.73969 5.00023 7.73969ZM8.00023 12.2397H5.00023C4.59023 12.2397 4.25023 11.9097 4.25023 11.4897C4.25023 11.0797 4.59023 10.7397 5.00023 10.7397H8.00023C8.41023 10.7397 8.75023 11.0797 8.75023 11.4897C8.75023 11.9097 8.41023 12.2397 8.00023 12.2397Z"
            fill="currentColor"
        />
    </svg>

