


    <svg
        fill="none"
        height="24"
        viewBox="0 0 24 24"
        width="24"
        xmlns="http://www.w3.org/2000/svg"
        v-bind="$props"
    >
        <path
            d="M21.09 6.97953C20.24 6.03953 18.82 5.56953 16.76 5.56953H16.52V5.52953C16.52 3.84953 16.52 1.76953 12.76 1.76953H11.24C7.48004 1.76953 7.48004 3.85953 7.48004 5.52953V5.57953H7.24004C5.17004 5.57953 3.76004 6.04953 2.91004 6.98953C1.92004 8.08953 1.95004 9.56953 2.05004 10.5795L2.06004 10.6495L2.13749 11.4628C2.15176 11.6126 2.23242 11.7479 2.35831 11.8303C2.59812 11.9872 2.99946 12.2459 3.24004 12.3795C3.38004 12.4695 3.53004 12.5495 3.68004 12.6295C5.39004 13.5695 7.27004 14.1995 9.18004 14.5095C9.27004 15.4495 9.68004 16.5495 11.87 16.5495C14.06 16.5495 14.49 15.4595 14.56 14.4895C16.6 14.1595 18.57 13.4495 20.35 12.4095C20.41 12.3795 20.45 12.3495 20.5 12.3195C20.8968 12.0953 21.3083 11.819 21.6835 11.5484C21.7965 11.4668 21.8688 11.3408 21.8842 11.2023L21.9 11.0595L21.95 10.5895C21.96 10.5295 21.96 10.4795 21.97 10.4095C22.05 9.39953 22.03 8.01953 21.09 6.97953ZM13.09 13.8295C13.09 14.8895 13.09 15.0495 11.86 15.0495C10.63 15.0495 10.63 14.8595 10.63 13.8395V12.5795H13.09V13.8295ZM8.91004 5.52953C8.91004 3.82953 8.91004 3.19953 11.24 3.19953H12.76C15.09 3.19953 15.09 3.83953 15.09 5.52953V5.57953H8.91004V5.52953Z"
            fill="currentColor"
        />

        <path
            d="M20.8735 13.7337C21.2271 13.5655 21.6344 13.8457 21.599 14.2357L21.24 18.1895C21.03 20.1895 20.21 22.2295 15.81 22.2295H8.19004C3.79004 22.2295 2.97004 20.1895 2.76004 18.1995L2.41933 14.4517C2.38428 14.0662 2.78224 13.7863 3.13488 13.9458C4.27429 14.4613 6.37743 15.3759 7.67661 15.7162C7.84092 15.7592 7.97381 15.8768 8.04575 16.0307C8.65272 17.3288 9.96915 18.0195 11.87 18.0195C13.7521 18.0195 15.0852 17.3022 15.6942 16.0009C15.7662 15.8469 15.8993 15.7294 16.0637 15.6861C17.4432 15.3231 19.6818 14.3008 20.8735 13.7337Z"
            fill="currentColor"
        />
    </svg>

