  <svg
    fill="none"
    height="24"
    viewBox="0 0 24 24"
    width="24"
    xmlns="http://www.w3.org/2000/svg"
  >
    <path
      d="M9.00043 10.75H6.00043C5.59043 10.75 5.25043 10.41 5.25043 10C5.25043 9.59 5.59043 9.25 6.00043 9.25H9.00043C9.41043 9.25 9.75043 9.59 9.75043 10C9.75043 10.41 9.41043 10.75 9.00043 10.75Z"
      fill="currentColor"
    />
    <path
      d="M17.2404 22.75H6.76043C6.35043 22.75 6.01043 22.41 6.01043 22C6.01043 21.59 6.35043 21.25 6.76043 21.25H17.2404C19.2604 21.25 20.3504 20.22 20.4804 18.2L21.0004 9.94C21.0504 9.23 20.8404 8.53 20.4104 7.96C20.1604 7.63 20.2304 7.16 20.5604 6.91C20.8904 6.66 21.3604 6.73 21.6104 7.06C22.2504 7.92 22.5704 8.97 22.5004 10.04L21.9804 18.3C21.8004 21.13 20.0704 22.75 17.2404 22.75Z"
      fill="currentColor"
    />
    <path
      d="M3.44043 21.21C3.20043 21.21 2.96043 21.09 2.81043 20.87C2.35043 20.17 2.08043 19.3 2.02043 18.29L1.50043 10.04C1.42043 8.79 1.85043 7.59 2.71043 6.68C3.56043 5.77 4.76043 5.25 6.00043 5.25C6.32043 5.25 6.63043 5.06 6.78043 4.76L7.50043 3.33C8.09043 2.16 9.57043 1.25 10.8604 1.25H13.1504C14.4404 1.25 15.9104 2.16 16.5004 3.32L17.2204 4.78C17.3704 5.06 17.6704 5.25 18.0004 5.25C18.4104 5.25 18.7504 5.59 18.7504 6C18.7504 6.41 18.4104 6.75 18.0004 6.75C17.1104 6.75 16.3004 6.25 15.8804 5.46L15.1504 4C14.8204 3.34 13.8804 2.76 13.1404 2.76H10.8504C10.1104 2.76 9.17043 3.34 8.83043 4.01L8.12043 5.44C7.70043 6.25 6.89043 6.75 6.00043 6.75C5.16043 6.75 4.38043 7.09 3.80043 7.7C3.23043 8.31 2.94043 9.11 3.00043 9.94L3.52043 18.2C3.56043 18.93 3.75043 19.57 4.07043 20.04C4.30043 20.39 4.20043 20.85 3.86043 21.08C3.73043 21.17 3.58043 21.21 3.44043 21.21Z"
      fill="currentColor"
    />
    <path
      d="M12.0004 18.75C11.1104 18.75 10.2404 18.45 9.54043 17.9C9.21043 17.64 9.16043 17.17 9.41043 16.85C9.67043 16.52 10.1404 16.47 10.4604 16.72C10.9004 17.06 11.4404 17.25 12.0004 17.25C13.3804 17.25 14.5004 16.13 14.5004 14.75C14.5004 14.27 14.3704 13.81 14.1204 13.42C13.9004 13.07 14.0004 12.61 14.3504 12.38C14.7004 12.16 15.1604 12.26 15.3904 12.61C15.7904 13.24 16.0104 13.98 16.0104 14.74C16.0004 16.96 14.2104 18.75 12.0004 18.75Z"
      fill="currentColor"
    />
    <path
      d="M2.00043 22.75C1.81043 22.75 1.62043 22.68 1.47043 22.53C1.18043 22.24 1.18043 21.76 1.47043 21.47L21.4704 1.47C21.7604 1.18 22.2404 1.18 22.5304 1.47C22.8204 1.76 22.8204 2.24 22.5304 2.53L2.53043 22.53C2.38043 22.68 2.19043 22.75 2.00043 22.75Z"
      fill="currentColor"
    />
  </svg>
