

  <svg
    fill="none"
    height="266"
    viewBox="0 0 314 266"
    width="314"
    xmlns="http://www.w3.org/2000/svg"
  >
    <path
      d="M310.519 59.5596C309.464 63.7402 307.992 67.616 306.189 71.1963C286.618 110.08 227.665 114.894 227.665 114.894L224.066 100.889C244.104 94.9666 268.334 89.262 281.745 75.1986C285.009 71.7778 287.631 67.8645 289.394 63.3299C297.928 41.4165 275.933 35.7284 273.424 22.8209C270.536 7.91814 288.594 1.66722 303.342 20.4997C308.97 27.6814 314.473 43.9136 310.519 59.5596Z"
      fill="white"
    />
    <path
      d="M284.831 95.0166C283.431 89.282 281.369 83.5932 278.591 78.1934C279.697 77.2392 280.752 76.2414 281.745 75.2C284.103 77.1543 287.278 78.8174 291.267 78.8174C291.558 78.8174 291.852 78.8082 292.153 78.7899C296.811 78.5054 301.881 75.6106 306.189 71.1972C301.133 81.2443 293.449 89.0159 284.831 95.0166Z"
      fill="#E9DDE5"
    />
    <path
      d="M227.661 117.069C226.541 117.069 225.589 116.208 225.497 115.07C225.398 113.875 226.289 112.824 227.487 112.727C227.661 112.71 245.055 111.214 263.688 103.765C288.356 93.9025 303.404 78.8495 308.413 59.0233C312.383 43.3127 306.36 27.8778 301.632 21.8411C293.697 11.7123 285.03 9.51302 279.957 11.8254C276.247 13.5202 274.604 17.4732 275.561 22.4045C276.358 26.4989 279.637 30.0016 283.107 33.7118C289.447 40.4887 297.337 48.9204 291.42 64.1171C282.805 86.2369 255.521 94.0863 231.449 101.012C229.158 101.672 226.897 102.322 224.686 102.975C223.536 103.317 222.324 102.659 221.985 101.507C221.643 100.354 222.301 99.1448 223.453 98.803C225.674 98.1477 227.944 97.4924 230.247 96.8301C253.35 90.1852 279.531 82.654 287.364 62.5378C292.29 49.8939 286.286 43.4777 279.931 36.6843C276.191 32.6888 272.325 28.5567 271.292 23.2342C269.944 16.3017 272.575 10.4135 278.152 7.86772C284.288 5.06739 295.017 6.34262 305.057 19.1586C311.624 27.5431 316.51 44.7364 312.63 60.0911C307.329 81.0723 290.928 97.5867 265.199 107.845C245.969 115.511 228.573 117.003 227.842 117.062C227.781 117.066 227.722 117.069 227.661 117.069Z"
      fill="#18206B"
    />
    <path
      d="M277.86 143.398C273.694 149.426 102.947 193.73 102.947 193.73C102.947 193.73 107.064 176.853 113.649 155.043C123.886 121.151 140.085 75.3558 156.081 62.4967C198.23 22.7644 249.805 42.0497 270.376 68.3378C278.314 78.4819 283.024 91.1016 284.747 103.491V103.502C286.888 118.867 284.436 133.877 277.86 143.398Z"
      fill="white"
    />
    <path
      d="M212.584 160.698H164.222C168.929 158.213 173.257 155.399 177.11 152.211C179.36 150.349 181.445 148.36 183.354 146.232C183.503 146.364 183.691 146.433 183.883 146.433C184.058 146.433 184.238 146.373 184.385 146.253C187.568 143.598 189.872 140.101 191.842 136.516C197.736 125.732 199.315 113.033 198.486 100.912C198.289 98.0291 197.958 95.1678 197.528 92.3282C202.421 102.405 200.619 116.921 206.754 133.008C210.132 141.867 219.357 145.869 230.338 145.869C250.937 145.869 277.719 131.785 283.703 109.26C284.546 121.849 282.236 133.367 277.296 141.283C277.034 141.244 276.769 141.225 276.503 141.225C275.969 141.225 275.433 141.304 274.908 141.465L212.584 160.698Z"
      fill="#E9DDE5"
    />
    <path
      d="M210.105 41.4387C195.647 41.4387 176.177 45.7947 157.202 63.6873L157.103 63.7709C133.798 82.506 109.498 174.561 105.196 191.462C115.102 188.879 151.091 179.463 187.302 169.556C263.67 148.666 275.203 143.616 276.558 142.41C282.166 134.245 284.738 121.738 283.616 108.079C282.421 93.5434 277.264 79.7868 269.091 69.3456C256.956 53.8379 236.432 43.2229 215.528 41.6433C213.814 41.5157 212.004 41.4387 210.105 41.4387ZM100.712 195.999L101.359 193.348C102.46 188.832 128.61 82.594 155.011 61.2695C177.327 40.2507 200.37 37.228 215.774 38.3896C237.565 40.0374 258.978 51.1275 271.661 67.3348C290.667 91.6228 290.889 127.403 279.2 144.327C278.32 145.599 276.259 148.584 189.271 172.401C146.546 184.099 103.781 195.203 103.353 195.313L100.712 195.999Z"
      fill="#18206B"
    />
    <path
      d="M193.058 130.23C182.128 159.732 146.128 171.3 107.613 176.442H91.1101C52.5943 171.3 16.594 159.732 5.66473 130.23C-4.12351 103.816 6.42352 77.0377 12.2344 54.4514C8.23304 31.305 7.52251 10.4473 15.0944 4.1256C24.2328 -3.50648 45.3822 9.73013 55.2724 18.5951C71.1451 11.9658 95.7668 11.5762 99.3617 11.5828C100.534 11.5828 103.952 11.6182 108.579 11.9104C118.105 12.4926 132.764 14.1328 143.45 18.5951C153.341 9.73013 174.489 -3.50648 183.629 4.1256C191.201 10.4473 190.491 31.305 186.489 54.4514C188.461 62.1189 190.982 70.2689 193.065 78.7266C197.113 95.175 199.526 112.783 193.058 130.23Z"
      fill="white"
    />
    <path
      d="M193.065 78.7267C154.457 80.3005 118.421 52.8533 108.579 11.9105C118.105 12.4926 132.764 14.1328 143.45 18.5952C153.341 9.73022 174.489 -3.50642 183.629 4.12567C191.201 10.4474 190.491 31.305 186.489 54.4514C188.461 62.1189 190.982 70.269 193.065 78.7267Z"
      fill="#FFB864"
    />
    <path
      d="M194.063 127.289C193.756 128.269 193.417 129.25 193.054 130.228C182.128 159.736 146.128 171.303 107.611 176.443H91.1106C52.5918 171.303 16.5924 159.736 5.66553 130.228C5.36427 129.425 5.08515 128.619 4.83348 127.815C-3.48235 102.194 6.59607 76.3496 12.2347 54.4516C8.23295 31.3053 7.52131 10.4476 15.0925 4.13031C24.2347 -3.50621 45.3827 9.73042 55.2743 18.5999C71.1446 11.9638 95.7638 11.5765 99.3601 11.5875C100.532 11.5875 103.953 11.6207 108.579 11.9107C118.105 12.4951 132.765 14.133 143.451 18.5999C153.338 9.73042 174.492 -3.50621 183.629 4.13031C191.199 10.4476 190.488 31.3053 186.484 54.4516C188.461 62.1214 190.98 70.267 193.065 78.7313C196.885 94.2501 199.252 110.811 194.063 127.289Z"
      fill="white"
    />
    <path
      d="M40.5962 161.881C26.1931 155.378 13.5854 145.704 7.58617 130.594C7.5023 130.382 7.42003 130.171 7.33887 129.959C34.1096 151.946 73.3697 154.95 99.159 154.95C125.175 154.95 164.903 151.896 191.688 129.369C190.989 131.358 190.188 133.314 189.284 135.228C187.631 138.742 185.774 142.192 183.283 145.111C183.03 145.397 183.014 145.833 183.264 146.139C183.293 146.172 183.322 146.204 183.352 146.231C178.181 152.005 171.679 156.761 164.22 160.698H46.3541H45.5549C43.7847 160.698 42.0954 161.12 40.5962 161.881Z"
      fill="#E9DDE5"
    />
    <path
      d="M193.065 78.7267C154.457 80.3005 118.421 52.8533 108.579 11.9105C118.105 12.4926 132.764 14.1328 143.45 18.5952C153.341 9.73022 174.489 -3.50642 183.629 4.12567C191.201 10.4474 190.491 31.305 186.489 54.4514C188.461 62.1189 190.982 70.269 193.065 78.7267Z"
      fill="#6486FF"
    />
    <path
      d="M110.079 17.4058C109.989 17.111 109.901 16.8162 109.813 16.5193C109.9 16.8141 109.989 17.1131 110.079 17.4058Z"
      fill="white"
    />
    <path
      d="M143.703 24.0083C133.473 19.7382 119.605 18.0523 110.079 17.4057C109.989 17.1128 109.899 16.8134 109.813 16.5205C109.544 15.6092 109.288 14.6892 109.045 13.7627C120.533 14.4332 132.081 16.0713 142.765 20.2329L143.802 20.6582L144.631 19.9183C151.258 14.0253 165.949 3.62129 176.403 3.62129C177.894 3.62129 179.3 3.83392 180.584 4.30042C183.65 5.59359 185.423 8.83737 186.434 12.7256C185.716 11.4346 184.869 10.3627 183.88 9.53821C181.968 7.94127 179.528 7.25779 176.776 7.25779C166.381 7.25779 151.525 17 143.703 24.0083Z"
      fill="#93A4FF"
    />
    <path
      d="M31.2338 35.2609C25.5146 41.0678 21.9191 49.1831 21.4073 48.2361C21.3576 48.1452 21.3077 48.0374 21.2581 47.9105C20.1666 45.2555 18.3508 34.7324 18.3552 25.3552C18.3597 23.8416 18.4005 22.5056 18.4821 21.3282C18.6994 18.1488 19.1748 16.111 19.7591 14.8068C20.4837 13.2129 22.1138 12.7246 23.5584 13.2594C27.3983 14.6863 38.3071 21.4782 41.8619 25.8329C42.4958 26.6087 36.9578 29.4561 31.2338 35.2609Z"
      fill="#F27E80"
    />
    <path
      d="M31.2336 35.2609C25.5145 41.0678 21.9189 49.1831 21.4072 48.2361C21.3575 48.1452 21.3076 48.0374 21.2579 47.9105C22.5303 42.9872 26.0398 36.1868 28.7295 31.2678C32.4067 24.554 27.3348 19.2185 22.9378 17.6246C21.43 17.0771 19.6412 19.4256 18.4819 21.3282C18.6992 18.1488 19.1747 16.111 19.7589 14.8068C20.4836 13.2129 22.1136 12.7246 23.5583 13.2594C27.3982 14.6863 38.307 21.4782 41.8617 25.8329C42.4957 26.6087 36.9577 29.4561 31.2336 35.2609Z"
      fill="#FF5C64"
    />
    <path
      d="M20.5321 25.3568C20.5272 32.2274 21.4858 39.2365 22.3259 43.4394C24.0731 40.6822 26.5497 36.92 29.6865 33.737C32.7672 30.6093 35.8246 28.2886 37.8479 26.7535C38.219 26.4724 38.6103 26.1765 38.9593 25.9039C34.7843 21.8756 25.8816 16.4421 22.8016 15.3009C22.4579 15.1732 21.9987 15.1412 21.7423 15.7076C21.1943 16.9233 20.5366 19.5932 20.5321 25.3568ZM21.546 50.4868C21.5109 50.4868 21.4764 50.4868 21.4408 50.4847C20.6177 50.457 19.8898 50.0035 19.4931 49.269C18.0276 46.5586 16.1749 34.7547 16.1819 25.3525C16.1857 20.0339 16.708 16.291 17.7777 13.9148C18.9298 11.3748 21.6776 10.2442 24.3137 11.2215C28.3971 12.7353 39.6361 19.6656 43.549 24.4583C43.9646 24.965 44.1503 25.6059 44.072 26.2616C43.9114 27.6136 42.9063 28.3759 40.478 30.2197C38.4387 31.7654 35.6464 33.886 32.7853 36.788C29.6493 39.9711 27.1399 43.9568 25.4798 46.5948C23.7145 49.3967 23.0285 50.4868 21.546 50.4868Z"
      fill="#18206B"
    />
    <path
      d="M166.708 35.2609C172.428 41.0678 176.024 49.1831 176.535 48.2361C176.586 48.1452 176.634 48.0374 176.685 47.9105C177.776 45.2555 179.592 34.7324 179.588 25.3552C179.583 23.8416 179.543 22.5056 179.461 21.3282C179.243 18.1488 178.767 16.111 178.184 14.8068C177.459 13.2129 175.829 12.7246 174.385 13.2594C170.544 14.6863 159.634 21.4782 156.081 25.8329C155.447 26.6087 160.985 29.4561 166.708 35.2609Z"
      fill="#F27E80"
    />
    <path
      d="M166.708 35.2609C172.428 41.0678 176.024 49.1831 176.535 48.2361C176.586 48.1452 176.634 48.0374 176.685 47.9105C175.413 42.9872 171.904 36.1868 169.213 31.2678C165.536 24.554 170.608 19.2185 175.005 17.6246C176.512 17.0771 178.302 19.4256 179.461 21.3282C179.243 18.1488 178.767 16.111 178.184 14.8068C177.459 13.2129 175.829 12.7246 174.385 13.2594C170.544 14.6863 159.634 21.4782 156.081 25.8329C155.447 26.6087 160.985 29.4561 166.708 35.2609Z"
      fill="#FF5C64"
    />
    <path
      d="M158.985 25.9039C159.334 26.1765 159.723 26.4724 160.096 26.7535C162.119 28.2886 165.176 30.6093 168.257 33.737C171.393 36.92 173.871 40.6822 175.617 43.4416C176.458 39.2365 177.416 32.2274 177.412 25.3568C177.408 19.5932 176.75 16.9254 176.199 15.7012C175.945 15.1412 175.483 15.1731 175.143 15.3009C172.062 16.4421 163.158 21.8756 158.985 25.9039ZM176.397 50.4868C174.915 50.4868 174.229 49.3988 172.462 46.5948C170.803 43.9589 168.295 39.9732 165.159 36.7902C162.298 33.886 159.506 31.7676 157.467 30.2197C155.037 28.378 154.032 27.6158 153.87 26.2616C153.794 25.608 153.979 24.9671 154.394 24.4583C158.308 19.6656 169.545 12.7353 173.629 11.2215C176.265 10.2442 179.013 11.3748 180.163 13.9106C181.236 16.2931 181.758 20.0339 181.762 25.3525C181.768 34.7547 179.916 46.5586 178.449 49.269C178.053 50.0035 177.325 50.457 176.503 50.4847C176.467 50.4868 176.431 50.4868 176.397 50.4868Z"
      fill="#18206B"
    />
    <path
      d="M91.0062 177.233C68.6463 175.424 45.6937 170.079 26.5093 157.856C13.1645 149.205 4.17244 136.529 1.2847 120.765C-1.68143 105.709 0.883929 90.2623 4.66535 75.6659C6.53242 68.3766 8.69812 61.2072 10.5501 54.02L10.5206 54.7483C8.47142 41.9392 3.45684 12.3935 13.7225 2.94379C22.6795 -4.62083 38.4659 4.37589 46.6467 9.6891C50.0877 11.9783 53.3853 14.4606 56.4998 17.2293L54.565 16.9029C68.7888 11.3233 84.2214 10.111 99.361 9.77348C114.51 10.131 129.9 11.3832 144.132 16.9629L142.266 17.2782C145.376 14.5116 148.673 12.0316 152.109 9.7424C159.893 4.71561 172.526 -2.496 181.907 1.08759C191.705 5.2196 191.297 21.4901 191.033 30.4069C190.642 38.6132 189.534 46.7107 188.153 54.7394L188.126 54.0311C192.138 69.4512 197.387 84.8114 198.484 100.911C199.314 113.034 197.736 125.732 191.841 136.515C189.871 140.102 187.567 143.598 184.385 146.253C184.043 146.532 183.541 146.48 183.264 146.14C183.015 145.833 183.031 145.397 183.282 145.111C185.773 142.192 187.631 138.742 189.283 135.228C194.285 124.642 196.091 112.783 195.189 101.142C194.074 85.3154 188.863 70.2128 184.849 54.8748L184.76 54.5262L184.82 54.1643C186.175 46.2289 187.249 38.238 187.613 30.2515C187.831 23.031 188.268 7.54205 180.584 4.30038C170.304 0.561371 152.203 13.1839 144.631 19.9181L143.802 20.6575L142.764 20.2334C129.067 14.898 113.95 13.7101 99.361 13.3904C88.3338 13.5458 77.1516 14.5383 66.3891 17.0273C62.4294 17.9509 58.5942 19.1677 54.9061 20.733C51.7086 17.8155 48.2538 15.1444 44.6262 12.7309C37.914 8.36801 26.107 1.4695 18.1607 4.35368C13.0502 6.55402 12.0393 13.3615 11.4 18.3728C10.3172 30.4247 12.0432 42.5876 14.0124 54.5284C12.097 61.9354 9.87933 69.2092 7.99072 76.5207C3.31096 94.1278 0.708525 113.271 7.58596 130.594C17.4455 155.429 45.1526 165.576 69.3488 171.099C76.5815 172.782 83.8881 174.185 91.216 175.659C91.647 175.745 91.9276 176.163 91.8413 176.594C91.7627 176.991 91.399 177.26 91.0062 177.233Z"
      fill="#18206B"
    />
    <path
      d="M57.4052 54.9061C56.5421 53.5673 63.4379 38.7195 74.2981 41.8955C78.2757 43.0584 77.6237 46.5685 75.3306 47.6845C73.1477 48.7477 69.7603 48.6832 66.96 49.8656C61.4985 52.168 58.2683 56.2449 57.4052 54.9061Z"
      fill="#18206B"
    />
    <path
      d="M141.58 52.9758C142.443 51.6368 135.547 36.7895 124.687 39.965C120.708 41.129 121.361 44.6388 123.654 45.7557C125.837 46.8194 129.224 46.7545 132.024 47.9363C137.486 50.2388 140.716 54.3148 141.58 52.9758Z"
      fill="#18206B"
    />
    <path
      d="M152.278 115.592C152.278 118.018 148.18 119.985 143.129 119.985C138.076 119.985 133.978 118.018 133.978 115.592C133.978 113.166 138.076 111.2 143.129 111.2C148.18 111.2 152.278 113.166 152.278 115.592Z"
      fill="#016AE7"
    />
    <path
      d="M66.2295 115.592C66.2295 118.018 62.1329 119.985 57.0799 119.985C52.027 119.985 47.9304 118.018 47.9304 115.592C47.9304 113.166 52.027 111.2 57.0799 111.2C62.1329 111.2 66.2295 113.166 66.2295 115.592Z"
      fill="#016AE7"
    />
    <path
      d="M58.0872 87.2564C59.4632 92.1615 64.5981 95.0013 69.4534 94.5034C74.7332 94.1145 78.3663 89.7123 80.1665 85.0201C80.4641 84.3462 81.2496 84.0411 81.923 84.3379C82.4831 84.5843 82.7874 85.1693 82.7042 85.7477C82.4843 87.2799 82.0667 88.8071 81.4416 90.289C77.9364 98.6156 67.5714 101.526 60.2647 96.1915C57.5508 94.2335 55.5878 91.0065 55.4676 87.647C55.4193 86.0679 57.6821 85.746 58.0872 87.2564Z"
      fill="#18206B"
    />
    <path
      d="M143.222 87.6478C142.931 94.706 135.541 99.5572 128.844 98.8249C121.934 98.3222 116.783 92.3918 115.987 85.7459C115.881 85.0186 116.385 84.3433 117.114 84.2394C117.744 84.1472 118.329 84.5142 118.55 85.0806C120 88.6181 122.217 92.0382 125.783 93.5933C131.33 96.179 138.891 93.4106 140.603 87.2557C141.024 85.7324 143.269 86.0793 143.222 87.6478Z"
      fill="#18206B"
    />
    <path
      d="M164.115 95.4591C169.341 93.0724 174.689 91.0094 180.254 89.5579C181.09 89.3541 181.523 90.5376 180.752 90.9206C175.564 93.3995 170.146 95.275 164.613 96.8218C163.767 97.0405 163.328 95.8356 164.115 95.4591Z"
      fill="#18206B"
    />
    <path
      d="M164.365 104.504C169.957 104.057 175.553 103.957 181.142 104.504C181.543 104.548 181.832 104.908 181.787 105.309C181.749 105.656 181.473 105.917 181.142 105.954C175.553 106.5 169.957 106.4 164.365 105.954C163.498 105.867 163.498 104.588 164.365 104.504Z"
      fill="#18206B"
    />
    <path
      d="M164.615 112.717C170.147 114.266 175.564 116.141 180.754 118.621C181.524 119.005 181.092 120.188 180.255 119.982C174.691 118.529 169.342 116.467 164.116 114.081C163.329 113.702 163.769 112.499 164.615 112.717Z"
      fill="#18206B"
    />
    <path
      d="M33.4161 96.82C27.8838 95.2715 22.4658 93.3976 17.277 90.9187C16.5067 90.534 16.9397 89.3505 17.7751 89.556C23.3394 91.0074 28.6886 93.0704 33.9137 95.4589C34.7017 95.837 34.2612 97.0402 33.4161 96.82Z"
      fill="#18206B"
    />
    <path
      d="M33.6646 105.954C28.0734 106.4 22.4763 106.5 16.8872 105.954C16.0333 105.855 16.0347 104.599 16.8872 104.504C22.4763 103.957 28.0734 104.057 33.6646 104.504C34.5326 104.59 34.5323 105.869 33.6646 105.954Z"
      fill="#18206B"
    />
    <path
      d="M33.9137 114.081C28.6886 116.467 23.3397 118.53 17.7753 119.983C16.9383 120.185 16.5068 119.002 17.2771 118.621C22.4658 116.141 27.8839 114.267 33.416 112.719C34.2615 112.501 34.7025 113.705 33.9137 114.081Z"
      fill="#18206B"
    />
    <path
      d="M87.2217 103.895C87.2217 103.895 89.4687 109.789 94.7265 108.427C100.713 106.879 99.9945 99.7398 99.9945 99.7398L87.2217 103.895Z"
      fill="white"
    />
    <path
      d="M112.989 103.895C112.989 103.895 110.742 109.789 105.482 108.427C99.4966 106.879 100.217 99.7398 100.217 99.7398L112.989 103.895Z"
      fill="white"
    />
    <path
      d="M106.007 105.164C106.007 105.164 108.409 118.007 100.019 118.007C91.6312 118.007 94.0349 105.164 94.0349 105.164H106.007Z"
      fill="#F27E80"
    />
    <path
      d="M100.02 116.337C98.6591 116.337 97.643 115.912 96.9155 115.037C96.85 114.96 96.7875 114.878 96.728 114.795C97.5775 115.363 98.6576 115.704 100.023 115.704C101.386 115.704 102.463 115.364 103.313 114.798C103.253 114.879 103.191 114.96 103.127 115.037C102.399 115.912 101.383 116.337 100.02 116.337Z"
      fill="#F9BFC0"
    />
    <path
      d="M99.506 112.782L98.9633 105.786C98.9168 105.185 99.3649 104.661 99.9665 104.614C100.627 104.557 101.194 105.126 101.139 105.786L100.594 112.782C100.546 113.441 99.554 113.438 99.506 112.782Z"
      fill="#18206B"
    />
    <path
      d="M100.021 119.677C97.67 119.677 95.707 118.809 94.3423 117.167C90.9694 113.104 92.2375 105.688 92.3949 104.856C92.5631 103.95 93.4309 103.35 94.3407 103.523C95.249 103.692 95.8457 104.563 95.6759 105.472C95.3362 107.308 94.8953 112.612 96.9144 115.037C97.6435 115.913 98.6593 116.338 100.021 116.338C101.383 116.338 102.398 115.913 103.127 115.037C105.145 112.612 104.706 107.308 104.366 105.468C104.198 104.563 104.796 103.692 105.703 103.524C106.611 103.356 107.479 103.951 107.649 104.856C107.804 105.688 109.072 113.104 105.7 117.167C104.336 118.809 102.373 119.677 100.021 119.677Z"
      fill="#18206B"
    />
    <path
      d="M107.922 110.971C108.002 110.122 108.019 109.297 108.004 108.54C110.811 108.005 112.341 105.288 112.82 104.276C112.989 105.507 112.989 106.312 112.989 106.312C112.989 106.312 111.444 110.359 107.922 110.971ZM92.1154 110.938C88.713 110.229 87.2202 106.312 87.2202 106.312C87.2202 106.312 87.2147 105.497 87.3762 104.252C87.833 105.225 89.3135 107.892 92.0368 108.506C92.0195 109.263 92.0368 110.089 92.1154 110.938ZM101.272 105.164H101C100.811 104.837 100.456 104.609 100.058 104.609C100.028 104.609 99.9967 104.611 99.9652 104.614C99.5894 104.644 99.2733 104.861 99.1003 105.164H98.9368C99.7325 103.686 99.9574 102.066 100.008 100.984C100.072 100.983 100.135 100.98 100.2 100.976C100.248 102.057 100.473 103.681 101.272 105.164Z"
      fill="#DAC5D3"
    />
    <path
      d="M95.4551 110.64C95.3808 109.813 95.37 108.985 95.3978 108.223C97.1596 107.59 98.2563 106.428 98.9369 105.164H99.1008C98.9972 105.347 98.9462 105.562 98.9632 105.786L99.1766 108.543C98.5626 109.257 97.4581 110.028 95.4551 110.64ZM104.592 110.591C102.621 109.966 101.535 109.188 100.929 108.472L101.138 105.786C101.157 105.562 101.104 105.347 101 105.164H101.271C101.93 106.388 102.977 107.514 104.641 108.159C104.671 108.923 104.663 109.757 104.592 110.591Z"
      fill="#D06473"
    />
    <path
      d="M99.1777 108.543L98.9622 105.787C98.9467 105.562 98.9978 105.348 99.1002 105.165C99.2738 104.86 99.59 104.644 99.9667 104.615C99.9962 104.612 100.029 104.61 100.058 104.61C100.457 104.61 100.812 104.836 100.999 105.165C101.105 105.348 101.157 105.562 101.139 105.787L100.929 108.472C99.9931 107.369 100.199 106.416 100.049 106.416C99.8985 106.416 100.153 107.41 99.1777 108.543Z"
      fill="#18206B"
    />
    <path
      d="M107.019 111.049C106.537 111.049 106.027 110.987 105.481 110.845C105.166 110.764 104.87 110.679 104.592 110.591C104.664 109.758 104.671 108.923 104.641 108.159C104.905 108.261 105.185 108.352 105.481 108.428C106.027 108.57 106.537 108.633 107.019 108.633C107.364 108.633 107.691 108.601 108.005 108.541C108.02 109.298 108.002 110.123 107.922 110.971C107.635 111.022 107.334 111.049 107.019 111.049ZM93.1898 111.049C92.8122 111.049 92.4546 111.01 92.1153 110.939C92.0373 110.089 92.019 109.264 92.0373 108.506C92.3996 108.589 92.7832 108.633 93.1898 108.633C93.6697 108.633 94.1817 108.57 94.7258 108.428C94.9597 108.368 95.1843 108.3 95.3968 108.223C95.3693 108.984 95.38 109.813 95.4549 110.641C95.2241 110.712 94.9811 110.78 94.7258 110.845C94.1817 110.987 93.6697 111.049 93.1898 111.049Z"
      fill="#18206B"
    />
    <path
      d="M112.989 103.895C112.989 103.895 110.741 109.79 105.481 108.428C99.4965 106.879 100.215 99.7404 100.215 99.7404H99.993C99.993 99.7404 100.713 106.879 94.7261 108.428C89.4677 109.79 87.2207 103.895 87.2207 103.895C87.2207 103.895 87.1142 89.29 100.051 89.29C112.989 89.29 112.989 103.895 112.989 103.895Z"
      fill="white"
    />
    <path
      d="M88.2369 103.508C89.7228 105.811 92.0094 107.783 94.8461 106.636C97.6812 105.76 98.7282 102.442 98.9218 99.7342C98.9757 99.1345 99.5041 98.6919 100.102 98.7458C100.6 98.7903 100.989 99.1631 101.076 99.6311C101.414 101.616 101.271 103.548 100.491 105.435C99.3454 108.435 96.0138 110.47 92.7868 110.27C90.5916 110.129 88.5769 108.742 87.4355 106.981C86.8709 106.002 85.2255 103.52 86.9674 102.948C87.4882 102.803 87.9854 103.069 88.2369 103.508Z"
      fill="#18206B"
    />
    <path
      d="M114.003 104.283C112.888 108.607 108.602 111.545 104.223 109.755C100.096 108.37 98.349 103.623 99.1336 99.6312C99.3687 98.397 101.176 98.4939 101.286 99.7328C101.484 102.67 102.685 106.067 105.843 106.793C108.508 107.63 110.727 105.489 112.066 103.373C112.755 102.382 114.324 103.132 114.003 104.283Z"
      fill="#18206B"
    />
    <path
      d="M107.315 95.9993C107.315 97.6875 105.112 99.1796 103.089 100.193C100.976 101.253 98.6063 101.253 96.4899 100.193C94.4676 99.1796 92.2656 97.6875 92.2656 95.9993C92.2656 90.9053 107.315 90.9053 107.315 95.9993Z"
      fill="#18206B"
    />
    <path
      d="M99.7901 96.4404C99.3457 96.4404 98.9014 96.3629 98.4812 96.2094C97.6797 95.9185 96.8071 95.4887 96.8071 95.0007C96.8071 94.2654 98.2986 93.8986 99.7901 93.8986C101.282 93.8986 102.775 94.2654 102.775 95.0007C102.775 95.4887 101.899 95.9185 101.099 96.2094C100.679 96.3629 100.234 96.4404 99.7901 96.4404Z"
      fill="#B58CA7"
    />
    <path
      d="M284.363 186.599C284.363 191.427 283.64 196.047 282.195 206.12C281.417 211.534 280.432 218.52 279.238 227.963L214.54 262.907C213.804 263.306 212.91 262.77 212.91 261.937V162.873L275.548 143.542C275.866 143.443 276.19 143.4 276.501 143.4C278.084 143.4 279.501 144.571 279.704 146.241C282.808 172.009 284.363 179.525 284.363 186.599Z"
      fill="#6486FF"
    />
    <path
      d="M284.363 186.599C284.363 191.427 283.64 196.047 282.195 206.12L225.688 230.58L212.91 177.566V162.873L275.548 143.542C275.866 143.443 276.19 143.4 276.501 143.4C278.084 143.4 279.501 144.571 279.704 146.242C282.808 172.009 284.363 179.525 284.363 186.599Z"
      fill="#3548EF"
    />
    <path
      d="M215.088 164.48V260.139L277.221 226.582C278.523 216.371 279.581 209.026 280.358 203.613C282.786 186.764 282.786 186.764 280.356 168.524C279.616 162.962 278.693 156.041 277.541 146.501C277.491 146.076 277.226 145.845 277.071 145.745C276.919 145.645 276.599 145.496 276.191 145.623L215.088 164.48ZM214.014 265.219C213.437 265.219 212.858 265.063 212.338 264.752C211.336 264.155 210.738 263.102 210.738 261.937V161.269L274.907 141.465C276.442 140.993 278.094 141.222 279.44 142.096C280.787 142.969 281.669 144.385 281.863 145.978C283.01 155.493 283.929 162.4 284.669 167.949C287.153 186.61 287.153 186.95 284.667 204.232C283.859 209.825 282.758 217.484 281.399 228.237L281.258 229.346L280.274 229.878L215.575 264.82C215.083 265.086 214.548 265.219 214.014 265.219Z"
      fill="#18206B"
    />
    <path
      d="M212.986 262.764C212.942 263.344 212.467 263.788 211.886 263.788H38.709L37.0558 251.996C35.72 242.448 34.6307 235.551 33.7875 230.323C30.1251 207.467 31.209 216.374 37.0558 174.665L37.6469 170.444C38.2603 166.102 41.9717 162.872 46.3514 162.872H212.911C213.409 167.755 213.84 172.387 214.213 176.783C219.234 235.808 213.692 252.62 212.986 262.764Z"
      fill="#6486FF"
    />
    <path
      d="M214.214 176.782L205.981 230.323H33.7876C30.1251 207.467 31.209 216.374 37.0559 174.664L37.6471 170.443C38.2602 166.102 41.9717 162.873 46.3514 162.873H212.911C213.41 167.756 213.842 172.387 214.214 176.782Z"
      fill="#3548EF"
    />
    <path
      d="M40.6025 261.61H210.898C211.059 259.885 211.327 258.003 211.652 255.719C213.371 243.652 216.554 221.31 210.946 165.049H46.3534C43.0748 165.049 40.259 167.497 39.804 170.746L39.2122 174.967C37.7144 185.649 36.5241 193.047 35.6549 198.447C33.26 213.33 33.26 213.33 35.6549 228.213C36.5241 233.614 37.7144 241.011 39.2122 251.693L40.6025 261.61ZM211.886 265.96H36.8194L34.9035 252.297C33.4123 241.659 32.2259 234.286 31.3599 228.903C28.8768 213.475 28.8768 213.184 31.3599 197.756C32.2259 192.373 33.4123 185.001 34.9035 174.363L35.4953 170.142C36.2499 164.759 40.9176 160.699 46.3534 160.699H214.876L215.076 162.655C221.008 220.88 217.724 243.943 215.958 256.333C215.581 258.978 215.284 261.068 215.156 262.915C215.036 264.624 213.599 265.96 211.886 265.96Z"
      fill="#18206B"
    />
    <path
      d="M212.911 162.873L211.603 168.494L199.274 221.393H24.1912L26.0851 213.745L27.4865 208.074L37.034 169.506C38.0194 165.608 41.5286 162.873 45.5525 162.873H212.911Z"
      fill="#6486FF"
    />
    <path
      d="M212.911 162.873L211.603 168.494L199.274 221.393H24.1912L26.0851 213.745L27.4865 208.074C59.5888 218.081 151.405 221.169 181.144 199.425C199.761 185.809 207.908 172.057 211.472 162.873H212.911Z"
      fill="#3548EF"
    />
    <path
      d="M29.8362 207.645L39.1427 170.041C39.8858 167.102 42.5224 165.048 45.5546 165.048H210.172L209.753 166.852C209.497 167.389 209.228 167.938 208.942 168.495H46.1271C37.9928 168.845 37.5485 192.001 29.8362 207.645Z"
      fill="#93A4FF"
    />
    <path
      d="M209.37 168.494H208.943C209.227 167.938 209.498 167.389 209.753 166.851L209.37 168.494Z"
      fill="#3548EF"
    />
    <path
      d="M26.972 219.217H197.548L210.173 165.048H45.5545C42.5224 165.048 39.8858 167.103 39.1426 170.041L26.972 219.217ZM199.274 223.567H24.1928C23.5237 223.567 22.8923 223.258 22.4796 222.732C22.0676 222.205 21.9208 221.517 22.0811 220.869L34.9221 168.986C36.1565 164.102 40.5276 160.697 45.5545 160.697H212.913C213.576 160.697 214.204 161.003 214.617 161.522C215.03 162.042 215.181 162.721 215.03 163.367L201.393 221.886C201.164 222.87 200.285 223.567 199.274 223.567Z"
      fill="#18206B"
    />
    <path
      d="M296.183 193.534L230.578 219.948L212.912 162.872L215.837 161.968L275.895 143.437C277.757 142.862 279.728 143.88 280.34 145.725L293.654 185.902L296.183 193.534Z"
      fill="#6486FF"
    />
    <path
      d="M296.183 193.534L230.578 219.948L212.912 162.872L215.837 161.968C219.77 170.579 231.864 190.901 259.307 193.731C281.003 195.97 289.97 190.43 293.654 185.902L296.183 193.534Z"
      fill="#3548EF"
    />
    <path
      d="M280.991 147.685C280.989 147.685 280.989 147.685 280.989 147.685L280.339 145.725L280.991 147.685Z"
      fill="#985E83"
    />
    <path
      d="M218.086 166.367C217.149 164.715 216.407 163.219 215.836 161.969L275.896 143.437C276.247 143.329 276.602 143.275 276.952 143.275C278.452 143.275 279.843 144.229 280.339 145.725L280.989 147.685C280.611 147.561 280.208 147.495 279.802 147.495C279.434 147.495 279.062 147.549 278.692 147.663L218.086 166.367Z"
      fill="#93A4FF"
    />
    <path
      d="M214.35 167.52L212.911 162.872L215.835 161.971C216.405 163.219 217.148 164.715 218.085 166.368L214.35 167.52Z"
      fill="#3548EF"
    />
    <path
      d="M215.636 164.309L231.954 217.048L293.478 192.278L278.274 146.411C278.036 145.693 277.256 145.29 276.537 145.514L215.636 164.309ZM230.576 222.123C230.255 222.123 229.938 222.052 229.641 221.912C229.093 221.651 228.677 221.171 228.497 220.59L210.835 163.516C210.665 162.965 210.721 162.369 210.99 161.858C211.26 161.347 211.721 160.965 212.274 160.794L275.256 141.357C278.225 140.444 281.43 142.096 282.403 145.044L298.251 192.848C298.611 193.938 298.062 195.121 296.997 195.551L231.388 221.965C231.127 222.07 230.853 222.123 230.576 222.123Z"
      fill="#18206B"
    />
  </svg>
