


    <svg
        fill="none"
        height="24"
        viewBox="0 0 24 24"
        width="24"
        xmlns="http://www.w3.org/2000/svg"
        v-bind="$props"
    >
        <path
            clip-rule="evenodd"
            d="M9.2093 2C6.81491 2 4.95734 2.47461 3.71597 3.71597C2.47461 4.95734 2 6.81491 2 9.2093V14.7907C2 17.1851 2.47461 19.0427 3.71597 20.284C4.95734 21.5254 6.81491 22 9.2093 22H14.7907C17.1851 22 19.0427 21.5254 20.284 20.284C21.5254 19.0427 22 17.1851 22 14.7907V9.2093C22 6.81491 21.5254 4.95734 20.284 3.71597C19.0427 2.47461 17.1851 2 14.7907 2H9.2093ZM10.1864 15.1269C10.3167 15.2571 10.4934 15.3315 10.6795 15.3315C10.8655 15.3315 11.0423 15.2571 11.1725 15.1269L16.4469 9.85243C16.7167 9.58267 16.7167 9.13616 16.4469 8.86639C16.1771 8.59662 15.7306 8.59662 15.4609 8.86639L10.6795 13.6478L8.53993 11.5082C8.27017 11.2385 7.82366 11.2385 7.55389 11.5082C7.28412 11.778 7.28412 12.2245 7.55389 12.4943L10.1864 15.1269Z"
            fill="currentColor"
            fill-rule="evenodd"
        />
    </svg>

