


    <svg
        fill="none"
        height="24"
        viewBox="0 0 24 24"
        width="24"
        xmlns="http://www.w3.org/2000/svg"
        v-bind="$props"
    >
        <path
            clip-rule="evenodd"
            d="M3.71597 3.71597C4.95734 2.47461 6.81491 2 9.2093 2H14.7907C17.1851 2 19.0427 2.47461 20.284 3.71597C21.5254 4.95734 22 6.81491 22 9.2093V14.7907C22 17.1851 21.5254 19.0427 20.284 20.284C19.0427 21.5254 17.1851 22 14.7907 22H9.2093C6.81491 22 4.95734 21.5254 3.71597 20.284C2.47461 19.0427 2 17.1851 2 14.7907V9.2093C2 6.81491 2.47461 4.95734 3.71597 3.71597ZM4.70263 4.70263C3.85098 5.55429 3.39535 6.95253 3.39535 9.2093V14.7907C3.39535 17.0475 3.85098 18.4457 4.70263 19.2974C5.55429 20.149 6.95253 20.6047 9.2093 20.6047H14.7907C17.0475 20.6047 18.4457 20.149 19.2974 19.2974C20.149 18.4457 20.6047 17.0475 20.6047 14.7907V9.2093C20.6047 6.95253 20.149 5.55429 19.2974 4.70263C18.4457 3.85098 17.0475 3.39535 14.7907 3.39535H9.2093C6.95253 3.39535 5.55429 3.85098 4.70263 4.70263Z"
            fill="currentColor"
            fill-rule="evenodd"
        />
        <path
            clip-rule="evenodd"
            d="M6.20118 6.20118C7.07014 5.33222 8.37044 5 10.0465 5H13.9535C15.6296 5 16.9299 5.33222 17.7988 6.20118C18.6678 7.07014 19 8.37044 19 10.0465V13.9535C19 15.6296 18.6678 16.9299 17.7988 17.7988C16.9299 18.6678 15.6296 19 13.9535 19H10.0465C8.37044 19 7.07014 18.6678 6.20118 17.7988C5.33222 16.9299 5 15.6296 5 13.9535V10.0465C5 8.37044 5.33222 7.07014 6.20118 6.20118Z"
            fill="currentColor"
            fill-rule="evenodd"
        />
    </svg>

