


    <svg
        fill="none"
        height="24"
        viewBox="0 0 24 24"
        width="24"
        xmlns="http://www.w3.org/2000/svg"
        v-bind="$props"
    >
        <g clip-path="url(#clip0_4955_114390)">
            <path
                d="M12.3061 0.517662C12.3061 0.517662 19.0631 0.214443 22.6454 7.00618H11.7312C11.7312 7.00618 9.67146 6.9398 7.91199 9.43857C7.40656 10.4874 6.86328 11.5677 7.47295 13.6969C6.59469 12.209 2.81029 5.61945 2.81029 5.61945C2.81029 5.61945 5.47969 0.786163 12.3061 0.517662Z"
                fill="#EC3F2E"
            />
            <path
                d="M22.2948 17.7593C22.2948 17.7593 19.1768 23.7645 11.5069 23.4675C12.4546 21.828 16.9656 14.0159 16.9656 14.0159C16.9656 14.0159 18.0554 12.2659 16.7697 9.49231C16.1157 8.52882 15.4492 7.52112 13.3012 6.98402C15.0292 6.96833 22.6265 6.98402 22.6265 6.98402C22.6265 6.98402 25.4726 11.7131 22.2948 17.7593Z"
                fill="#FFBC00"
            />
            <path
                d="M2.3649 17.8067C2.3649 17.8067 -1.2774 12.1047 2.81659 5.60994C3.76114 7.24948 8.2721 15.0616 8.2721 15.0616C8.2721 15.0616 9.24509 16.8812 12.2871 17.1527C13.4466 17.0675 14.6532 16.9948 16.1949 15.4059C15.345 16.9096 11.5321 23.4802 11.5321 23.4802C11.5321 23.4802 6.01034 23.5813 2.3649 17.8067Z"
                fill="#00AF43"
            />
            <path
                d="M7.16335 12.0921C7.16335 9.26803 9.45364 6.97775 12.2777 6.97775C15.1018 6.97775 17.392 9.26803 17.392 12.0921C17.392 14.9162 15.1018 17.2064 12.2777 17.2064C9.45364 17.2033 7.16335 14.9162 7.16335 12.0921Z"
                fill="white"
            />
            <path
                d="M8.01936 12.0921C8.01936 9.74188 9.92426 7.83384 12.2777 7.83384C14.6279 7.83384 16.5359 9.73874 16.5359 12.0921C16.5359 14.4424 14.6311 16.3504 12.2777 16.3504C9.9274 16.3504 8.01936 14.4424 8.01936 12.0921Z"
                fill="#4086F5"
            />
        </g>
        <defs>
            <clipPath id="clip0_4955_114390">
                <rect
                    fill="white"
                    height="24"
                    width="24"
                />
            </clipPath>
        </defs>
    </svg>

