


    <svg
        fill="none"
        height="24"
        viewBox="0 0 24 24"
        width="24"
        xmlns="http://www.w3.org/2000/svg"
        v-bind="$props"
    >
        <path
            d="M12.0002 22.6308C11.3302 22.6308 10.6502 22.4808 10.1202 22.1708L4.62023 19.0008C2.38023 17.4908 2.24023 17.2608 2.24023 14.8908V9.11078C2.24023 6.74078 2.37023 6.51078 4.57023 5.02078L10.1102 1.82078C11.1602 1.21078 12.8102 1.21078 13.8602 1.82078L19.3802 5.00078C21.6202 6.51078 21.7602 6.74078 21.7602 9.11078V14.8808C21.7602 17.2508 21.6302 17.4808 19.4302 18.9708L13.8902 22.1708C13.3502 22.4808 12.6702 22.6308 12.0002 22.6308ZM12.0002 2.87078C11.5802 2.87078 11.1702 2.95078 10.8802 3.12078L5.38023 6.30078C3.75023 7.40078 3.75023 7.40078 3.75023 9.11078V14.8808C3.75023 16.5908 3.75023 16.5908 5.42023 17.7208L10.8802 20.8708C11.4702 21.2108 12.5402 21.2108 13.1302 20.8708L18.6302 17.6908C20.2502 16.5908 20.2502 16.5908 20.2502 14.8808V9.11078C20.2502 7.40078 20.2502 7.40078 18.5802 6.27078L13.1202 3.12078C12.8302 2.95078 12.4202 2.87078 12.0002 2.87078Z"
            fill="currentColor"
        />
        <path
            d="M12.0002 15.7508C9.93023 15.7508 8.25023 14.0708 8.25023 12.0008C8.25023 9.93078 9.93023 8.25078 12.0002 8.25078C14.0702 8.25078 15.7502 9.93078 15.7502 12.0008C15.7502 14.0708 14.0702 15.7508 12.0002 15.7508ZM12.0002 9.75078C10.7602 9.75078 9.75023 10.7608 9.75023 12.0008C9.75023 13.2408 10.7602 14.2508 12.0002 14.2508C13.2402 14.2508 14.2502 13.2408 14.2502 12.0008C14.2502 10.7608 13.2402 9.75078 12.0002 9.75078Z"
            fill="currentColor"
        />
    </svg>

