


    <svg
        fill="none"
        height="24"
        viewBox="0 0 24 24"
        width="24"
        xmlns="http://www.w3.org/2000/svg"
        v-bind="$props"
    >
        <path
            clip-rule="evenodd"
            d="M6.36816 6.36816C6.85904 5.87728 7.65492 5.87728 8.14581 6.36816L12 10.2224L15.8542 6.36816C16.3451 5.87728 17.141 5.87728 17.6318 6.36816C18.1227 6.85904 18.1227 7.65492 17.6318 8.14581L13.7776 12L17.6318 15.8542C18.1227 16.3451 18.1227 17.141 17.6318 17.6318C17.141 18.1227 16.3451 18.1227 15.8542 17.6318L12 13.7776L8.14581 17.6318C7.65492 18.1227 6.85904 18.1227 6.36816 17.6318C5.87728 17.141 5.87728 16.3451 6.36816 15.8542L10.2224 12L6.36816 8.14581C5.87728 7.65492 5.87728 6.85904 6.36816 6.36816Z"
            fill="currentColor"
            fill-rule="evenodd"
        />
    </svg>

