


    <svg
        fill="none"
        height="24"
        viewBox="0 0 24 24"
        width="24"
        xmlns="http://www.w3.org/2000/svg"
        v-bind="$props"
    >
        <path
            d="M12.1494 19.35C11.7394 19.35 11.3994 19.01 11.3994 18.6V16.5C11.3994 16.09 11.7394 15.75 12.1494 15.75C12.5594 15.75 12.8994 16.09 12.8994 16.5V18.6C12.8994 19.01 12.5594 19.35 12.1494 19.35Z"
            fill="currentColor"
        />

        <path
            d="M17.8994 22.75H6.39941V21C6.39941 19.48 7.62941 18.25 9.14941 18.25H15.1494C16.6694 18.25 17.8994 19.48 17.8994 21V22.75ZM7.89941 21.25H16.3994V21C16.3994 20.31 15.8394 19.75 15.1494 19.75H9.14941C8.45941 19.75 7.89941 20.31 7.89941 21V21.25Z"
            fill="currentColor"
        />

        <path
            d="M18.1494 22.75H6.14941C5.73941 22.75 5.39941 22.41 5.39941 22C5.39941 21.59 5.73941 21.25 6.14941 21.25H18.1494C18.5594 21.25 18.8994 21.59 18.8994 22C18.8994 22.41 18.5594 22.75 18.1494 22.75Z"
            fill="currentColor"
        />

        <path
            d="M18.4294 12.44C18.2194 12.44 18.0094 12.35 17.8594 12.18C17.6694 11.96 17.6194 11.65 17.7394 11.39C18.0794 10.61 18.2494 9.78 18.2494 8.91V5.91C18.2494 5.56 18.1894 5.22 18.0694 4.86C18.0594 4.83 18.0494 4.79 18.0394 4.75C18.0094 4.6 17.9994 4.45 17.9994 4.31C17.9994 3.9 18.3394 3.56 18.7494 3.56H19.3494C21.1394 3.56 22.5994 5.06 22.5994 6.91C22.5994 8.44 21.9694 9.95 20.8794 11.04C20.8594 11.06 20.7994 11.11 20.7894 11.12C20.1994 11.61 19.5294 12.16 18.6294 12.41C18.5594 12.43 18.4994 12.44 18.4294 12.44ZM19.6794 5.09C19.7294 5.36 19.7494 5.64 19.7494 5.91V8.91C19.7494 9.32 19.7194 9.71 19.6594 10.11C19.7194 10.06 19.7694 10.02 19.8294 9.97C20.6294 9.17 21.0994 8.05 21.0994 6.91C21.0994 6.01 20.4894 5.25 19.6794 5.09Z"
            fill="currentColor"
        />

        <path
            d="M5.57941 12.4C5.49941 12.4 5.42941 12.39 5.34941 12.36C4.52941 12.1 3.75941 11.62 3.11941 10.98C1.96941 9.71 1.39941 8.32 1.39941 6.85C1.39941 5.03 2.82941 3.6 4.64941 3.6H5.29941C5.54941 3.6 5.78941 3.73 5.92941 3.94C6.06941 4.15 6.08941 4.42 5.98941 4.65C5.82941 5.01 5.74941 5.42 5.74941 5.85V8.85C5.74941 9.71 5.91941 10.55 6.26941 11.35C6.38941 11.62 6.32941 11.93 6.13941 12.15C5.98941 12.31 5.78941 12.4 5.57941 12.4ZM4.29941 5.13C3.48941 5.29 2.89941 5.99 2.89941 6.85C2.89941 7.94 3.33941 8.99 4.20941 9.95C4.24941 10 4.29941 10.04 4.34941 10.08C4.27941 9.67 4.24941 9.26 4.24941 8.85V5.85C4.24941 5.61 4.26941 5.37 4.29941 5.13Z"
            fill="currentColor"
        />

        <path
            d="M11.9994 16.75C7.72941 16.75 4.24941 13.27 4.24941 9V6C4.24941 3.38 6.37941 1.25 8.99941 1.25H14.9994C17.6194 1.25 19.7494 3.38 19.7494 6V9C19.7494 13.27 16.2694 16.75 11.9994 16.75ZM8.99941 2.75C7.20941 2.75 5.74941 4.21 5.74941 6V9C5.74941 12.45 8.54941 15.25 11.9994 15.25C15.4494 15.25 18.2494 12.45 18.2494 9V6C18.2494 4.21 16.7894 2.75 14.9994 2.75H8.99941Z"
            fill="currentColor"
        />
    </svg>

