


    <svg
        fill="none"
        height="24"
        viewBox="0 0 24 24"
        width="24"
        xmlns="http://www.w3.org/2000/svg"
        v-bind="$props"
    >
        <path
            clip-rule="evenodd"
            d="M8.63959 8.64154C8.93248 8.34865 9.40736 8.34865 9.70025 8.64154L11.9999 10.9412L14.2996 8.64154C14.5925 8.34865 15.0674 8.34865 15.3603 8.64154C15.6531 8.93444 15.6531 9.40931 15.3603 9.70221L13.0606 12.0019L15.3603 14.3015C15.6531 14.5944 15.6531 15.0693 15.3603 15.3622C15.0674 15.6551 14.5925 15.6551 14.2996 15.3622L11.9999 13.0625L9.70025 15.3622C9.40736 15.6551 8.93248 15.6551 8.63959 15.3622C8.3467 15.0693 8.3467 14.5944 8.63959 14.3015L10.9393 12.0019L8.63959 9.70221C8.3467 9.40931 8.3467 8.93444 8.63959 8.64154Z"
            fill="currentColor"
            fill-rule="evenodd"
        />
    </svg>

