


    <svg
        fill="none"
        height="24"
        viewBox="0 0 24 24"
        width="24"
        xmlns="http://www.w3.org/2000/svg"
        v-bind="$props"
    >
        <path
            d="M21.7595 15.92L15.3595 4.4C14.4995 2.85 13.3095 2 11.9995 2C10.6895 2 9.49949 2.85 8.63949 4.4L2.23949 15.92C1.42949 17.39 1.33949 18.8 1.98949 19.91C2.63949 21.02 3.91949 21.63 5.59949 21.63H18.3995C20.0795 21.63 21.3595 21.02 22.0095 19.91C22.6595 18.8 22.5695 17.38 21.7595 15.92ZM11.2495 9C11.2495 8.59 11.5895 8.25 11.9995 8.25C12.4095 8.25 12.7495 8.59 12.7495 9V14C12.7495 14.41 12.4095 14.75 11.9995 14.75C11.5895 14.75 11.2495 14.41 11.2495 14V9ZM12.7095 17.71C12.6595 17.75 12.6095 17.79 12.5595 17.83C12.4995 17.87 12.4395 17.9 12.3795 17.92C12.3195 17.95 12.2595 17.97 12.1895 17.98C12.1295 17.99 12.0595 18 11.9995 18C11.9395 18 11.8695 17.99 11.7995 17.98C11.7395 17.97 11.6795 17.95 11.6195 17.92C11.5595 17.9 11.4995 17.87 11.4395 17.83C11.3895 17.79 11.3395 17.75 11.2895 17.71C11.1095 17.52 10.9995 17.26 10.9995 17C10.9995 16.74 11.1095 16.48 11.2895 16.29C11.3395 16.25 11.3895 16.21 11.4395 16.17C11.4995 16.13 11.5595 16.1 11.6195 16.08C11.6795 16.05 11.7395 16.03 11.7995 16.02C11.9295 15.99 12.0695 15.99 12.1895 16.02C12.2595 16.03 12.3195 16.05 12.3795 16.08C12.4395 16.1 12.4995 16.13 12.5595 16.17C12.6095 16.21 12.6595 16.25 12.7095 16.29C12.8895 16.48 12.9995 16.74 12.9995 17C12.9995 17.26 12.8895 17.52 12.7095 17.71Z"
            fill="currentColor"
        />
    </svg>

