


    <svg
        fill="none"
        height="24"
        viewBox="0 0 24 24"
        width="24"
        xmlns="http://www.w3.org/2000/svg"
        v-bind="$props"
    >
        <path
            clip-rule="evenodd"
            d="M11.9999 8.24734C12.4141 8.24734 12.7499 8.58313 12.7499 8.99734V13.9973C12.7499 14.4116 12.4141 14.7473 11.9999 14.7473C11.5856 14.7473 11.2499 14.4116 11.2499 13.9973V8.99734C11.2499 8.58313 11.5856 8.24734 11.9999 8.24734Z"
            fill="currentColor"
            fill-rule="evenodd"
        />

        <path
            clip-rule="evenodd"
            d="M11.9999 3.33984C11.2 3.33984 10.2322 3.88874 9.41576 5.36106L3.35577 16.261C2.59528 17.6326 2.6278 18.7145 3.0354 19.4089C3.44259 20.1026 4.36961 20.6573 5.93985 20.6573H11.9999C12.0417 20.6573 12.0827 20.6608 12.1226 20.6673H18.0599C19.6243 20.6673 20.5522 20.1131 20.9609 19.4183C21.3697 18.7234 21.4039 17.6416 20.6439 16.271L14.5843 5.36168C13.7679 3.88936 12.7997 3.33984 11.9999 3.33984ZM11.8771 22.1573H5.93985C4.04009 22.1573 2.50711 21.4721 1.7418 20.1683C0.976903 18.8652 1.12442 17.1921 2.04393 15.5337L8.10394 4.63363C9.0675 2.89634 10.4499 1.83984 11.9999 1.83984C13.5498 1.83984 14.9319 2.8957 15.8954 4.63301L21.9556 15.5433C22.8757 17.2027 23.02 18.8763 22.2538 20.1789C21.4875 21.4816 19.9554 22.1673 18.0599 22.1673H11.9999C11.958 22.1673 11.917 22.1639 11.8771 22.1573Z"
            fill="currentColor"
            fill-rule="evenodd"
        />

        <path
            clip-rule="evenodd"
            d="M10.9944 16.9973C10.9944 16.4451 11.4421 15.9973 11.9944 15.9973H12.0033C12.5556 15.9973 13.0033 16.4451 13.0033 16.9973C13.0033 17.5496 12.5556 17.9973 12.0033 17.9973H11.9944C11.4421 17.9973 10.9944 17.5496 10.9944 16.9973Z"
            fill="currentColor"
            fill-rule="evenodd"
        />
    </svg>

