


    <svg
        fill="none"
        height="24"
        viewBox="0 0 24 24"
        width="24"
        xmlns="http://www.w3.org/2000/svg"
        v-bind="$props"
    >
        <path
            d="M12.0001 16.3305C9.61008 16.3305 7.67008 14.3905 7.67008 12.0005C7.67008 9.61047 9.61008 7.67047 12.0001 7.67047C14.3901 7.67047 16.3301 9.61047 16.3301 12.0005C16.3301 14.3905 14.3901 16.3305 12.0001 16.3305ZM12.0001 9.17047C10.4401 9.17047 9.17008 10.4405 9.17008 12.0005C9.17008 13.5605 10.4401 14.8305 12.0001 14.8305C13.5601 14.8305 14.8301 13.5605 14.8301 12.0005C14.8301 10.4405 13.5601 9.17047 12.0001 9.17047Z"
            fill="currentColor"
        />

        <path
            d="M12.0001 21.0205C8.24008 21.0205 4.69008 18.8205 2.25008 15.0005C1.19008 13.3505 1.19008 10.6605 2.25008 9.00047C4.70008 5.18047 8.25008 2.98047 12.0001 2.98047C15.7501 2.98047 19.3001 5.18047 21.7401 9.00047C22.8001 10.6505 22.8001 13.3405 21.7401 15.0005C19.3001 18.8205 15.7501 21.0205 12.0001 21.0205ZM12.0001 4.48047C8.77008 4.48047 5.68008 6.42047 3.52008 9.81047C2.77008 10.9805 2.77008 13.0205 3.52008 14.1905C5.68008 17.5805 8.77008 19.5205 12.0001 19.5205C15.2301 19.5205 18.3201 17.5805 20.4801 14.1905C21.2301 13.0205 21.2301 10.9805 20.4801 9.81047C18.3201 6.42047 15.2301 4.48047 12.0001 4.48047Z"
            fill="currentColor"
        />
    </svg>

