


    <svg
        fill="none"
        height="24"
        viewBox="0 0 24 24"
        width="24"
        xmlns="http://www.w3.org/2000/svg"
        v-bind="$props"
    >
        <path
            d="M9.46945 15.2775C9.27945 15.2775 9.08945 15.2075 8.93945 15.0575C8.11945 14.2375 7.66945 13.1475 7.66945 11.9975C7.66945 9.6075 9.60945 7.6675 11.9995 7.6675C13.1495 7.6675 14.2395 8.1175 15.0595 8.9375C15.1995 9.0775 15.2795 9.2675 15.2795 9.4675C15.2795 9.6675 15.1995 9.8575 15.0595 9.9975L9.99945 15.0575C9.84945 15.2075 9.65945 15.2775 9.46945 15.2775ZM11.9995 9.1675C10.4395 9.1675 9.16945 10.4375 9.16945 11.9975C9.16945 12.4975 9.29945 12.9775 9.53945 13.3975L13.3995 9.5375C12.9795 9.2975 12.4995 9.1675 11.9995 9.1675Z"
            fill="currentColor"
        />

        <path
            d="M5.59945 18.5075C5.42945 18.5075 5.24945 18.4475 5.10945 18.3275C4.03945 17.4175 3.07945 16.2975 2.25945 14.9975C1.19945 13.3475 1.19945 10.6575 2.25945 8.9975C4.69945 5.1775 8.24945 2.9775 11.9995 2.9775C14.1995 2.9775 16.3695 3.7375 18.2695 5.1675C18.5995 5.4175 18.6695 5.8875 18.4195 6.2175C18.1695 6.5475 17.6995 6.6175 17.3695 6.3675C15.7295 5.1275 13.8695 4.4775 11.9995 4.4775C8.76945 4.4775 5.67945 6.4175 3.51945 9.8075C2.76945 10.9775 2.76945 13.0175 3.51945 14.1875C4.26945 15.3575 5.12945 16.3675 6.07945 17.1875C6.38945 17.4575 6.42945 17.9275 6.15945 18.2475C6.01945 18.4175 5.80945 18.5075 5.59945 18.5075Z"
            fill="currentColor"
        />

        <path
            d="M11.9995 21.0175C10.6695 21.0175 9.36945 20.7475 8.11945 20.2175C7.73945 20.0575 7.55945 19.6175 7.71945 19.2375C7.87945 18.8575 8.31945 18.6775 8.69945 18.8375C9.75945 19.2875 10.8695 19.5175 11.9895 19.5175C15.2195 19.5175 18.3095 17.5775 20.4695 14.1875C21.2195 13.0175 21.2195 10.9775 20.4695 9.8075C20.1595 9.3175 19.8195 8.8475 19.4595 8.4075C19.1995 8.0875 19.2495 7.6175 19.5695 7.3475C19.8895 7.0875 20.3595 7.1275 20.6295 7.4575C21.0195 7.9375 21.3995 8.4575 21.7395 8.9975C22.7995 10.6475 22.7995 13.3375 21.7395 14.9975C19.2995 18.8175 15.7495 21.0175 11.9995 21.0175Z"
            fill="currentColor"
        />

        <path
            d="M12.6895 16.2675C12.3395 16.2675 12.0195 16.0175 11.9495 15.6575C11.8695 15.2475 12.1395 14.8575 12.5495 14.7875C13.6495 14.5875 14.5695 13.6675 14.7695 12.5675C14.8495 12.1575 15.2395 11.8975 15.6495 11.9675C16.0595 12.0475 16.3295 12.4375 16.2495 12.8475C15.9295 14.5775 14.5495 15.9475 12.8295 16.2675C12.7795 16.2575 12.7395 16.2675 12.6895 16.2675Z"
            fill="currentColor"
        />

        <path
            d="M1.99945 22.7475C1.80945 22.7475 1.61945 22.6775 1.46945 22.5275C1.17945 22.2375 1.17945 21.7575 1.46945 21.4675L8.93945 13.9975C9.22945 13.7075 9.70945 13.7075 9.99945 13.9975C10.2895 14.2875 10.2895 14.7675 9.99945 15.0575L2.52945 22.5275C2.37945 22.6775 2.18945 22.7475 1.99945 22.7475Z"
            fill="currentColor"
        />

        <path
            d="M14.5295 10.2175C14.3395 10.2175 14.1495 10.1475 13.9995 9.9975C13.7095 9.7075 13.7095 9.2275 13.9995 8.9375L21.4695 1.4675C21.7595 1.1775 22.2395 1.1775 22.5295 1.4675C22.8195 1.7575 22.8195 2.2375 22.5295 2.5275L15.0595 9.9975C14.9095 10.1475 14.7195 10.2175 14.5295 10.2175Z"
            fill="currentColor"
        />
    </svg>

