


    <svg
        fill="none"
        height="24"
        viewBox="0 0 24 24"
        width="24"
        xmlns="http://www.w3.org/2000/svg"
        v-bind="$props"
    >
        <path
            d="M21.27 9.18281C20.98 8.72281 20.67 8.29281 20.35 7.89281C19.98 7.42281 19.28 7.38281 18.86 7.80281L15.86 10.8028C16.08 11.4628 16.12 12.2228 15.92 13.0128C15.57 14.4228 14.43 15.5628 13.02 15.9128C12.23 16.1128 11.47 16.0728 10.81 15.8528C10.81 15.8528 9.38 17.2828 8.35 18.3128C7.85 18.8128 8.01 19.6928 8.68 19.9528C9.75 20.3628 10.86 20.5728 12 20.5728C13.78 20.5728 15.51 20.0528 17.09 19.0828C18.7 18.0828 20.15 16.6128 21.32 14.7428C22.27 13.2328 22.22 10.6928 21.27 9.18281Z"
            fill="currentColor"
        />

        <path
            d="M14.02 9.98281L9.98 14.0228C9.47 13.5028 9.14 12.7828 9.14 12.0028C9.14 10.4328 10.42 9.14281 12 9.14281C12.78 9.14281 13.5 9.47281 14.02 9.98281Z"
            fill="currentColor"
        />

        <path
            d="M18.25 5.75281L14.86 9.14281C14.13 8.40281 13.12 7.96281 12 7.96281C9.76 7.96281 7.96 9.77281 7.96 12.0028C7.96 13.1228 8.41 14.1328 9.14 14.8628L5.76 18.2528H5.75C4.64 17.3528 3.62 16.2028 2.75 14.8428C1.75 13.2728 1.75 10.7228 2.75 9.15281C3.91 7.33281 5.33 5.90281 6.91 4.92281C8.49 3.96281 10.22 3.43281 12 3.43281C14.23 3.43281 16.39 4.25281 18.25 5.75281Z"
            fill="currentColor"
        />

        <path
            d="M14.86 12.0028C14.86 13.5728 13.58 14.8628 12 14.8628C11.94 14.8628 11.89 14.8628 11.83 14.8428L14.84 11.8328C14.86 11.8928 14.86 11.9428 14.86 12.0028Z"
            fill="currentColor"
        />

        <path
            d="M21.77 2.23281C21.47 1.93281 20.98 1.93281 20.68 2.23281L2.23 20.6928C1.93 20.9928 1.93 21.4828 2.23 21.7828C2.38 21.9228 2.57 22.0028 2.77 22.0028C2.97 22.0028 3.16 21.9228 3.31 21.7728L21.77 3.31281C22.08 3.01281 22.08 2.53281 21.77 2.23281Z"
            fill="currentColor"
        />
    </svg>

