<script lang="ts" setup>
import type { HTMLSVGAttributes } from "@/types/html";

export type FilterIconProps = HTMLSVGAttributes & {
    active?: boolean;
};

const props = defineProps<FilterIconProps>();
</script>


    <svg
        fill="none"
        height="16"
        viewBox="0 0 16 16"
        width="16"
        xmlns="http://www.w3.org/2000/svg"
    >
        <path
            d="M13.7333 2.73177V4.19844C13.7333 4.73177 13.3999 5.39844 13.0666 5.73177L10.1999 8.2651C9.79993 8.59844 9.53327 9.26511 9.53327 9.79844V12.6651C9.53327 13.0651 9.2666 13.5984 8.93327 13.7984L7.99994 14.3984C7.13327 14.9318 5.93327 14.3318 5.93327 13.2651V9.73177C5.93327 9.2651 5.6666 8.6651 5.39994 8.33177L5.0866 8.0051C4.87994 7.7851 4.83994 7.45177 5.0066 7.19177L8.41993 1.71177C8.53993 1.51844 8.75327 1.39844 8.9866 1.39844H12.3999C13.1333 1.39844 13.7333 1.99844 13.7333 2.73177Z"
            :fill="props.active ? 'currentColor' : `#E0E0E0`"
        />
        <path
            d="M6.89994 2.41844L4.53327 6.21177C4.3066 6.57844 3.7866 6.63177 3.4866 6.31844L2.8666 5.6651C2.53327 5.33177 2.2666 4.73177 2.2666 4.33177V2.79844C2.2666 1.99844 2.8666 1.39844 3.59993 1.39844H6.33327C6.85327 1.39844 7.17327 1.97177 6.89994 2.41844Z"
            :fill="props.active ? 'currentColor' : `#E0E0E0`"
        />
    </svg>

