


    <svg
        fill="none"
        height="24"
        viewBox="0 0 24 24"
        width="24"
        xmlns="http://www.w3.org/2000/svg"
        v-bind="$props"
    >
        <path
            d="M6.51143 4.54189L6.51143 4.54189C6.19667 4.7124 5.80916 4.59203 5.63042 4.28559L5.62804 4.2815L5.6281 4.28146C5.4592 3.96966 5.57466 3.56822 5.8884 3.39818L6.51143 4.54189ZM6.51143 4.54189L6.51224 4.54145M6.51143 4.54189L6.51224 4.54145M6.51224 4.54145C8.19936 3.61403 10.0544 3.15 12.01 3.15C13.9732 3.15 15.6091 3.56295 17.5086 4.54194C17.6017 4.59448 17.7065 4.62 17.81 4.62C18.0469 4.62 18.2677 4.48798 18.383 4.25927C18.5516 3.94529 18.4322 3.55487 18.1092 3.38692L18.1086 3.38663M6.51224 4.54145L18.1086 3.38663M18.1086 3.38663C16.0491 2.32661 14.1657 1.85 12.01 1.85C9.83512 1.85 7.77052 2.37618 5.88847 3.39814L18.1086 3.38663ZM21.0217 8.81234C20.018 7.40328 18.7398 6.29752 17.2186 5.51662C14.0254 3.87439 9.95426 3.88453 6.77135 5.52661C5.24946 6.30791 3.97115 7.42413 2.96751 8.84338L2.96751 8.84338L2.96685 8.84433C2.7613 9.13983 2.82381 9.54407 3.12432 9.75313L3.12431 9.75316L20.9 8.89999M21.0217 8.81234C21.0219 8.81255 21.022 8.81276 21.0222 8.81297L20.9 8.89999M21.0217 8.81234C21.0216 8.81215 21.0214 8.81195 21.0213 8.81176L20.9 8.89999M21.0217 8.81234C21.2303 9.09988 21.1649 9.51494 20.8656 9.72313C20.5704 9.92852 20.1666 9.86626 19.9574 9.5665M20.9 8.89999C21.06 9.12 21.01 9.43999 20.78 9.6C20.55 9.76001 20.24 9.70999 20.08 9.48M19.9574 9.5665C19.9576 9.56673 19.9577 9.56696 19.9579 9.56719L20.08 9.48M19.9574 9.5665C19.9572 9.56622 19.957 9.56595 19.9568 9.56567L20.08 9.48M19.9574 9.5665L20.08 9.48M14.4636 18.0955L14.464 18.0957C15.145 18.5561 15.9444 18.78 16.92 18.78C17.1505 18.78 17.5416 18.7509 17.9336 18.6823C18.287 18.6174 18.6234 18.8539 18.6877 19.2136C18.7525 19.5667 18.5165 19.9028 18.1574 19.9675C18.157 19.9675 18.1567 19.9676 18.1563 19.9677L18.13 19.82C17.56 19.93 17.06 19.94 16.92 19.94L14.4636 18.0955ZM14.4636 18.0955C13.2835 17.3023 12.59 16.0181 12.59 14.66C12.59 14.2972 12.3028 14.01 11.94 14.01C11.5771 14.01 11.29 14.2972 11.29 14.66C11.29 16.4517 12.2063 18.1372 13.7355 19.1739L14.4636 18.0955ZM4.0161 9.59151C4.01749 9.58916 4.01886 9.5868 4.02022 9.58442L3.88998 9.51L4.01204 9.59719C4.01339 9.59529 4.01475 9.5934 4.0161 9.59151ZM8.40105 18.4371L8.40059 18.4362C7.80527 17.3823 7.48998 16.0785 7.48998 14.66C7.48998 12.3311 9.50428 10.42 12 10.42C14.4957 10.42 16.51 12.3311 16.51 14.66C16.51 15.0228 16.7971 15.31 17.16 15.31C17.5228 15.31 17.81 15.0228 17.81 14.66C17.81 11.6003 15.1959 9.12 12 9.12C8.80412 9.12 6.18997 11.6003 6.18997 14.66C6.18997 16.2916 6.55468 17.8174 7.25894 19.073C7.93625 20.2961 8.4152 20.8672 9.29131 21.7435C9.41303 21.8767 9.58417 21.94 9.74999 21.94C9.91975 21.94 10.0851 21.8744 10.2209 21.751L10.2211 21.7513L10.2287 21.7433C10.4737 21.4854 10.4737 21.0846 10.2287 20.8267L10.2287 20.8267L10.2267 20.8246C9.46268 20.0506 9.03237 19.5714 8.40105 18.4371ZM14.74 22.1246L14.74 22.1246L14.7436 22.1255C14.7857 22.136 14.8506 22.15 14.91 22.15C15.1852 22.15 15.4585 21.9564 15.5258 21.6554C15.6139 21.3205 15.4217 20.9573 15.0689 20.8651C13.6824 20.4815 12.7957 19.9738 11.8655 19.0534C10.6843 17.8819 10.04 16.3204 10.04 14.65C10.04 13.6724 10.8929 12.86 11.97 12.86C13.047 12.86 13.9 13.6724 13.9 14.65C13.9 16.3593 15.3537 17.74 17.13 17.74C18.9063 17.74 20.36 16.3593 20.36 14.65C20.36 10.2399 16.5853 6.67001 11.96 6.67001C8.67531 6.67001 5.67079 8.51045 4.31457 11.3554L4.31441 11.3558C3.85371 12.3284 3.61998 13.4407 3.61998 14.66C3.61998 16.0283 3.86335 17.3459 4.3592 18.6717C4.4774 18.9984 4.85282 19.1796 5.19146 19.0509C5.53278 18.9313 5.69876 18.552 5.57025 18.2168C4.97857 16.6388 4.90998 15.428 4.90998 14.66C4.90998 13.639 5.10633 12.7118 5.48512 11.9251L5.48533 11.9247C6.62886 9.53006 9.17407 7.98 11.96 7.98C15.8857 7.98 19.06 10.9812 19.06 14.66C19.06 15.6376 18.207 16.45 17.13 16.45C16.0529 16.45 15.2 15.6376 15.2 14.66C15.2 12.9507 13.7463 11.57 11.97 11.57C10.1937 11.57 8.73997 12.9507 8.73997 14.66C8.73997 16.6799 9.52588 18.5682 10.9543 19.9864L10.9549 19.987C12.0643 21.0761 13.1272 21.6783 14.74 22.1246Z"
            fill="currentColor"
            stroke="currentColor"
            stroke-width="0.3"
        />
    </svg>

