


    <svg
        fill="none"
        height="24"
        viewBox="0 0 24 24"
        width="24"
        xmlns="http://www.w3.org/2000/svg"
        v-bind="$props"
    >
        <path
            d="M21.7429 8.04486C21.2862 6.94305 20.3605 5.75354 19.6338 5.37779C20.2253 6.54011 20.5674 7.70594 20.6982 8.57582C20.6982 8.57582 20.6982 8.58196 20.7004 8.59336C19.5117 5.62332 17.4958 4.42549 15.8495 1.81805C15.766 1.68652 15.6829 1.55498 15.6015 1.41424C15.5555 1.33488 15.5184 1.26298 15.486 1.19502C15.4178 1.06318 15.3651 0.923844 15.3289 0.779812C15.3292 0.772973 15.327 0.76627 15.3226 0.761005C15.3182 0.755739 15.3121 0.752285 15.3053 0.751313C15.2989 0.749562 15.2921 0.749562 15.2856 0.751313C15.2839 0.752107 15.2823 0.75314 15.2808 0.754382C15.2782 0.754382 15.2756 0.757452 15.2729 0.758328L15.2773 0.752629C12.6362 2.30297 11.7402 5.17085 11.658 6.60588C10.6026 6.67821 9.59346 7.06769 8.76226 7.72348C8.67539 7.64986 8.58455 7.58106 8.49015 7.51741C8.25061 6.67703 8.24049 5.78762 8.46084 4.94198C7.38068 5.43523 6.54071 6.21347 5.92998 6.90227H5.92517C5.50824 6.37307 5.53756 4.62761 5.56118 4.26327C5.55637 4.24047 5.25057 4.42242 5.21119 4.45004C4.8433 4.71307 4.4994 5.00828 4.18354 5.3322C3.8241 5.69741 3.49572 6.09207 3.20182 6.51205C2.52564 7.47242 2.0461 8.55759 1.79093 9.70482C1.78612 9.72762 1.78174 9.75129 1.77693 9.77453C1.75724 9.86704 1.68593 10.3314 1.67324 10.4322V10.4554C1.58028 10.9352 1.52238 11.4211 1.5 11.9093V11.9633C1.5 17.7823 6.20735 22.5 12.0137 22.5C17.2141 22.5 21.5316 18.7162 22.3773 13.746C22.3948 13.6114 22.4092 13.4755 22.4249 13.3395C22.6341 11.5323 22.4018 9.63291 21.7429 8.04486ZM9.62455 16.2929C9.67355 16.3161 9.71992 16.342 9.77023 16.3648L9.77723 16.3692C9.72692 16.3446 9.6753 16.3192 9.62455 16.2929Z"
            fill="url(#paint0_linear_2436_7482)"
        />

        <path
            d="M21.7429 8.04486C21.2862 6.94305 20.3605 5.75354 19.6338 5.37779C20.2253 6.54011 20.5674 7.70594 20.6982 8.57582L20.6982 8.59731C21.6904 11.2929 21.1496 14.034 20.3709 15.7089C19.1661 18.3001 16.2494 20.9562 11.6833 20.8269C6.75418 20.6866 2.40863 17.0163 1.59709 12.2132C1.44922 11.4551 1.59709 11.0706 1.67146 10.4554C1.5809 10.9294 1.54634 11.0666 1.50128 11.9093V11.9633C1.50128 17.7823 6.20863 22.5 12.0149 22.5C17.2153 22.5 21.5329 18.7162 22.3785 13.746C22.396 13.6114 22.4105 13.4755 22.4262 13.3395C22.634 11.5323 22.4018 9.63291 21.7429 8.04486Z"
            fill="url(#paint1_radial_2436_7482)"
        />

        <path
            d="M21.7429 8.04486C21.2862 6.94305 20.3605 5.75354 19.6338 5.37779C20.2253 6.54011 20.5674 7.70594 20.6982 8.57582L20.6982 8.59731C21.6904 11.2929 21.1496 14.034 20.3709 15.7089C19.1661 18.3001 16.2494 20.9562 11.6833 20.8269C6.75418 20.6866 2.40863 17.0163 1.59709 12.2132C1.44922 11.4551 1.59709 11.0706 1.67146 10.4554C1.5809 10.9294 1.54634 11.0666 1.50128 11.9093V11.9633C1.50128 17.7823 6.20863 22.5 12.0149 22.5C17.2153 22.5 21.5329 18.7162 22.3785 13.746C22.396 13.6114 22.4105 13.4755 22.4262 13.3395C22.634 11.5323 22.4018 9.63291 21.7429 8.04486Z"
            fill="url(#paint2_radial_2436_7482)"
        />

        <path
            d="M16.6336 9.28306C16.6567 9.29929 16.6773 9.31551 16.6992 9.33173C16.4353 8.86218 16.1066 8.43235 15.7227 8.05498C12.4547 4.77978 14.8665 0.952998 15.2729 0.758328L15.2773 0.752629C12.6362 2.30297 11.7402 5.17085 11.658 6.60588C11.7805 6.59755 11.9021 6.58706 12.0268 6.58706C13.9977 6.58706 15.7144 7.67353 16.6336 9.28306Z"
            fill="url(#paint3_radial_2436_7482)"
        />

        <path
            d="M12.0334 9.93724C12.0163 10.2003 11.0924 11.1035 10.769 11.1035C7.77927 11.1035 7.2941 12.916 7.2941 12.916C7.42534 14.4427 8.48621 15.6997 9.77023 16.3648C9.82885 16.3951 9.88839 16.4223 9.9457 16.4495C10.0485 16.4933 10.1518 16.5372 10.2546 16.5762C10.6949 16.7318 11.156 16.8205 11.6226 16.8393C16.8628 17.0857 17.8786 10.5598 14.0966 8.66487C15.0647 8.49607 16.0701 8.88673 16.6314 9.28177C15.7126 7.67223 13.9955 6.58576 12.0246 6.58576C11.9 6.58576 11.7779 6.59629 11.6554 6.60462C10.6008 6.67784 9.59257 7.0677 8.76226 7.72348C8.92282 7.85984 9.10398 8.0414 9.48503 8.41759C10.1999 9.12436 12.0294 9.85175 12.0334 9.93724Z"
            fill="url(#paint4_radial_2436_7482)"
        />

        <path
            d="M12.0334 9.93724C12.0163 10.2003 11.0924 11.1035 10.769 11.1035C7.77927 11.1035 7.2941 12.916 7.2941 12.916C7.42534 14.4427 8.48621 15.6997 9.77023 16.3648C9.82885 16.3951 9.88839 16.4223 9.9457 16.4495C10.0485 16.4933 10.1518 16.5372 10.2546 16.5762C10.6949 16.7318 11.156 16.8205 11.6226 16.8393C16.8628 17.0857 17.8786 10.5598 14.0966 8.66487C15.0647 8.49607 16.0701 8.88673 16.6314 9.28177C15.7126 7.67223 13.9955 6.58576 12.0246 6.58576C11.9 6.58576 11.7779 6.59629 11.6554 6.60462C10.6008 6.67784 9.59257 7.0677 8.76226 7.72348C8.92282 7.85984 9.10398 8.0414 9.48503 8.41759C10.1999 9.12436 12.0294 9.85175 12.0334 9.93724Z"
            fill="url(#paint5_radial_2436_7482)"
        />

        <path
            d="M8.27358 7.3732C8.35889 7.42844 8.42889 7.47492 8.49233 7.51745C8.25279 6.67707 8.24267 5.78766 8.46302 4.94202C7.38286 5.43527 6.54289 6.21351 5.93216 6.90231C5.9816 6.901 7.50667 6.87337 8.27358 7.3732Z"
            fill="url(#paint6_radial_2436_7482)"
        />

        <path
            d="M1.59709 12.2132C2.40863 17.0163 6.75445 20.6866 11.6871 20.8269C16.2531 20.9562 19.1681 18.3001 20.3747 15.7089C21.1534 14.0336 21.6942 11.2929 20.7019 8.59731V8.57714C20.7019 8.57977 20.7019 8.58328 20.7041 8.59468C21.0769 11.0355 19.8383 13.4 17.902 14.9991C17.9 15.0035 17.8981 15.0081 17.8963 15.0126C14.123 18.0919 10.5125 16.8703 9.78141 16.3718C9.73067 16.3473 9.67948 16.3218 9.62873 16.2955C7.42862 15.2433 6.51996 13.233 6.71464 11.5103C4.85751 11.5103 4.22403 9.93983 4.22403 9.93983C4.22403 9.93983 5.89173 8.74813 8.08966 9.78462C10.1253 10.7448 12.0371 9.94027 12.0371 9.93983C12.0332 9.85433 10.2036 9.12476 9.49005 8.42018C9.109 8.04399 8.92788 7.86247 8.76732 7.72612C8.68045 7.65249 8.5896 7.5837 8.49521 7.52005C8.43265 7.4762 8.36396 7.43236 8.27646 7.3758C7.50955 6.87597 5.98448 6.90359 5.93416 6.90491H5.92935C5.51243 6.3757 5.54174 4.63025 5.56536 4.2659C5.56055 4.2431 5.25475 4.42506 5.21538 4.45268C4.84748 4.71571 4.50358 5.01092 4.18772 5.33483C3.82828 5.70005 3.4999 6.0947 3.206 6.51469C2.52982 7.47506 2.05029 8.56022 1.79511 9.70745C1.7868 9.72762 1.41247 11.3643 1.59709 12.2132Z"
            fill="url(#paint7_radial_2436_7482)"
        />

        <path
            d="M15.7227 8.05498C16.1066 8.43235 16.4353 8.86218 16.6992 9.33173C16.7539 9.37289 16.8064 9.41676 16.8566 9.46323C19.24 11.6625 17.9932 14.7759 17.8983 14.9995C19.8346 13.4005 21.0731 11.0359 20.7004 8.59511C19.5117 5.62332 17.4958 4.42549 15.8495 1.81805C15.766 1.68652 15.6829 1.55498 15.6015 1.41424C15.5555 1.33488 15.5184 1.26298 15.486 1.19502C15.4178 1.06318 15.3651 0.923844 15.3289 0.779812C15.3292 0.772973 15.327 0.76627 15.3226 0.761005C15.3182 0.755739 15.3121 0.752285 15.3053 0.751313C15.2989 0.749562 15.2921 0.749562 15.2856 0.751313C15.2839 0.752107 15.2823 0.75314 15.2808 0.754382C15.2782 0.754382 15.2756 0.757452 15.2729 0.758328C14.8665 0.952998 12.4547 4.77978 15.7227 8.05498Z"
            fill="url(#paint8_radial_2436_7482)"
        />

        <path
            d="M16.8558 9.46106C16.8055 9.41459 16.7529 9.37069 16.6983 9.32953C16.6768 9.31331 16.6545 9.29709 16.6326 9.28086C16.0713 8.88626 15.066 8.49517 14.0978 8.66397C17.8795 10.5589 16.8641 17.0848 11.6239 16.8384C11.1573 16.8196 10.6962 16.7309 10.2559 16.5753C10.153 16.5367 10.0498 16.4942 9.94699 16.4486C9.88749 16.4214 9.82843 16.3942 9.772 16.364L9.779 16.3683C10.51 16.8682 14.1206 18.0897 17.8939 15.0092C17.8939 15.0092 17.8961 15.0035 17.8996 14.9956C17.9932 14.7759 19.2401 11.6625 16.8558 9.46106Z"
            fill="url(#paint9_radial_2436_7482)"
        />

        <path
            d="M7.2941 12.916C7.2941 12.916 7.77927 11.1035 10.769 11.1035C11.0924 11.1035 12.0163 10.2003 12.0334 9.93724C12.0504 9.67505 10.1215 10.7422 8.08586 9.78202C5.88793 8.74553 4.22024 9.93723 4.22024 9.93723C4.22024 9.93723 4.85372 11.5077 6.71084 11.5077C6.51616 13.2304 7.42443 15.2389 9.62455 16.2929C9.67355 16.3161 9.71992 16.342 9.77023 16.3648C8.48621 15.701 7.42666 14.4427 7.2941 12.916Z"
            fill="url(#paint10_radial_2436_7482)"
        />

        <path
            d="M21.7429 8.04486C21.2862 6.94305 20.3605 5.75354 19.6338 5.37779C20.2253 6.54011 20.5674 7.70594 20.6982 8.57582C20.6982 8.57582 20.6982 8.58196 20.7004 8.59336C19.5117 5.62332 17.4958 4.42549 15.8495 1.81805C15.766 1.68652 15.6829 1.55498 15.6015 1.41424C15.5555 1.33488 15.5184 1.26298 15.486 1.19502C15.4178 1.06318 15.3651 0.923844 15.3289 0.779812C15.3292 0.772973 15.327 0.76627 15.3226 0.761005C15.3182 0.755739 15.3121 0.752285 15.3053 0.751313C15.2989 0.749562 15.2921 0.749562 15.2856 0.751313C15.2839 0.752107 15.2823 0.75314 15.2808 0.754382C15.2782 0.754382 15.2756 0.757452 15.2729 0.758328L15.2773 0.752629C12.6362 2.30297 11.7402 5.17085 11.658 6.60588C11.7805 6.59755 11.9021 6.58706 12.0268 6.58706C13.9977 6.58706 15.7144 7.67353 16.6336 9.28306C16.0723 8.88846 15.0673 8.49734 14.0992 8.66614C17.8808 10.5611 16.8654 17.0869 11.6252 16.8405C11.1586 16.8218 10.6975 16.7331 10.2572 16.5775C10.1543 16.5389 10.0511 16.4963 9.94829 16.4507C9.88879 16.4236 9.82973 16.3964 9.77329 16.3661L9.78029 16.3705C9.72955 16.346 9.67836 16.3205 9.62761 16.2942C9.67661 16.3175 9.72298 16.3433 9.77329 16.3661C8.48665 15.701 7.42666 14.4427 7.2941 12.916C7.2941 12.916 7.77927 11.1035 10.769 11.1035C11.0924 11.1035 12.0163 10.2003 12.0334 9.93724C12.0294 9.85175 10.1998 9.12212 9.4863 8.41754C9.10525 8.04135 8.92413 7.85984 8.76358 7.72348C8.6767 7.64986 8.58672 7.5811 8.49233 7.51745C8.25279 6.67707 8.24267 5.78766 8.46302 4.94202C7.38286 5.43527 6.54289 6.21351 5.93216 6.90231L5.92648 6.90227C5.50956 6.37307 5.53887 4.62761 5.56249 4.26327C5.55768 4.24047 5.25188 4.42242 5.2125 4.45004C4.84461 4.71307 4.50071 5.00828 4.18485 5.3322C3.82541 5.69741 3.49703 6.09207 3.20313 6.51205C2.52695 7.47242 2.04742 8.55759 1.79224 9.70482C1.78743 9.72762 1.78305 9.75129 1.77824 9.77453C1.75855 9.86704 1.66931 10.3379 1.65706 10.4388C1.65706 10.4313 1.65706 10.4467 1.65706 10.4388C1.57514 10.9253 1.52269 11.4164 1.5 11.9093V11.9633C1.5 17.7823 6.20735 22.5 12.0137 22.5C17.2141 22.5 21.5316 18.7162 22.3773 13.746C22.3948 13.6114 22.4092 13.4755 22.4249 13.3395C22.6341 11.5323 22.4018 9.63291 21.7429 8.04486Z"
            fill="url(#paint11_linear_2436_7482)"
        />

        <defs>
            <linearGradient
                id="paint0_linear_2436_7482"
                gradientunits="userSpaceOnUse"
                x1="20.3518"
                x2="2.86092"
                y1="4.11946"
                y2="20.9583"
            >
                <stop
                    offset="0.05"
                    stop-color="#FFF44F"
                />

                <stop
                    offset="0.11"
                    stop-color="#FFE847"
                />

                <stop
                    offset="0.22"
                    stop-color="#FFC830"
                />

                <stop
                    offset="0.37"
                    stop-color="#FF980E"
                />

                <stop
                    offset="0.4"
                    stop-color="#FF8B16"
                />

                <stop
                    offset="0.46"
                    stop-color="#FF672A"
                />

                <stop
                    offset="0.53"
                    stop-color="#FF3647"
                />

                <stop
                    offset="0.7"
                    stop-color="#E31587"
                />
            </linearGradient>

            <radialGradient
                id="paint1_radial_2436_7482"
                cx="0"
                cy="0"
                gradienttransform="translate(19.5443 -2.06204) scale(21.9198 27.9037)"
                gradientunits="userSpaceOnUse"
                r="1"
            >
                <stop
                    offset="0.13"
                    stop-color="#FFBD4F"
                />

                <stop
                    offset="0.19"
                    stop-color="#FFAC31"
                />

                <stop
                    offset="0.25"
                    stop-color="#FF9D17"
                />

                <stop
                    offset="0.28"
                    stop-color="#FF980E"
                />

                <stop
                    offset="0.4"
                    stop-color="#FF563B"
                />

                <stop
                    offset="0.47"
                    stop-color="#FF3750"
                />

                <stop
                    offset="0.71"
                    stop-color="#F5156C"
                />

                <stop
                    offset="0.78"
                    stop-color="#EB0878"
                />

                <stop
                    offset="0.86"
                    stop-color="#E50080"
                />
            </radialGradient>

            <radialGradient
                id="paint2_radial_2436_7482"
                cx="0"
                cy="0"
                gradienttransform="translate(11.5348 9.3454) scale(21.9198 27.9037)"
                gradientunits="userSpaceOnUse"
                r="1"
            >
                <stop
                    offset="0.3"
                    stop-color="#960E18"
                />

                <stop
                    offset="0.35"
                    stop-color="#B11927"
                    stop-opacity="0.74"
                />

                <stop
                    offset="0.43"
                    stop-color="#DB293D"
                    stop-opacity="0.34"
                />

                <stop
                    offset="0.5"
                    stop-color="#F5334B"
                    stop-opacity="0.09"
                />

                <stop
                    offset="0.53"
                    stop-color="#FF3750"
                    stop-opacity="0"
                />
            </radialGradient>

            <radialGradient
                id="paint3_radial_2436_7482"
                cx="0"
                cy="0"
                gradienttransform="translate(12 -5.77488) scale(66.1416 40.3454)"
                gradientunits="userSpaceOnUse"
                r="1"
            >
                <stop
                    offset="0.13"
                    stop-color="#FFF44F"
                />

                <stop
                    offset="0.25"
                    stop-color="#FFDC3E"
                />

                <stop
                    offset="0.51"
                    stop-color="#FF9D12"
                />

                <stop
                    offset="0.53"
                    stop-color="#FF980E"
                />
            </radialGradient>

            <radialGradient
                id="paint4_radial_2436_7482"
                cx="0"
                cy="0"
                gradienttransform="translate(5.58724 24.6967) scale(23.4716 22.1715)"
                gradientunits="userSpaceOnUse"
                r="1"
            >
                <stop
                    offset="0.35"
                    stop-color="#3A8EE6"
                />

                <stop
                    offset="0.47"
                    stop-color="#5C79F0"
                />

                <stop
                    offset="0.67"
                    stop-color="#9059FF"
                />

                <stop
                    offset="1"
                    stop-color="#C139E6"
                />
            </radialGradient>

            <radialGradient
                id="paint5_radial_2436_7482"
                cx="0"
                cy="0"
                gradienttransform="translate(11.7472 6.99915) rotate(-13.1549) scale(12.3967 13.8425)"
                gradientunits="userSpaceOnUse"
                r="1"
            >
                <stop
                    offset="0.21"
                    stop-color="#9059FF"
                    stop-opacity="0"
                />

                <stop
                    offset="0.28"
                    stop-color="#8C4FF3"
                    stop-opacity="0.06"
                />

                <stop
                    offset="0.75"
                    stop-color="#7716A8"
                    stop-opacity="0.45"
                />

                <stop
                    offset="0.97"
                    stop-color="#6E008B"
                    stop-opacity="0.6"
                />
            </radialGradient>

            <radialGradient
                id="paint6_radial_2436_7482"
                cx="0"
                cy="0"
                gradienttransform="translate(45.1902 -21.8553) scale(61.5861 63.5467)"
                gradientunits="userSpaceOnUse"
                r="1"
            >
                <stop stop-color="#FFE226" />

                <stop
                    offset="0.12"
                    stop-color="#FFDB27"
                />

                <stop
                    offset="0.3"
                    stop-color="#FFC82A"
                />

                <stop
                    offset="0.5"
                    stop-color="#FFA930"
                />

                <stop
                    offset="0.73"
                    stop-color="#FF7E37"
                />

                <stop
                    offset="0.79"
                    stop-color="#FF7139"
                />
            </radialGradient>

            <radialGradient
                id="paint7_radial_2436_7482"
                cx="0"
                cy="0"
                gradienttransform="translate(18.1497 -8.13923) scale(34.1575 42.1458)"
                gradientunits="userSpaceOnUse"
                r="1"
            >
                <stop
                    offset="0.11"
                    stop-color="#FFF44F"
                />

                <stop
                    offset="0.46"
                    stop-color="#FF980E"
                />

                <stop
                    offset="0.62"
                    stop-color="#FF5634"
                />

                <stop
                    offset="0.72"
                    stop-color="#FF3647"
                />

                <stop
                    offset="0.9"
                    stop-color="#E31587"
                />
            </radialGradient>

            <radialGradient
                id="paint8_radial_2436_7482"
                cx="0"
                cy="0"
                gradienttransform="translate(1.59072 1.13206) rotate(78.3605) scale(36.2827 47.1095)"
                gradientunits="userSpaceOnUse"
                r="1"
            >
                <stop stop-color="#FFF44F" />

                <stop
                    offset="0.06"
                    stop-color="#FFE847"
                />

                <stop
                    offset="0.17"
                    stop-color="#FFC830"
                />

                <stop
                    offset="0.3"
                    stop-color="#FF980E"
                />

                <stop
                    offset="0.36"
                    stop-color="#FF8B16"
                />

                <stop
                    offset="0.45"
                    stop-color="#FF672A"
                />

                <stop
                    offset="0.57"
                    stop-color="#FF3647"
                />

                <stop
                    offset="0.74"
                    stop-color="#E31587"
                />
            </radialGradient>

            <radialGradient
                id="paint9_radial_2436_7482"
                cx="0"
                cy="0"
                gradienttransform="translate(4.72225 -8.4888) scale(49.1968 51.8442)"
                gradientunits="userSpaceOnUse"
                r="1"
            >
                <stop
                    offset="0.14"
                    stop-color="#FFF44F"
                />

                <stop
                    offset="0.48"
                    stop-color="#FF980E"
                />

                <stop
                    offset="0.59"
                    stop-color="#FF5634"
                />

                <stop
                    offset="0.66"
                    stop-color="#FF3647"
                />

                <stop
                    offset="0.9"
                    stop-color="#E31587"
                />
            </radialGradient>

            <radialGradient
                id="paint10_radial_2436_7482"
                cx="0"
                cy="0"
                gradienttransform="translate(34.1313 -8.97598) scale(58.8307 68.0968)"
                gradientunits="userSpaceOnUse"
                r="1"
            >
                <stop
                    offset="0.09"
                    stop-color="#FFF44F"
                />

                <stop
                    offset="0.23"
                    stop-color="#FFE141"
                />

                <stop
                    offset="0.51"
                    stop-color="#FFAF1E"
                />

                <stop
                    offset="0.63"
                    stop-color="#FF980E"
                />
            </radialGradient>

            <linearGradient
                id="paint11_linear_2436_7482"
                gradientunits="userSpaceOnUse"
                x1="20.1413"
                x2="5.25782"
                y1="4.02914"
                y2="18.8804"
            >
                <stop
                    offset="0.17"
                    stop-color="#FFF44F"
                    stop-opacity="0.8"
                />

                <stop
                    offset="0.27"
                    stop-color="#FFF44F"
                    stop-opacity="0.63"
                />

                <stop
                    offset="0.49"
                    stop-color="#FFF44F"
                    stop-opacity="0.22"
                />

                <stop
                    offset="0.6"
                    stop-color="#FFF44F"
                    stop-opacity="0"
                />
            </linearGradient>
        </defs>
    </svg>

