


    <svg
        fill="none"
        height="24"
        viewBox="0 0 24 24"
        width="24"
        xmlns="http://www.w3.org/2000/svg"
        v-bind="$props"
    >
        <path
            clip-rule="evenodd"
            d="M11.8901 6.30173C12.7442 5.34096 14.3407 5.93412 14.3407 7.23V10.53H15.3307C16.5317 10.53 17.1832 11.9479 16.3835 12.8558L12.1237 17.6955L12.1213 17.6983C11.2672 18.659 9.6707 18.0659 9.6707 16.77V13.47H10.4207V12.72H9.6707V13.47H8.6807C7.47985 13.47 6.82828 12.0523 7.62771 11.1445L11.8901 6.30173ZM12.8407 7.49206L8.89938 11.97H10.4207C10.8349 11.97 11.1707 12.3058 11.1707 12.72V16.5079L15.112 12.03H13.5907C13.1765 12.03 12.8407 11.6942 12.8407 11.28V7.49206Z"
            fill="currentColor"
            fill-rule="evenodd"
        />

        <path
            clip-rule="evenodd"
            d="M11.9707 2.75C6.86207 2.75 2.7207 6.89137 2.7207 12C2.7207 17.1086 6.86207 21.25 11.9707 21.25C17.0793 21.25 21.2207 17.1086 21.2207 12C21.2207 6.89137 17.0793 2.75 11.9707 2.75ZM1.2207 12C1.2207 6.06294 6.03364 1.25 11.9707 1.25C17.9078 1.25 22.7207 6.06294 22.7207 12C22.7207 17.9371 17.9078 22.75 11.9707 22.75C6.03364 22.75 1.2207 17.9371 1.2207 12Z"
            fill="currentColor"
            fill-rule="evenodd"
        />
    </svg>

