


    <svg
        fill="none"
        height="24"
        viewBox="0 0 24 24"
        width="24"
        xmlns="http://www.w3.org/2000/svg"
        v-bind="$props"
    >
        <path
            d="M9 10.7514C7.48 10.7514 6.25 9.5214 6.25 8.0014C6.25 6.4814 7.48 5.2514 9 5.2514C10.52 5.2514 11.75 6.4814 11.75 8.0014C11.75 9.5214 10.52 10.7514 9 10.7514ZM9 6.7514C8.31 6.7514 7.75 7.3114 7.75 8.0014C7.75 8.6914 8.31 9.2514 9 9.2514C9.69 9.2514 10.25 8.6914 10.25 8.0014C10.25 7.3114 9.69 6.7514 9 6.7514Z"
            fill="currentColor"
        />

        <path
            d="M15 22.7514H9C3.57 22.7514 1.25 20.4314 1.25 15.0014V9.0014C1.25 3.5714 3.57 1.2514 9 1.2514H13C13.41 1.2514 13.75 1.5914 13.75 2.0014C13.75 2.4114 13.41 2.7514 13 2.7514H9C4.39 2.7514 2.75 4.3914 2.75 9.0014V15.0014C2.75 19.6114 4.39 21.2514 9 21.2514H15C19.61 21.2514 21.25 19.6114 21.25 15.0014V10.0014C21.25 9.5914 21.59 9.2514 22 9.2514C22.41 9.2514 22.75 9.5914 22.75 10.0014V15.0014C22.75 20.4314 20.43 22.7514 15 22.7514Z"
            fill="currentColor"
        />

        <path
            d="M15.67 9.7514C15.28 9.7514 14.92 9.6114 14.66 9.3414C14.35 9.0314 14.2 8.5714 14.27 8.1014L14.47 6.7114C14.52 6.3614 14.73 5.9314 14.99 5.6814L18.62 2.0514C20.07 0.601404 21.33 1.4314 21.95 2.0514C22.54 2.6414 22.81 3.2614 22.75 3.9014C22.7 4.4114 22.44 4.9014 21.95 5.3814L18.32 9.0114C18.07 9.2614 17.64 9.4714 17.29 9.5314L15.9 9.7314C15.82 9.7514 15.74 9.7514 15.67 9.7514ZM19.67 3.1214L16.04 6.7514C16.01 6.7814 15.96 6.8914 15.95 6.9414L15.76 8.2414L17.07 8.0614C17.11 8.0514 17.22 8.0014 17.26 7.9614L20.89 4.3314C21.11 4.1114 21.24 3.9114 21.25 3.7614C21.27 3.5514 21.06 3.2914 20.89 3.1214C20.37 2.6014 20.13 2.6614 19.67 3.1214Z"
            fill="currentColor"
        />

        <path
            d="M20.9 6.1314C20.83 6.1314 20.76 6.1214 20.7 6.1014C19.36 5.7214 18.29 4.6514 17.91 3.3114C17.8 2.9114 18.03 2.5014 18.43 2.3914C18.83 2.2814 19.24 2.5114 19.35 2.9114C19.59 3.7514 20.26 4.4314 21.11 4.6714C21.51 4.7814 21.74 5.2014 21.63 5.5914C21.52 5.9114 21.22 6.1314 20.9 6.1314Z"
            fill="currentColor"
        />

        <path
            d="M2.67 19.7014C2.43 19.7014 2.19 19.5814 2.05 19.3714C1.82 19.0314 1.91 18.5614 2.25 18.3314L7.18 15.0214C8.26 14.3014 9.75 14.3814 10.73 15.2114L11.06 15.5014C11.56 15.9314 12.41 15.9314 12.9 15.5014L17.06 11.9314C18.12 11.0214 19.79 11.0214 20.86 11.9314L22.49 13.3314C22.8 13.6014 22.84 14.0714 22.57 14.3914C22.3 14.7014 21.83 14.7414 21.51 14.4714L19.88 13.0714C19.38 12.6414 18.53 12.6414 18.04 13.0714L13.88 16.6414C12.82 17.5514 11.15 17.5514 10.08 16.6414L9.75 16.3514C9.29 15.9614 8.53 15.9214 8.02 16.2714L3.1 19.5814C2.96 19.6614 2.81 19.7014 2.67 19.7014Z"
            fill="currentColor"
        />
    </svg>

