


    <svg
        fill="none"
        height="24"
        viewBox="0 0 24 24"
        width="24"
        xmlns="http://www.w3.org/2000/svg"
        v-bind="$props"
    >
        <path
            clip-rule="evenodd"
            d="M8.43913 2.75C7.5454 2.75 6.81913 3.48215 6.81913 4.37C6.81913 4.81802 6.99766 5.22467 7.29333 5.51361L7.29949 5.51964C7.59044 5.81059 8.0003 5.99 8.44913 5.99H8.74913C9.00256 5.99 9.23885 6.11799 9.37731 6.33026C9.51576 6.54252 9.53766 6.81036 9.43551 7.04229L5.18551 16.6923C4.5425 18.1485 4.51362 19.2737 4.908 19.9871C5.27957 20.6593 6.19363 21.25 8.15913 21.25H15.8291C17.7724 21.25 18.6907 20.6628 19.0686 19.9884C19.468 19.2755 19.4488 18.1535 18.8122 16.7011L14.5918 7.04024C14.4906 6.80837 14.513 6.54105 14.6516 6.32932C14.7901 6.11759 15.0261 5.99 15.2791 5.99H15.4391C16.2522 5.99 16.9542 5.47098 17.1308 4.77104C17.2744 4.17145 17.0848 3.61634 16.6988 3.23033C16.4008 2.93235 15.9983 2.75 15.5491 2.75H8.43913ZM5.31913 4.37C5.31913 2.65785 6.71286 1.25 8.43913 1.25H15.5491C16.4199 1.25 17.1974 1.60765 17.7595 2.16967C18.4928 2.90302 18.8632 3.98671 18.5882 5.12598L18.5868 5.13191C18.3037 6.264 17.4107 7.05929 16.3678 7.35861L20.186 16.0989C20.8993 17.7263 21.1151 19.4046 20.3772 20.7216C19.6176 22.0772 18.0259 22.75 15.8291 22.75H8.15913C5.94462 22.75 4.34868 22.0757 3.59525 20.7129C2.86464 19.3913 3.09605 17.7108 3.81304 16.087L7.64503 7.38617C7.10972 7.24517 6.62568 6.96614 6.24183 6.58336C5.65938 6.01253 5.31913 5.22048 5.31913 4.37Z"
            fill="currentColor"
            fill-rule="evenodd"
        />
        <path
            clip-rule="evenodd"
            d="M17.413 12.486C17.7574 12.2563 18.2229 12.3491 18.4528 12.6935C18.6829 13.0379 18.5901 13.5037 18.2457 13.7337L17.8291 13.11C18.2457 13.7337 18.2457 13.7337 18.2457 13.7337L18.2433 13.7352L18.24 13.7375L18.2301 13.7439L18.1981 13.7645C18.1713 13.7815 18.1338 13.8047 18.0863 13.8331C17.9913 13.8899 17.8557 13.9673 17.6848 14.0558C17.3438 14.2322 16.8574 14.455 16.2684 14.6441C15.0981 15.0198 13.4665 15.2797 11.762 14.7115C10.3376 14.2367 8.88631 14.0244 7.78184 13.9324C7.23188 13.8866 6.77334 13.871 6.4543 13.8668C6.29489 13.8647 6.17064 13.8655 6.08759 13.8667C6.04608 13.8673 6.01489 13.8681 5.99479 13.8686L5.97304 13.8693L5.96859 13.8694C5.96859 13.8694 5.96852 13.8694 5.93913 13.12C5.90974 12.3706 5.91004 12.3706 5.91004 12.3706L5.91137 12.3705L5.91412 12.3704L5.92295 12.3701L5.95366 12.3692C5.97985 12.3685 6.01733 12.3676 6.06535 12.3669C6.16136 12.3655 6.29961 12.3647 6.47396 12.3669C6.82241 12.3715 7.31637 12.3884 7.90641 12.4376C9.08195 12.5356 10.6606 12.7633 12.2363 13.2885C13.5317 13.7203 14.8151 13.5352 15.8099 13.2159C16.3034 13.0575 16.7119 12.8703 16.9954 12.7236C17.1366 12.6505 17.2456 12.5881 17.317 12.5454C17.3527 12.5241 17.379 12.5077 17.3952 12.4975L17.4117 12.4868L17.413 12.486ZM5.1897 13.1494C5.17347 12.7355 5.49614 12.3868 5.91004 12.3706L5.93913 13.12M5.1897 13.1494C5.20593 13.5632 5.5548 13.8855 5.96859 13.8694L5.1897 13.1494Z"
            fill="currentColor"
            fill-rule="evenodd"
        />
    </svg>



