


    <svg
        fill="none"
        height="24"
        viewBox="0 0 24 24"
        width="24"
        xmlns="http://www.w3.org/2000/svg"
        v-bind="$props"
    >
        <path
            d="M15.8406 22H8.16059C3.97059 22 3.14059 19.47 4.50059 16.39L5.94059 13.12C5.94059 13.12 9.00059 13 12.0006 14C15.0006 15 17.8306 13.11 17.8306 13.11L18.0206 12.99L19.5106 16.4C20.8506 19.48 19.9706 22 15.8406 22Z"
            fill="currentColor"
        />
        <path
            d="M15.4406 6.74H15.2806L17.4106 11.6L17.0006 11.86C16.9806 11.87 14.7206 13.32 12.4706 12.58C10.1206 11.79 7.76059 11.65 6.60059 11.63L8.74059 6.74H8.44059C7.79059 6.74 7.19059 6.48 6.76059 6.05C6.33059 5.62 6.07059 5.02 6.07059 4.37C6.07059 3.07 7.13059 2 8.44059 2H15.5506C16.2106 2 16.8006 2.27 17.2306 2.7C17.7906 3.26 18.0806 4.08 17.8606 4.95C17.6006 6.03 16.5606 6.74 15.4406 6.74Z"
            fill="currentColor"
        />
    </svg>



