


    <svg
        fill="none"
        height="24"
        viewBox="0 0 24 24"
        width="24"
        xmlns="http://www.w3.org/2000/svg"
        v-bind="$props"
    >
        <path
            clip-rule="evenodd"
            d="M21.6 12.229C21.6 11.52 21.5364 10.8381 21.4182 10.1836H12V14.0518H17.3818C17.15 15.3018 16.4455 16.3609 15.3864 17.07V19.579H18.6182C20.5091 17.8381 21.6 15.2745 21.6 12.229Z"
            fill="#4285F4"
            fill-rule="evenodd"
        />

        <path
            clip-rule="evenodd"
            d="M11.9998 21.9984C14.6998 21.9984 16.9635 21.103 18.618 19.5757L15.3862 17.0666C14.4908 17.6666 13.3453 18.0212 11.9998 18.0212C9.3953 18.0212 7.19075 16.2621 6.40439 13.8984H3.06348V16.4893C4.70893 19.7575 8.09075 21.9984 11.9998 21.9984Z"
            fill="#34A853"
            fill-rule="evenodd"
        />

        <path
            clip-rule="evenodd"
            d="M6.40439 13.8984C6.20439 13.2984 6.09091 12.6578 6.09091 11.9987C6.09091 11.3396 6.20455 10.6987 6.40455 10.0987V7.50781H3.06364C2.38636 8.85781 2 10.3851 2 11.9987C2 13.6124 2.3862 15.1393 3.06348 16.4893L6.40439 13.8984Z"
            fill="#FBBC05"
            fill-rule="evenodd"
        />

        <path
            clip-rule="evenodd"
            d="M12 5.97727C13.4682 5.97727 14.7864 6.48182 15.8227 7.47273L18.6909 4.60455C16.9591 2.99091 14.6955 2 12 2C8.09091 2 4.70909 4.24091 3.06364 7.50909L6.40455 10.1C7.19091 7.73636 9.39546 5.97727 12 5.97727Z"
            fill="#EA4335"
            fill-rule="evenodd"
        />
    </svg>

