


    <svg
        fill="none"
        height="24"
        viewBox="0 0 24 24"
        width="24"
        xmlns="http://www.w3.org/2000/svg"
        v-bind="$props"
    >
        <path
            d="M20.7949 8.63438C20.7179 7.60368 19.9487 6.28228 19.1795 5.648C18.3144 4.99889 17.4157 4.39896 16.4871 3.85089C15.5656 3.28794 14.6156 2.77627 13.641 2.31806C13.1203 2.09918 12.5621 1.99129 11.9999 2.00093C11.4375 1.98875 10.8788 2.09673 10.3589 2.31806C9.38444 2.77659 8.43437 3.28826 7.5127 3.85089C6.02551 4.77588 4.82037 5.648 4.82037 5.648C4.34424 6.05871 3.95499 6.55814 3.66974 7.11512C3.45318 7.53799 3.79599 8 4.26274 8C4.78172 8 5.25021 7.69107 5.58416 7.28478C5.73006 7.10727 5.89159 6.94203 6.06747 6.79136C6.06747 6.79136 7.06253 6.07622 8.29047 5.31773C9.05147 4.85637 9.83593 4.43681 10.6405 4.06081C11.0698 3.87932 11.5311 3.79077 11.9955 3.80076C12.4597 3.79286 12.9206 3.88132 13.3504 4.06081C14.1552 4.43654 14.9396 4.85611 15.7005 5.31773C16.4671 5.76715 17.2092 6.25909 17.9235 6.79136C18.5586 7.31147 19.1938 8.39502 19.2573 9.24019C19.2573 9.24019 19.4055 10.4971 19.4267 11.9859C19.4254 12.9054 19.3759 13.8241 19.2785 14.7381C19.1307 15.6952 18.6494 16.5651 17.9235 17.187C17.9235 17.187 16.9284 17.9238 15.7005 18.6823C14.9395 19.1436 14.155 19.5632 13.3504 19.9392C12.9212 20.1207 12.4598 20.2092 11.9955 20.1992C11.5317 20.2092 11.0708 20.1229 10.6405 19.9457C9.8358 19.57 9.05133 19.1504 8.29047 18.6888C7.06253 17.9519 6.06747 17.1935 6.06747 17.1935C5.90652 17.0617 5.74556 16.8937 5.59356 16.7025C5.27149 16.2976 4.81624 16 4.30583 16H4.27309C3.80037 16 3.47104 16.4706 3.69817 16.8946C4.00642 17.47 4.41339 17.9979 4.82037 18.3335C4.82037 18.3335 6.02551 19.2585 7.5127 20.157C8.4342 20.72 9.38428 21.2316 10.3589 21.6898C10.88 21.906 11.4383 22.0112 11.9999 21.9991C12.5623 22.0112 13.1211 21.9033 13.641 21.6819C14.6154 21.2234 15.5655 20.7117 16.4871 20.1491C17.9743 19.2241 19.1795 18.3256 19.1795 18.3256C20.0586 17.5672 20.6416 16.5063 20.8205 15.3392C20.9385 14.2245 20.9984 13.1041 21 11.9828C20.9744 10.1672 20.7949 8.63438 20.7949 8.63438Z"
            fill="url(#paint0_linear_2670_10452)"
        />

        <path
            d="M3 9.79968C3 9.57877 3.17511 9.39968 3.39111 9.39968H9.45339C9.6694 9.39968 9.84451 9.57877 9.84451 9.79968V10.9997C9.84451 11.2206 9.6694 11.3997 9.45339 11.3997H3V9.79968Z"
            fill="#0066B3"
        />

        <path
            d="M3 12.6H15.3201C15.5361 12.6 15.7112 12.7791 15.7112 13V14.2C15.7112 14.421 15.5361 14.6 15.3201 14.6H3.39111C3.17511 14.6 3 14.421 3 14.2V12.6Z"
            fill="#EE2F53"
        />

        <defs>
            <linearGradient
                id="paint0_linear_2670_10452"
                gradientunits="userSpaceOnUse"
                x1="12"
                x2="12"
                y1="2"
                y2="22"
            >
                <stop stop-color="#0066B3" />

                <stop
                    offset="0.354167"
                    stop-color="#0066B3"
                />

                <stop
                    offset="0.6875"
                    stop-color="#EE2F53"
                />

                <stop
                    offset="1"
                    stop-color="#EE2F53"
                />
            </linearGradient>
        </defs>
    </svg>

