


    <svg
        fill="none"
        height="24"
        viewBox="0 0 24 24"
        width="24"
        xmlns="http://www.w3.org/2000/svg"
        v-bind="$props"
    >
        <path
            clip-rule="evenodd"
            d="M7.56 3.85156C4.90771 3.85156 2.75 6.01227 2.75 8.69156C2.75 11.9421 4.25068 14.5465 6.13923 16.4815C8.03683 18.4257 10.2799 19.6435 11.6223 20.1018L11.6296 20.1043L11.6296 20.1043C11.6944 20.1272 11.8286 20.1516 12 20.1516C12.1714 20.1516 12.3056 20.1272 12.3704 20.1043L12.3777 20.1017L12.3777 20.1018C13.7201 19.6435 15.9632 18.4257 17.8608 16.4815C19.7493 14.5465 21.25 11.9421 21.25 8.69156C21.25 6.01227 19.0923 3.85156 16.44 3.85156C14.8778 3.85156 13.477 4.61068 12.6021 5.78872C12.4606 5.97925 12.2373 6.09156 12 6.09156C11.7627 6.09156 11.5394 5.97925 11.3979 5.78872C10.5225 4.61006 9.13147 3.85156 7.56 3.85156ZM1.25 8.69156C1.25 5.19086 4.07229 2.35156 7.56 2.35156C9.29674 2.35156 10.8646 3.05755 12.0003 4.19628C13.1385 3.0572 14.7122 2.35156 16.44 2.35156C19.9277 2.35156 22.75 5.19086 22.75 8.69156C22.75 12.441 21.0107 15.4017 18.9342 17.5292C16.8683 19.6459 14.4235 20.9877 12.8657 21.5202C12.5914 21.6163 12.2773 21.6516 12 21.6516C11.7227 21.6516 11.4086 21.6163 11.1343 21.5202C9.57655 20.9877 7.13169 19.6459 5.06577 17.5292C2.98932 15.4017 1.25 12.441 1.25 8.69156Z"
            fill="currentColor"
            fill-rule="evenodd"
        />
    </svg>

