
  <svg
    fill="none"
    height="24"
    viewBox="0 0 24 24"
    width="24"
    xmlns="http://www.w3.org/2000/svg"
  >
    <path
      d="M8.98969 21.4983C7.32969 21.4983 5.65969 20.8683 4.38969 19.5983C1.85969 17.0583 1.85969 12.9383 4.38969 10.4083C4.67969 10.1183 5.15969 10.1183 5.44969 10.4083C5.73969 10.6983 5.73969 11.1783 5.44969 11.4683C3.49969 13.4183 3.49969 16.5883 5.44969 18.5383C7.39969 20.4883 10.5697 20.4883 12.5197 18.5383C13.4597 17.5983 13.9797 16.3383 13.9797 14.9983C13.9797 13.6683 13.4597 12.4083 12.5197 11.4583C12.2297 11.1683 12.2297 10.6883 12.5197 10.3983C12.8097 10.1083 13.2897 10.1083 13.5797 10.3983C14.8097 11.6283 15.4797 13.2583 15.4797 14.9983C15.4797 16.7383 14.7997 18.3683 13.5797 19.5983C12.3197 20.8683 10.6597 21.4983 8.98969 21.4983Z"
      fill="currentColor"
    />
    <path
      d="M19.0697 14.1583C18.8797 14.1583 18.6897 14.0883 18.5397 13.9383C18.2497 13.6483 18.2497 13.1683 18.5397 12.8783C20.5897 10.8283 20.5897 7.49828 18.5397 5.45828C16.4897 3.40828 13.1597 3.40828 11.1197 5.45828C10.1297 6.44828 9.57969 7.76828 9.57969 9.16828C9.57969 10.5683 10.1297 11.8883 11.1197 12.8783C11.4097 13.1683 11.4097 13.6483 11.1197 13.9383C10.8297 14.2283 10.3497 14.2283 10.0597 13.9383C8.78969 12.6683 8.07969 10.9683 8.07969 9.16828C8.07969 7.36828 8.77969 5.66828 10.0597 4.39828C12.6897 1.76828 16.9697 1.76828 19.6097 4.39828C22.2397 7.02828 22.2397 11.3183 19.6097 13.9483C19.4597 14.0883 19.2597 14.1583 19.0697 14.1583Z"
      fill="currentColor"
    />
  </svg>
