


    <svg
        fill="none"
        height="24"
        viewBox="0 0 24 24"
        width="24"
        xmlns="http://www.w3.org/2000/svg"
        v-bind="$props"
    >
        <path
            clip-rule="evenodd"
            d="M11.0751 4.25958C10.2847 4.90093 9.79259 5.93849 9.64723 7.62653C9.6117 8.03922 9.24834 8.34496 8.83565 8.30942C8.42297 8.27389 8.11723 7.91053 8.15277 7.49784C8.31741 5.58588 8.90535 4.08844 10.1299 3.09479C11.3338 2.11794 13.0163 1.74219 15.11 1.74219H15.24C17.5492 1.74219 19.3609 2.19998 20.5766 3.41561C21.7922 4.63124 22.25 6.44301 22.25 8.75219V15.2722C22.25 17.5814 21.7922 19.3931 20.5766 20.6088C19.3609 21.8244 17.5492 22.2822 15.24 22.2822H15.11C13.0315 22.2822 11.3592 21.9115 10.1577 20.9503C8.93462 19.9719 8.33891 18.4963 8.16324 16.6118C8.12479 16.1994 8.42796 15.8339 8.84039 15.7954C9.25281 15.757 9.61832 16.0602 9.65676 16.4726C9.81109 18.1281 10.3054 19.1475 11.0948 19.779C11.9058 20.4279 13.1685 20.7822 15.11 20.7822H15.24C17.4008 20.7822 18.7191 20.345 19.5159 19.5481C20.3128 18.7512 20.75 17.433 20.75 15.2722V8.75219C20.75 6.59136 20.3128 5.27314 19.5159 4.47627C18.7191 3.6794 17.4008 3.24219 15.24 3.24219H15.11C13.1537 3.24219 11.8862 3.60143 11.0751 4.25958Z"
            fill="currentColor"
            fill-rule="evenodd"
        />

        <path
            clip-rule="evenodd"
            d="M2.87 12.0022C2.87 11.588 3.20579 11.2522 3.62 11.2522H15C15.4142 11.2522 15.75 11.588 15.75 12.0022C15.75 12.4164 15.4142 12.7522 15 12.7522H3.62C3.20579 12.7522 2.87 12.4164 2.87 12.0022Z"
            fill="currentColor"
            fill-rule="evenodd"
        />

        <path
            clip-rule="evenodd"
            d="M6.38033 8.12186C6.67322 8.41475 6.67322 8.88962 6.38033 9.18252L3.56066 12.0022L6.38033 14.8219C6.67322 15.1148 6.67322 15.5896 6.38033 15.8825C6.08744 16.1754 5.61256 16.1754 5.31967 15.8825L1.96967 12.5325C1.67678 12.2396 1.67678 11.7648 1.96967 11.4719L5.31967 8.12186C5.61256 7.82896 6.08744 7.82896 6.38033 8.12186Z"
            fill="currentColor"
            fill-rule="evenodd"
        />
    </svg>

