


    <svg
        fill="none"
        height="24"
        viewBox="0 0 24 24"
        width="24"
        xmlns="http://www.w3.org/2000/svg"
        v-bind="$props"
    >
        <path
            d="M16.7995 2H14.1995C10.9995 2 8.99945 4 8.99945 7.2V11.25H15.2495C15.6595 11.25 15.9995 11.59 15.9995 12C15.9995 12.41 15.6595 12.75 15.2495 12.75H8.99945V16.8C8.99945 20 10.9995 22 14.1995 22H16.7895C19.9895 22 21.9895 20 21.9895 16.8V7.2C21.9995 4 19.9995 2 16.7995 2Z"
            fill="currentColor"
        />

        <path
            d="M4.55945 11.25L6.62945 9.18C6.77945 9.03 6.84945 8.84 6.84945 8.65C6.84945 8.46 6.77945 8.26 6.62945 8.12C6.33945 7.83 5.85945 7.83 5.56945 8.12L2.21945 11.47C1.92945 11.76 1.92945 12.24 2.21945 12.53L5.56945 15.88C5.85945 16.17 6.33945 16.17 6.62945 15.88C6.91945 15.59 6.91945 15.11 6.62945 14.82L4.55945 12.75H8.99945V11.25H4.55945Z"
            fill="currentColor"
        />
    </svg>

