<svg
            class="logo__descriptor"
            fill="none"
            height="10"
            viewBox="0 0 46 10"
            width="46"
            xmlns="http://www.w3.org/2000/svg"
        >
            <g clip-path="url(#clip0_2694_11065)">
                <path
                    d="M31.9579 10H30.9128L32.2702 6.22581H33.5647L34.922 10H33.877L32.9322 7.17673H32.9007L31.9579 10ZM32.4539 8.51465H33.3799L33.6118 9.20757H32.2225L32.4539 8.51465Z"
                    fill="currentColor"
                    fill-opacity="0.88"
                />
                <path
                    d="M26.6927 10V6.22581H27.6522V7.74064H29.2167V6.22581H30.1743V10H29.2167V8.48332H27.6522V10H26.6927Z"
                    fill="currentColor"
                    fill-opacity="0.88"
                />
                <path
                    d="M22.156 6.22581H23.1128V8.40039H23.1458L24.707 6.22581H25.5321V10H24.5733V7.82173H24.5481L22.9676 10H22.156V6.22581Z"
                    fill="currentColor"
                    fill-opacity="0.88"
                />
                <path
                    d="M21.4174 6.22581V6.96664H19.6449V10H18.6743V6.22581H21.4174Z"
                    fill="currentColor"
                    fill-opacity="0.88"
                />
                <path
                    d="M14.1662 7.55636H14.7028C15.0341 7.55636 15.3218 7.60611 15.566 7.70563C15.8102 7.80514 15.999 7.9452 16.1323 8.1258C16.2669 8.3064 16.3343 8.51895 16.3343 8.76344C16.3343 9.00792 16.2669 9.22292 16.1323 9.40844C15.999 9.59396 15.8102 9.73893 15.566 9.84336C15.3218 9.94779 15.0341 10 14.7028 10H13.1881V6.22581H14.1662V9.2776H14.7028C14.8453 9.2776 14.9654 9.25487 15.0631 9.20941C15.1621 9.16272 15.2367 9.10007 15.2869 9.02144C15.3383 8.94158 15.3634 8.85312 15.3621 8.75606C15.3634 8.61601 15.3073 8.49929 15.1938 8.40592C15.0803 8.31132 14.9166 8.26402 14.7028 8.26402H14.1662V7.55636ZM17.6193 6.22581V10H16.6412V6.22581H17.6193Z"
                    fill="currentColor"
                    fill-opacity="0.88"
                />
                <path
                    d="M12.344 7.60705H11.3625C11.3494 7.51496 11.3225 7.43185 11.282 7.35771C11.2414 7.28356 11.1877 7.22018 11.121 7.16756C11.0543 7.11494 10.9751 7.07488 10.8835 7.04738C10.7932 7.01867 10.693 7.00432 10.5831 7.00432C10.3881 7.00432 10.2199 7.04797 10.0786 7.13527C9.93854 7.22257 9.83057 7.34874 9.75466 7.51377C9.68006 7.6788 9.64276 7.87851 9.64276 8.1129C9.64276 8.35686 9.68071 8.56136 9.75662 8.72639C9.83384 8.89022 9.94181 9.014 10.0805 9.09771C10.2206 9.18023 10.3861 9.22148 10.5772 9.22148C10.6845 9.22148 10.782 9.20893 10.8697 9.18381C10.9587 9.1587 11.0366 9.12223 11.1033 9.07439C11.1714 9.02536 11.227 8.96616 11.2702 8.8968C11.3147 8.82625 11.3455 8.74672 11.3625 8.65822L12.344 8.6636C12.327 8.82624 12.2753 8.98649 12.1889 9.14435C12.1039 9.3022 11.9867 9.44631 11.8375 9.57666C11.6883 9.70581 11.5064 9.80866 11.2918 9.88519C11.0785 9.96173 10.8337 10 10.5576 10C10.1937 10 9.86787 9.92705 9.57994 9.78115C9.29332 9.63406 9.06691 9.42 8.90069 9.13897C8.73448 8.85794 8.65138 8.51591 8.65138 8.1129C8.65138 7.7087 8.73579 7.36608 8.90462 7.08504C9.07345 6.80401 9.30183 6.59055 9.58976 6.44465C9.87768 6.29876 10.2003 6.22581 10.5576 6.22581C10.801 6.22581 11.0261 6.2569 11.2329 6.31909C11.4397 6.38008 11.6216 6.46977 11.7787 6.58816C11.9357 6.70535 12.0633 6.84946 12.1615 7.02047C12.2596 7.19148 12.3205 7.387 12.344 7.60705Z"
                    fill="currentColor"
                    fill-opacity="0.88"
                />
                <path
                    d="M7.91284 8.1129C7.91284 8.51711 7.82632 8.85973 7.65327 9.14076C7.48021 9.42179 7.24592 9.63526 6.9504 9.78115C6.65621 9.92705 6.32608 10 5.96001 10C5.59261 10 5.26181 9.92645 4.96762 9.77936C4.67343 9.63227 4.43981 9.4188 4.26676 9.13897C4.09504 8.85794 4.00917 8.51591 4.00917 8.1129C4.00917 7.7087 4.09504 7.36608 4.26676 7.08504C4.43981 6.80401 4.67343 6.59055 4.96762 6.44465C5.26181 6.29876 5.59261 6.22581 5.96001 6.22581C6.32608 6.22581 6.65621 6.29876 6.9504 6.44465C7.24592 6.59055 7.48021 6.80401 7.65327 7.08504C7.82632 7.36608 7.91284 7.7087 7.91284 8.1129ZM6.90248 8.1129C6.90248 7.87373 6.86454 7.67162 6.78867 7.50659C6.71412 7.34156 6.6063 7.21659 6.46519 7.13168C6.32542 7.04678 6.15702 7.00432 5.96001 7.00432C5.76433 7.00432 5.59593 7.04678 5.45483 7.13168C5.31373 7.21659 5.20523 7.34156 5.12936 7.50659C5.05481 7.67162 5.01754 7.87373 5.01754 8.1129C5.01754 8.35208 5.05481 8.55418 5.12936 8.71921C5.20523 8.88425 5.31373 9.00921 5.45483 9.09412C5.59593 9.17903 5.76433 9.22148 5.96001 9.22148C6.15702 9.22148 6.32542 9.17903 6.46519 9.09412C6.6063 9.00921 6.71412 8.88425 6.78867 8.71921C6.86454 8.55418 6.90248 8.35208 6.90248 8.1129Z"
                    fill="currentColor"
                    fill-opacity="0.88"
                />
                <path
                    d="M2.47297 10L1.19992 8.43356H0.978516V10H0V6.22581H0.978516V7.69089H1.13468L2.38797 6.22581H3.61161L2.05192 8.00786L3.69266 10H2.47297Z"
                    fill="currentColor"
                    fill-opacity="0.88"
                />
                <path
                    d="M42.5183 0.740833V0H46V0.740833H44.7509V3.77419H43.7694V0.740833H42.5183Z"
                    fill="currentColor"
                    fill-opacity="0.88"
                />
                <path
                    d="M38.7202 3.77419V0H41.5688V0.740833H39.7076V1.51484H41.4232V2.25751H39.7076V3.03336H41.5688V3.77419H38.7202Z"
                    fill="currentColor"
                    fill-opacity="0.88"
                />
                <path
                    d="M34.3945 0.740833V0H37.7706V0.740833H36.5594V3.77419H35.6077V0.740833H34.3945Z"
                    fill="currentColor"
                    fill-opacity="0.88"
                />
                <path
                    d="M30.0688 0H31.0257V2.17458H31.0586L32.6198 0H33.445V3.77419H32.4862V1.59592H32.461L30.8804 3.77419H30.0688V0Z"
                    fill="currentColor"
                    fill-opacity="0.88"
                />
                <path
                    d="M29.1193 1.38124H28.1377C28.1246 1.28916 28.0978 1.20604 28.0572 1.1319C28.0166 1.05775 27.963 0.994373 27.8962 0.941754C27.8295 0.889136 27.7503 0.849074 27.6587 0.821569C27.5684 0.792868 27.4683 0.778517 27.3583 0.778517C27.1633 0.778517 26.9952 0.822167 26.8538 0.909466C26.7138 0.996765 26.6058 1.12293 26.5299 1.28796C26.4553 1.45299 26.418 1.6527 26.418 1.8871C26.418 2.13106 26.4559 2.33555 26.5319 2.50058C26.6091 2.66442 26.717 2.78819 26.8558 2.8719C26.9958 2.95442 27.1614 2.99568 27.3524 2.99568C27.4598 2.99568 27.5573 2.98312 27.6449 2.95801C27.7339 2.93289 27.8118 2.89642 27.8786 2.84858C27.9466 2.79955 28.0022 2.74036 28.0454 2.67099C28.0899 2.60044 28.1207 2.52091 28.1377 2.43242L29.1193 2.4378C29.1023 2.60044 29.0506 2.76069 28.9642 2.91854C28.8791 3.0764 28.762 3.2205 28.6128 3.35085C28.4636 3.48001 28.2817 3.58285 28.067 3.65939C27.8537 3.73593 27.609 3.77419 27.3328 3.77419C26.969 3.77419 26.6431 3.70125 26.3552 3.55535C26.0686 3.40826 25.8421 3.19419 25.6759 2.91316C25.5097 2.63213 25.4266 2.29011 25.4266 1.8871C25.4266 1.48289 25.511 1.14027 25.6798 0.859239C25.8487 0.578207 26.0771 0.364743 26.365 0.218846C26.6529 0.0729485 26.9755 0 27.3328 0C27.5762 0 27.8013 0.0310932 28.0081 0.0932789C28.2149 0.154269 28.3968 0.243959 28.5539 0.362351C28.7109 0.479547 28.8385 0.623651 28.9367 0.794661C29.0349 0.965672 29.0957 1.1612 29.1193 1.38124Z"
                    fill="currentColor"
                    fill-opacity="0.88"
                />
                <path
                    d="M21.6284 3.77419V0H23.3094C23.614 0 23.877 0.055286 24.0982 0.165858C24.3207 0.275201 24.4922 0.42816 24.6128 0.624732C24.7333 0.820076 24.7936 1.04736 24.7936 1.30659C24.7936 1.56705 24.732 1.79495 24.6088 1.9903C24.4869 2.18441 24.3127 2.33491 24.0862 2.4418C23.8597 2.54869 23.5908 2.60213 23.2796 2.60213H22.612V1.88341H23.0968C23.2451 1.88341 23.369 1.85945 23.4683 1.81154C23.569 1.76362 23.6451 1.69667 23.6968 1.61067C23.7485 1.52344 23.7743 1.42208 23.7743 1.30659C23.7743 1.18988 23.7485 1.08913 23.6968 1.00436C23.6451 0.918363 23.569 0.852019 23.4683 0.805333C23.3676 0.758647 23.2438 0.735304 23.0968 0.735304H22.612V3.77419H21.6284Z"
                    fill="currentColor"
                    fill-opacity="0.88"
                />
                <path
                    d="M17.7248 3.77419V0H20.4679V0.740833H18.6756V1.51484H20.3277V2.25751H18.6756V3.03336H20.4679V3.77419H17.7248Z"
                    fill="currentColor"
                    fill-opacity="0.88"
                />
                <path
                    d="M13.6101 3.77419V0H15.2664C15.5637 0 15.8126 0.0399288 16.013 0.119786C16.2147 0.199644 16.366 0.311445 16.4669 0.455188C16.569 0.598932 16.6201 0.765404 16.6201 0.954606C16.6201 1.09835 16.5884 1.22674 16.525 1.33977C16.4617 1.45157 16.3744 1.54432 16.2632 1.61804C16.152 1.69175 16.0234 1.74335 15.8773 1.77284V1.8097C16.0376 1.81707 16.1856 1.85823 16.3214 1.93317C16.4585 2.00811 16.5684 2.11254 16.6511 2.24646C16.7339 2.37914 16.7752 2.5364 16.7752 2.71823C16.7752 2.92095 16.7209 3.10216 16.6123 3.26188C16.5037 3.42036 16.3466 3.54568 16.141 3.63782C15.9355 3.72874 15.6859 3.77419 15.3924 3.77419H13.6101ZM14.5701 3.03889H15.1636C15.3717 3.03889 15.5249 3.00142 15.6232 2.92647C15.7228 2.85153 15.7725 2.7471 15.7725 2.61319C15.7725 2.51613 15.7486 2.43259 15.7008 2.36256C15.653 2.2913 15.5851 2.23663 15.4971 2.19854C15.4092 2.15923 15.3039 2.13957 15.181 2.13957H14.5701V3.03889ZM14.5701 1.55169H15.1015C15.2062 1.55169 15.2993 1.53511 15.3808 1.50194C15.4622 1.46877 15.5256 1.42085 15.5708 1.35819C15.6174 1.29554 15.6407 1.21998 15.6407 1.13152C15.6407 1.00498 15.5935 0.905462 15.4991 0.832976C15.4047 0.76049 15.2773 0.724247 15.117 0.724247H14.5701V1.55169Z"
                    fill="currentColor"
                    fill-opacity="0.88"
                />
                <path
                    d="M9.07339 0H10.0303V2.17458H10.0632L11.6244 0H12.4495V3.77419H11.4907V1.59592H11.4656L9.88499 3.77419H9.07339V0Z"
                    fill="currentColor"
                    fill-opacity="0.88"
                />
                <path
                    d="M4.43119 3.77419V0H5.39078V1.51484H6.9552V0H7.91284V3.77419H6.9552V2.25751H5.39078V3.77419H4.43119Z"
                    fill="currentColor"
                    fill-opacity="0.88"
                />
                <path
                    d="M0.474771 3.77419V3.06153H0.91395C1.02509 3.06153 1.114 3.05123 1.18068 3.03063C1.24867 3.00881 1.30163 2.97427 1.33955 2.927C1.37877 2.87973 1.41146 2.81671 1.43761 2.73793L1.48272 2.62339L0 0H0.996323L1.8887 1.67257L2.60652 0H3.58716L2.20642 2.95063C2.13451 3.09608 2.04952 3.23182 1.95146 3.35787C1.8534 3.48271 1.72984 3.5833 1.58078 3.65966C1.43303 3.73602 1.24671 3.77419 1.02182 3.77419H0.474771Z"
                    fill="currentColor"
                    fill-opacity="0.88"
                />
            </g>
            <defs>
                <clipPath id="clip0_2694_11065">
                    <rect
                        fill="white"
                        height="10"
                        width="46"
                    />
                </clipPath>
            </defs>
        </svg>