
  <svg
    fill="none"
    height="24"
    viewBox="0 0 24 24"
    width="24"
    xmlns="http://www.w3.org/2000/svg"
  >
    <path
      d="M8.00035 11.75C7.59035 11.75 7.25035 11.41 7.25035 11V6C7.25035 3.38 9.38035 1.25 12.0004 1.25C14.6204 1.25 16.7504 3.38 16.7504 6V6.3C16.7504 6.71 16.4104 7.05 16.0004 7.05C15.5904 7.05 15.2504 6.71 15.2504 6.3V6C15.2504 4.21 13.7904 2.75 12.0004 2.75C10.2104 2.75 8.75035 4.21 8.75035 6V11C8.75035 11.41 8.41035 11.75 8.00035 11.75Z"
      fill="currentColor"
    />
    <path
      d="M12.0004 16.25C10.6604 16.25 9.38035 15.68 8.48035 14.69C8.20035 14.38 8.23035 13.91 8.53035 13.63C8.84035 13.35 9.31035 13.38 9.59035 13.68C10.2004 14.36 11.0804 14.75 12.0004 14.75C13.7904 14.75 15.2504 13.29 15.2504 11.5V11C15.2504 10.59 15.5904 10.25 16.0004 10.25C16.4104 10.25 16.7504 10.59 16.7504 11V11.5C16.7504 14.12 14.6204 16.25 12.0004 16.25Z"
      fill="currentColor"
    />
    <path
      d="M12.0004 19.75C9.87035 19.75 7.83035 18.95 6.27035 17.5C5.97035 17.22 5.95035 16.74 6.23035 16.44C6.52035 16.13 7.00035 16.12 7.30035 16.4C8.58035 17.59 10.2504 18.25 12.0004 18.25C15.8004 18.25 18.9004 15.15 18.9004 11.35V9.65C18.9004 9.24 19.2404 8.9 19.6504 8.9C20.0604 8.9 20.4004 9.24 20.4004 9.65V11.35C20.4004 15.98 16.6304 19.75 12.0004 19.75Z"
      fill="currentColor"
    />
    <path
      d="M4.95035 15.08C4.66035 15.08 4.38035 14.91 4.26035 14.62C3.82035 13.58 3.60035 12.49 3.60035 11.35V9.65C3.60035 9.24 3.94035 8.9 4.35035 8.9C4.76035 8.9 5.10035 9.24 5.10035 9.65V11.35C5.10035 12.28 5.28035 13.18 5.64035 14.03C5.80035 14.41 5.62035 14.85 5.24035 15.01C5.15035 15.06 5.05035 15.08 4.95035 15.08Z"
      fill="currentColor"
    />
    <path
      d="M3.92035 19.74C3.73035 19.74 3.54035 19.67 3.39035 19.52C3.10035 19.23 3.10035 18.75 3.39035 18.46L19.5404 2.31C19.8304 2.02 20.3104 2.02 20.6004 2.31C20.8904 2.6 20.8904 3.08 20.6004 3.37L4.46035 19.52C4.31035 19.67 4.12035 19.74 3.92035 19.74Z"
      fill="currentColor"
    />
    <path
      d="M11.0004 6.75C10.5904 6.75 10.2504 6.41 10.2504 6V3C10.2504 2.59 10.5904 2.25 11.0004 2.25C11.4104 2.25 11.7504 2.59 11.7504 3V6C11.7504 6.41 11.4104 6.75 11.0004 6.75Z"
      fill="currentColor"
    />
    <path
      d="M12.0004 22.75C11.5904 22.75 11.2504 22.41 11.2504 22V19C11.2504 18.59 11.5904 18.25 12.0004 18.25C12.4104 18.25 12.7504 18.59 12.7504 19V22C12.7504 22.41 12.4104 22.75 12.0004 22.75Z"
      fill="currentColor"
    />
  </svg>
