
  <svg
    fill="none"
    height="24"
    viewBox="0 0 24 24"
    width="24"
    xmlns="http://www.w3.org/2000/svg"
  >
    <path
      d="M11.9996 16.25C9.37961 16.25 7.24961 14.12 7.24961 11.5V6C7.24961 3.38 9.37961 1.25 11.9996 1.25C14.6196 1.25 16.7496 3.38 16.7496 6V11.5C16.7496 14.12 14.6196 16.25 11.9996 16.25ZM11.9996 2.75C10.2096 2.75 8.74961 4.21 8.74961 6V11.5C8.74961 13.29 10.2096 14.75 11.9996 14.75C13.7896 14.75 15.2496 13.29 15.2496 11.5V6C15.2496 4.21 13.7896 2.75 11.9996 2.75Z"
      fill="currentColor"
    />
    <path
      d="M11.9996 19.75C7.36961 19.75 3.59961 15.98 3.59961 11.35V9.65C3.59961 9.24 3.93961 8.9 4.34961 8.9C4.75961 8.9 5.09961 9.24 5.09961 9.65V11.35C5.09961 15.15 8.19961 18.25 11.9996 18.25C15.7996 18.25 18.8996 15.15 18.8996 11.35V9.65C18.8996 9.24 19.2396 8.9 19.6496 8.9C20.0596 8.9 20.3996 9.24 20.3996 9.65V11.35C20.3996 15.98 16.6296 19.75 11.9996 19.75Z"
      fill="currentColor"
    />
    <path
      d="M13.3896 7.18C13.3096 7.18 13.2196 7.17 13.1296 7.14C12.3996 6.87 11.5996 6.87 10.8696 7.14C10.4796 7.28 10.0496 7.08 9.90961 6.69C9.76961 6.3 9.96961 5.87 10.3596 5.73C11.4196 5.35 12.5896 5.35 13.6496 5.73C14.0396 5.87 14.2396 6.3 14.0996 6.69C13.9796 6.99 13.6896 7.18 13.3896 7.18Z"
      fill="currentColor"
    />
    <path
      d="M12.7996 9.3C12.7296 9.3 12.6696 9.29 12.5996 9.27C12.1996 9.16 11.7896 9.16 11.3896 9.27C10.9896 9.38 10.5796 9.14 10.4696 8.74C10.3596 8.35 10.5996 7.94 10.9996 7.83C11.6496 7.65 12.3496 7.65 12.9996 7.83C13.3996 7.94 13.6396 8.35 13.5296 8.75C13.4396 9.08 13.1296 9.3 12.7996 9.3Z"
      fill="currentColor"
    />
    <path
      d="M11.9996 22.75C11.5896 22.75 11.2496 22.41 11.2496 22V19C11.2496 18.59 11.5896 18.25 11.9996 18.25C12.4096 18.25 12.7496 18.59 12.7496 19V22C12.7496 22.41 12.4096 22.75 11.9996 22.75Z"
      fill="currentColor"
    />
  </svg>
