


    <svg
        fill="none"
        height="24"
        viewBox="0 0 24 24"
        width="24"
        xmlns="http://www.w3.org/2000/svg"
    >
        <path
            d="M12 13.5C11.16 13.5 10.5 12.825 10.5 12C10.5 11.175 11.175 10.5 12 10.5C12.825 10.5 13.5 11.175 13.5 12C13.5 12.825 12.84 13.5 12 13.5Z"
            fill="currentColor"
        />
        <path
            d="M18 13.5C17.16 13.5 16.5 12.825 16.5 12C16.5 11.175 17.175 10.5 18 10.5C18.825 10.5 19.5 11.175 19.5 12C19.5 12.825 18.84 13.5 18 13.5Z"
            fill="currentColor"
        />
        <path
            d="M6 13.5C5.16 13.5 4.5 12.825 4.5 12C4.5 11.175 5.175 10.5 6 10.5C6.825 10.5 7.5 11.175 7.5 12C7.5 12.825 6.84 13.5 6 13.5Z"
            fill="currentColor"
        />
    </svg>

