


    <svg
        fill="none"
        height="24"
        viewBox="0 0 24 24"
        width="24"
        xmlns="http://www.w3.org/2000/svg"
        v-bind="$props"
    >
        <path
            d="M8.54648 17.9145C7.38164 16.5445 6.63516 14.5184 6.58594 12.2461V11.7539C6.63516 9.48164 7.38984 7.45547 8.54648 6.08555C10.0559 4.1332 12.2707 3.25547 14.7727 3.25547C16.3148 3.25547 17.7668 3.36211 18.9973 4.18242C17.1516 2.51719 14.7152 1.5082 12.041 1.5H12C6.20039 1.5 1.5 6.20039 1.5 12C1.5 17.6273 5.92969 22.2293 11.4996 22.4918C11.6637 22.5 11.8359 22.5 12 22.5C14.6906 22.5 17.1434 21.491 18.9973 19.8258C17.7668 20.6461 16.3969 20.6789 14.8547 20.6789C12.3609 20.6871 10.0477 19.875 8.54648 17.9145Z"
            fill="url(#paint0_linear_2436_7476)"
        />

        <path
            d="M8.54648 6.08555C9.50625 4.94531 10.7531 4.26445 12.1148 4.26445C15.1746 4.26445 17.652 7.72617 17.652 12.0082C17.652 16.2902 15.1746 19.752 12.1148 19.752C10.7531 19.752 9.51445 19.0629 8.54648 17.9309C10.0559 19.8832 12.2953 21.1301 14.7891 21.1301C16.323 21.1301 17.7668 20.6625 18.9973 19.8422C21.1465 17.9062 22.5 15.109 22.5 12C22.5 8.89102 21.1465 6.09375 18.9973 4.17422C17.7668 3.35391 16.3312 2.88633 14.7891 2.88633C12.2871 2.88633 10.0477 4.125 8.54648 6.08555Z"
            fill="url(#paint1_linear_2436_7476)"
        />

        <defs>
            <linearGradient
                id="paint0_linear_2436_7476"
                gradientunits="userSpaceOnUse"
                x1="12.0006"
                x2="12.0006"
                y1="1.8423"
                y2="22.1945"
            >
                <stop
                    offset="0.3"
                    stop-color="#FF1B2D"
                />

                <stop
                    offset="0.4381"
                    stop-color="#FA1A2C"
                />

                <stop
                    offset="0.5939"
                    stop-color="#ED1528"
                />

                <stop
                    offset="0.7581"
                    stop-color="#D60E21"
                />

                <stop
                    offset="0.9272"
                    stop-color="#B70519"
                />

                <stop
                    offset="1"
                    stop-color="#A70014"
                />
            </linearGradient>

            <linearGradient
                id="paint1_linear_2436_7476"
                gradientunits="userSpaceOnUse"
                x1="15.5222"
                x2="15.5222"
                y1="3.04234"
                y2="21.0427"
            >
                <stop stop-color="#9C0000" />

                <stop
                    offset="0.7"
                    stop-color="#FF4B4B"
                />
            </linearGradient>
        </defs>
    </svg>

