
  <svg
    fill="none"
    height="24"
    viewBox="0 0 24 24"
    width="24"
    xmlns="http://www.w3.org/2000/svg"
  >
    <path
      d="M15.0112 1.95312C14.746 1.95312 14.4733 2.09163 14.2818 2.27493C12.7332 3.75773 12.259 4.99773 12.8252 6.69633C11.5041 7.70893 10.6697 7.95743 9.0205 7.95743C6.766 7.95743 5.294 8.22923 4.2924 9.23013V9.26133C3.3552 10.1981 3.3552 11.6981 4.2924 12.6341L7.0926 15.4561L2.3215 20.2251C1.931 20.6151 1.9019 21.2701 2.2924 21.6601C2.683 22.0511 3.3394 22.0511 3.73 21.6601L8.5188 16.8701L11.3237 19.6611C12.261 20.5981 13.7614 20.5981 14.6987 19.6611H14.73C15.732 18.6601 16.0112 17.3771 16.0112 14.9451C16.0112 13.3991 16.3285 12.3081 17.2892 11.1601C19.1381 11.7021 20.2138 11.1831 21.73 9.66743C21.9175 9.47993 22.0112 9.21413 22.0112 8.94903C22.0112 8.59733 21.9224 8.05823 21.6987 7.38743C21.3384 6.30733 20.7181 5.22063 19.73 4.23303C18.7418 3.24553 17.6544 2.62553 16.5737 2.26543C15.9025 2.04183 15.3631 1.95312 15.0112 1.95312ZM15.3985 4.00773C16.4609 4.20493 17.5306 4.90822 18.2924 5.66973C19.0543 6.43113 19.7032 7.36372 19.9717 8.58602C19.0172 9.50163 18.4334 9.57403 17.4788 9.07153C17.098 8.87103 16.6155 8.94193 16.3112 9.24613C14.4902 11.0661 14.0112 12.7171 14.0112 14.9451C14.0112 16.8851 13.8971 17.6061 13.2924 18.2561C13.1217 18.4401 12.8862 18.4121 12.73 18.2561L5.6987 11.2291C5.5425 11.0731 5.5473 10.8731 5.6732 10.7201C6.0304 10.2851 6.8254 9.94723 9.0112 9.94843C11.6242 9.94993 13.0133 9.27703 14.73 7.66853C15.0343 7.36433 15.1099 6.89773 14.9174 6.51293C14.4032 5.48503 14.4834 4.94323 15.3985 4.00773Z"
      fill="currentColor"
    />
  </svg>
