


    <svg
        fill="none"
        height="24"
        viewBox="0 0 24 24"
        width="24"
        xmlns="http://www.w3.org/2000/svg"
        v-bind="$props"
    >
        <path
            clip-rule="evenodd"
            d="M19.5304 16.9997C19.8233 17.2926 19.8233 17.7674 19.5304 18.0603L16.4904 21.1003C16.1975 21.3932 15.7226 21.3932 15.4297 21.1003L13.9097 19.5803C13.6168 19.2874 13.6168 18.8126 13.9097 18.5197C14.2026 18.2268 14.6775 18.2268 14.9704 18.5197L15.96 19.5093L18.4697 16.9997C18.7626 16.7068 19.2375 16.7068 19.5304 16.9997Z"
            fill="currentColor"
            fill-rule="evenodd"
        />

        <path
            clip-rule="evenodd"
            d="M11.99 2.75C9.95366 2.75 8.30174 4.40413 8.31003 6.43694L8.31005 6.44C8.31004 8.42302 9.85912 10.032 11.8149 10.1189C11.9335 10.1106 12.0588 10.1102 12.177 10.1188C14.1234 10.0308 15.68 8.42113 15.68 6.44C15.68 4.40421 14.0258 2.75 11.99 2.75ZM6.81004 6.44153C6.79917 3.57504 9.12693 1.25 11.99 1.25C14.8543 1.25 17.18 3.57579 17.18 6.44C17.18 9.24456 14.9593 11.5259 12.1853 11.6196C12.152 11.6207 12.1186 11.6196 12.0854 11.6163C12.0372 11.6115 11.9651 11.6108 11.8979 11.6169C11.867 11.6197 11.8359 11.6206 11.8048 11.6196C9.02014 11.526 6.81084 9.2442 6.81004 6.44153Z"
            fill="currentColor"
            fill-rule="evenodd"
        />

        <path
            clip-rule="evenodd"
            d="M11.985 13.9297C10.2841 13.9297 8.62289 14.3629 7.39711 15.183L7.39547 15.1841C6.34205 15.885 5.91504 16.7352 5.91504 17.4909C5.91504 18.247 6.34244 19.1001 7.39668 19.8061C8.62825 20.6269 10.2849 21.0597 11.99 21.0597C12.4043 21.0597 12.74 21.3955 12.74 21.8097C12.74 22.2239 12.4043 22.5597 11.99 22.5597C10.0554 22.5597 8.09238 22.0726 6.56401 21.0537L6.56283 21.0529C5.19748 20.1389 4.41504 18.8623 4.41504 17.4909C4.41504 16.1194 5.19772 14.8449 6.56379 13.9358C8.08789 12.9163 10.0563 12.4297 11.985 12.4297C13.9141 12.4297 15.8829 12.9165 17.4071 13.9363C17.7514 14.1667 17.8437 14.6325 17.6134 14.9768C17.383 15.321 16.9172 15.4134 16.573 15.183C15.3472 14.3629 13.686 13.9297 11.985 13.9297Z"
            fill="currentColor"
            fill-rule="evenodd"
        />
    </svg>

