


    <svg
        fill="none"
        height="24"
        viewBox="0 0 24 24"
        width="24"
        xmlns="http://www.w3.org/2000/svg"
        v-bind="$props"
    >
        <path
            clip-rule="evenodd"
            d="M11.9091 1.96967C12.5994 1.27941 13.5738 1 14.6895 1H18.6895C19.8051 1 20.7795 1.27941 21.4698 1.96967C22.16 2.65993 22.4395 3.63439 22.4395 4.75V18.75C22.4395 19.8656 22.16 20.8401 21.4698 21.5303C20.7795 22.2206 19.8051 22.5 18.6895 22.5H14.6895C13.5738 22.5 12.5994 22.2206 11.9091 21.5303C11.2189 20.8401 10.9395 19.8656 10.9395 18.75V4.75C10.9395 3.63439 11.2189 2.65993 11.9091 1.96967ZM12.9698 3.03033C12.66 3.34007 12.4395 3.86561 12.4395 4.75V18.75C12.4395 19.6344 12.66 20.1599 12.9698 20.4697C13.2795 20.7794 13.8051 21 14.6895 21H18.6895C19.5738 21 20.0994 20.7794 20.4091 20.4697C20.7189 20.1599 20.9395 19.6344 20.9395 18.75V4.75C20.9395 3.86561 20.7189 3.34007 20.4091 3.03033C20.0994 2.72059 19.5738 2.5 18.6895 2.5H14.6895C13.8051 2.5 13.2795 2.72059 12.9698 3.03033Z"
            fill="currentColor"
            fill-rule="evenodd"
        />
        <path
            clip-rule="evenodd"
            d="M10.9395 5.75C10.9395 5.33579 11.2752 5 11.6895 5H16.6895C17.1037 5 17.4395 5.33579 17.4395 5.75C17.4395 6.16421 17.1037 6.5 16.6895 6.5H11.6895C11.2752 6.5 10.9395 6.16421 10.9395 5.75Z"
            fill="currentColor"
            fill-rule="evenodd"
        />
        <path
            clip-rule="evenodd"
            d="M10.9395 17.75C10.9395 17.3358 11.2752 17 11.6895 17H15.6895C16.1037 17 16.4395 17.3358 16.4395 17.75C16.4395 18.1642 16.1037 18.5 15.6895 18.5H11.6895C11.2752 18.5 10.9395 18.1642 10.9395 17.75Z"
            fill="currentColor"
            fill-rule="evenodd"
        />
        <path
            clip-rule="evenodd"
            d="M10.9395 13.6917C10.9436 13.2775 11.2828 12.9451 11.697 12.9493L16.697 12.9993C17.1111 13.0034 17.4436 13.3425 17.4394 13.7567C17.4353 14.1709 17.0961 14.5033 16.682 14.4992L11.682 14.4492C11.2678 14.445 10.9353 14.1059 10.9395 13.6917Z"
            fill="currentColor"
            fill-rule="evenodd"
        />
        <path
            clip-rule="evenodd"
            d="M10.9395 9.75C10.9395 9.33579 11.2752 9 11.6895 9H14.6895C15.1037 9 15.4395 9.33579 15.4395 9.75C15.4395 10.1642 15.1037 10.5 14.6895 10.5H11.6895C11.2752 10.5 10.9395 10.1642 10.9395 9.75Z"
            fill="currentColor"
            fill-rule="evenodd"
        />
        <path
            clip-rule="evenodd"
            d="M2 4.7C2 2.66414 3.66744 1 5.71 1C7.74421 1 9.41 2.66579 9.41 4.7V17.66C9.41 17.975 9.34622 18.3283 9.25898 18.6429C9.17154 18.9583 9.04464 19.292 8.88602 19.561L8.88232 19.5673L8.06348 20.9253L8.06285 20.9263C7.5051 21.8573 6.67205 22.4675 5.705 22.4675C4.73797 22.4675 3.90493 21.8573 3.34718 20.9264L3.34652 20.9253L2.52395 19.561C2.36533 19.2921 2.23846 18.9583 2.15102 18.6429C2.06378 18.3283 2 17.975 2 17.66V4.7ZM5.71 2.5C4.49256 2.5 3.5 3.49586 3.5 4.7V17.66C3.5 17.795 3.53122 18.0067 3.59648 18.2421C3.66106 18.475 3.7434 18.675 3.81443 18.7963L4.63348 20.1547C5.01572 20.7932 5.42741 20.9675 5.705 20.9675C5.98259 20.9675 6.39428 20.7932 6.77652 20.1547L6.77772 20.1527L7.59558 18.7963C7.6666 18.675 7.74894 18.475 7.81352 18.2421C7.87878 18.0067 7.91 17.795 7.91 17.66V4.7C7.91 3.49421 6.91579 2.5 5.71 2.5Z"
            fill="currentColor"
            fill-rule="evenodd"
        />
        <path
            clip-rule="evenodd"
            d="M2 6.75C2 6.33579 2.33579 6 2.75 6H8.66C9.07421 6 9.41 6.33579 9.41 6.75C9.41 7.16421 9.07421 7.5 8.66 7.5H2.75C2.33579 7.5 2 7.16421 2 6.75Z"
            fill="currentColor"
            fill-rule="evenodd"
        />
    </svg>



