


    <svg
        fill="none"
        height="24"
        viewBox="0 0 24 24"
        width="24"
        xmlns="http://www.w3.org/2000/svg"
        v-bind="$props"
    >
        <path
            d="M18.4703 2H14.4703C12.9775 2 11.7435 3.28581 11.51 4.75204C11.4666 5.02475 11.6941 5.25 11.9703 5.25H16.4703C16.8803 5.25 17.2203 5.59 17.2203 6C17.2203 6.41 16.8803 6.75 16.4703 6.75H11.9703C11.6941 6.75 11.4703 6.97386 11.4703 7.25V8.75C11.4703 9.02614 11.6941 9.25 11.9703 9.25H14.2803C14.6903 9.25 15.0303 9.59 15.0303 10C15.0303 10.41 14.6903 10.75 14.2803 10.75H11.9703C11.6941 10.75 11.4703 10.9739 11.4703 11.25V12.705C11.4703 12.9792 11.6911 13.2022 11.9653 13.2049L16.4703 13.25C16.8903 13.25 17.2203 13.59 17.2203 14.01C17.2103 14.42 16.8803 14.75 16.4703 14.75C16.4603 14.75 16.4603 14.75 16.4603 14.75L11.9753 14.7051C11.6972 14.7023 11.4703 14.9269 11.4703 15.205V16.75C11.4703 17.0261 11.6941 17.25 11.9703 17.25H15.3703C15.7903 17.25 16.1203 17.59 16.1203 18C16.1203 18.41 15.7903 18.75 15.3703 18.75H11.9703C11.6941 18.75 11.4666 18.9753 11.51 19.248C11.7435 20.7142 12.9775 22 14.4703 22H18.4703C20.1203 22 21.4703 20.66 21.4703 19V5C21.4703 3.34 20.1203 2 18.4703 2Z"
            fill="currentColor"
        />
        <path
            d="M8.44027 4.95V5.75C8.44027 6.02614 8.21642 6.25 7.94027 6.25H3.03027C2.75413 6.25 2.53027 6.02614 2.53027 5.75V4.95C2.53027 3.33 3.86027 2 5.49027 2C7.11027 2 8.44027 3.33 8.44027 4.95Z"
            fill="currentColor"
        />
        <path
            d="M2.53027 17.91C2.53027 18.36 2.72027 19.05 2.96027 19.43L3.77027 20.79C4.72027 22.37 6.26027 22.37 7.20027 20.79L8.02027 19.43C8.25027 19.05 8.44027 18.36 8.44027 17.91V8.25C8.44027 7.97386 8.21642 7.75 7.94027 7.75H3.03027C2.75413 7.75 2.53027 7.97386 2.53027 8.25V17.91Z"
            fill="currentColor"
        />
    </svg>



