


    <svg
        fill="none"
        height="24"
        viewBox="0 0 24 24"
        width="24"
        xmlns="http://www.w3.org/2000/svg"
        v-bind="$props"
    >
        <mask
            id="mask0_5043_118787"
            height="22"
            maskUnits="userSpaceOnUse"
            style="mask-type: luminance"
            width="22"
            x="1"
            y="1"
        >
            <path
                d="M17.6667 1H6.33333C3.38781 1 1 3.38781 1 6.33333V17.6667C1 20.6122 3.38781 23 6.33333 23H17.6667C20.6122 23 23 20.6122 23 17.6667V6.33333C23 3.38781 20.6122 1 17.6667 1Z"
                fill="white"
            />
        </mask>
        <g mask="url(#mask0_5043_118787)">
            <path
                d="M23 1H1V23H23V1Z"
                fill="#100943"
            />
            <path
                d="M23 12C29.0752 12 34 7.07513 34 1.00001C34 -5.07513 29.0752 -10 23 -10C16.9249 -10 12 -5.07513 12 1.00001C12 7.07513 16.9249 12 23 12Z"
                fill="#ED143B"
            />
            <path
                d="M14.588 11.4978H8.08846V8.92578H14.588C14.9677 8.92578 15.2317 8.99197 15.3642 9.10752C15.4966 9.22308 15.5787 9.43742 15.5787 9.75052V10.674C15.5787 11.0039 15.4966 11.2182 15.3642 11.3338C15.2317 11.4494 14.9677 11.4988 14.588 11.4988V11.4978ZM15.0339 6.50098H5.33203V17.5H8.08846V13.9216H13.1683L15.5787 17.5H18.6654L16.0078 13.9048C16.9876 13.7596 17.4275 13.4593 17.7904 12.9645C18.1532 12.4697 18.3352 11.6785 18.3352 10.6227V9.79793C18.3352 9.17172 18.2689 8.67688 18.1532 8.29762C18.0375 7.91833 17.8399 7.58845 17.559 7.29213C17.2624 7.01163 16.9322 6.81408 16.5357 6.68173C16.1393 6.56618 15.644 6.5 15.0339 6.5V6.50098Z"
                fill="white"
            />
        </g>
    </svg>

