


    <svg
        fill="none"
        height="24"
        viewBox="0 0 24 24"
        width="24"
        xmlns="http://www.w3.org/2000/svg"
        v-bind="$props"
    >
        <path
            d="M12 22.5C17.799 22.5 22.5 17.799 22.5 12C22.5 6.20101 17.799 1.5 12 1.5C6.20101 1.5 1.5 6.20101 1.5 12C1.5 17.799 6.20101 22.5 12 22.5Z"
            fill="url(#paint0_linear_2436_7337)"
        />

        <path
            d="M12 21.7125C17.3641 21.7125 21.7125 17.3641 21.7125 12C21.7125 6.63592 17.3641 2.28749 12 2.28749C6.63597 2.28749 2.28754 6.63592 2.28754 12C2.28754 17.3641 6.63597 21.7125 12 21.7125Z"
            fill="url(#paint1_radial_2436_7337)"
        />

        <path
            d="M12.0164 4.65002C11.9508 4.65002 11.8934 4.60082 11.8934 4.5352V2.82073C11.8934 2.7551 11.9508 2.7059 12.0164 2.7059C12.082 2.7059 12.1394 2.7551 12.1394 2.82073V4.5352C12.1312 4.60082 12.082 4.65002 12.0164 4.65002Z"
            fill="#F3F3F3"
        />

        <path
            d="M12.0164 4.65821C11.9426 4.65821 11.8852 4.6008 11.8852 4.53518V2.82073C11.8852 2.7551 11.9426 2.69769 12.0164 2.69769C12.0903 2.69769 12.1477 2.7551 12.1477 2.82073V4.53518C12.1477 4.6008 12.0821 4.65821 12.0164 4.65821ZM12.0164 2.71403C11.959 2.71403 11.9016 2.76331 11.9016 2.82073V4.53518C11.9016 4.59259 11.9508 4.64187 12.0164 4.64187C12.0738 4.64187 12.1313 4.59259 12.1313 4.53518V2.82073C12.1231 2.76331 12.0738 2.71403 12.0164 2.71403Z"
            fill="white"
        />

        <path
            d="M12.8368 3.73126C12.7711 3.72304 12.7219 3.67385 12.7219 3.60822L12.7794 2.84526C12.7875 2.77972 12.845 2.73044 12.9106 2.73865C12.9762 2.74687 13.0254 2.79615 13.0254 2.86177L12.968 3.62465C12.9598 3.69027 12.9024 3.73939 12.8368 3.73126Z"
            fill="#F3F3F3"
        />

        <path
            d="M12.8367 3.73948C12.7629 3.73126 12.7137 3.67385 12.7137 3.60823L12.7711 2.84528C12.7793 2.77974 12.8367 2.72233 12.9106 2.73046C12.9843 2.73867 13.0336 2.79617 13.0336 2.86171L12.9762 3.62465C12.968 3.69849 12.9106 3.74769 12.8367 3.73948ZM12.9106 2.74688C12.8532 2.74688 12.7957 2.78795 12.7957 2.84536L12.7383 3.60831C12.7383 3.66564 12.7793 3.71492 12.8449 3.72305C12.9024 3.72305 12.9598 3.68207 12.9598 3.62465L13.0172 2.86171C13.0172 2.80429 12.9681 2.7551 12.9106 2.74688Z"
            fill="white"
        />

        <path
            d="M13.4519 4.79771C13.3862 4.78128 13.3452 4.72387 13.3535 4.65824L13.6898 2.97654C13.7062 2.911 13.7636 2.86993 13.8292 2.88636C13.8949 2.90279 13.9358 2.9602 13.9276 3.02582L13.5913 4.70753C13.5831 4.76485 13.5176 4.80592 13.4519 4.79771Z"
            fill="#F3F3F3"
        />

        <path
            d="M13.452 4.80586C13.3781 4.78944 13.3371 4.72381 13.3454 4.65819L13.6817 2.9765C13.6981 2.91096 13.7637 2.86168 13.8375 2.87811C13.9113 2.89454 13.9524 2.96016 13.9441 3.02579L13.6078 4.70747C13.5914 4.77301 13.5258 4.81408 13.452 4.80586ZM13.8375 2.89454C13.7801 2.88632 13.7226 2.91909 13.7062 2.97659L13.37 4.65827C13.3618 4.7156 13.3945 4.77301 13.4602 4.78952C13.5176 4.79765 13.5749 4.76494 13.5913 4.70753L13.9276 3.02582C13.9358 2.9602 13.8949 2.91096 13.8375 2.89454Z"
            fill="white"
        />

        <path
            d="M14.4363 4.05942C14.4207 4.05566 14.406 4.04885 14.393 4.03939C14.38 4.02993 14.369 4.018 14.3606 4.00428C14.3522 3.99056 14.3467 3.97533 14.3442 3.95945C14.3417 3.94358 14.3424 3.92737 14.3461 3.91175L14.5512 3.17353C14.5676 3.1079 14.6332 3.07505 14.6988 3.09148C14.7645 3.1079 14.8055 3.17353 14.7891 3.23915L14.584 3.97746C14.5676 4.043 14.502 4.07585 14.4363 4.05942Z"
            fill="#F3F3F3"
        />

        <path
            d="M14.4364 4.06761C14.3708 4.05118 14.3215 3.97729 14.3461 3.91175L14.5512 3.17353C14.5676 3.10799 14.6415 3.06682 14.7071 3.08325C14.7727 3.09967 14.8219 3.17351 14.7973 3.23905L14.5923 3.97743C14.5758 4.04297 14.5101 4.08404 14.4364 4.06761ZM14.7071 3.10789C14.6497 3.09146 14.5841 3.12431 14.5676 3.18173L14.3627 3.91993C14.3462 3.97734 14.379 4.03484 14.4446 4.05118C14.502 4.06761 14.5676 4.03487 14.584 3.97746L14.7891 3.23915C14.7973 3.18183 14.7646 3.1244 14.7071 3.10789Z"
            fill="white"
        />

        <path
            d="M14.8383 5.21602C14.7727 5.19138 14.7482 5.11755 14.7727 5.06013L15.4289 3.47693C15.4535 3.41952 15.5274 3.38667 15.5847 3.41952C15.6505 3.44408 15.6751 3.518 15.6505 3.57533L14.9942 5.15853C14.9697 5.21602 14.8957 5.24879 14.8383 5.21602Z"
            fill="#F3F3F3"
        />

        <path
            d="M14.8383 5.22433C14.8068 5.21232 14.7813 5.1883 14.7675 5.15754C14.7536 5.12678 14.7525 5.09179 14.7645 5.06023L15.4207 3.477C15.4454 3.41138 15.5192 3.38674 15.593 3.41138C15.6246 3.42339 15.65 3.44741 15.6639 3.47817C15.6777 3.50893 15.6788 3.54393 15.6669 3.57548L15.0106 5.15871C14.9778 5.22433 14.9039 5.2571 14.8383 5.22433ZM15.5848 3.42781C15.5274 3.40325 15.4618 3.42781 15.4371 3.48522L14.7809 5.06844C14.7563 5.12585 14.7891 5.18327 14.8465 5.20791C14.9039 5.23246 14.9696 5.20791 14.9942 5.1505L15.6505 3.56727C15.6669 3.51799 15.6422 3.45236 15.5848 3.42781Z"
            fill="white"
        />

        <path
            d="M15.9458 4.69107C15.8883 4.65822 15.8636 4.5926 15.8883 4.53519L16.2328 3.85439C16.2656 3.7969 16.3312 3.77226 16.3969 3.80511C16.4543 3.83797 16.4788 3.90359 16.4543 3.96091L16.1097 4.64179C16.0769 4.6992 16.0114 4.72393 15.9458 4.69107Z"
            fill="#F3F3F3"
        />

        <path
            d="M15.9458 4.6993C15.8801 4.66644 15.8556 4.59261 15.8883 4.52698L16.2329 3.84618C16.2657 3.78047 16.3396 3.75591 16.4051 3.78868C16.4708 3.82154 16.4954 3.89538 16.4625 3.961L16.1181 4.6418C16.0852 4.70743 16.0114 4.73215 15.9458 4.6993ZM16.3969 3.80511C16.3394 3.78055 16.2739 3.7969 16.2493 3.85431L15.9048 4.53519C15.8802 4.58439 15.9048 4.65002 15.954 4.68287C16.0114 4.70743 16.077 4.69108 16.1016 4.63367L16.4462 3.95279C16.4708 3.90359 16.4461 3.83797 16.3969 3.80511Z"
            fill="white"
        />

        <path
            d="M16.1098 5.90512C16.0524 5.86414 16.036 5.7903 16.077 5.7411L17.0286 4.3219C17.0614 4.26449 17.1353 4.25627 17.1926 4.28913C17.2501 4.33011 17.2664 4.40395 17.2255 4.45315L16.2739 5.87235C16.2411 5.92977 16.1672 5.94619 16.1098 5.90512Z"
            fill="#F3F3F3"
        />

        <path
            d="M16.1098 5.91331C16.0524 5.87232 16.036 5.79027 16.0688 5.73286L17.0204 4.3137C17.0613 4.25629 17.1352 4.23986 17.2008 4.28093C17.2582 4.32191 17.2746 4.40396 17.2419 4.46137L16.2903 5.88054C16.2493 5.93795 16.1672 5.95429 16.1098 5.91331ZM17.1926 4.29736C17.1435 4.2645 17.0696 4.27271 17.0368 4.32191L16.0852 5.74108C16.0524 5.79019 16.0687 5.8559 16.118 5.88867C16.1672 5.92152 16.2411 5.91331 16.2738 5.86411L17.2255 4.45315C17.2582 4.40395 17.2419 4.33012 17.1926 4.29736Z"
            fill="white"
        />

        <path
            d="M17.3074 5.60162C17.2583 5.56055 17.2419 5.48672 17.2829 5.43752L17.7586 4.83868C17.7996 4.78957 17.8735 4.78127 17.9226 4.82234C17.9719 4.86332 17.9883 4.93716 17.9472 4.98636L17.4715 5.5852C17.4305 5.63439 17.3566 5.64261 17.3074 5.60162Z"
            fill="#F3F3F3"
        />

        <path
            d="M17.2993 5.6098C17.2419 5.56873 17.2336 5.48667 17.2747 5.42926L17.7504 4.83049C17.7914 4.77299 17.8734 4.76478 17.9308 4.81406C17.9883 4.85505 17.9965 4.9371 17.9554 4.99451L17.4797 5.59337C17.4387 5.65078 17.3567 5.659 17.2993 5.6098ZM17.9144 4.8304C17.8653 4.78942 17.7996 4.79763 17.7586 4.84683L17.2828 5.44569C17.2501 5.49489 17.2583 5.56064 17.3074 5.60162C17.3567 5.64269 17.4223 5.63435 17.4633 5.58516L17.9391 4.9863C17.9719 4.9371 17.9635 4.86318 17.9144 4.8304Z"
            fill="white"
        />

        <path
            d="M17.2254 6.83207C17.1762 6.78288 17.1762 6.70904 17.2254 6.66797L18.4394 5.46218C18.4887 5.41299 18.5624 5.42112 18.6035 5.46218C18.6445 5.50317 18.6527 5.58522 18.6035 5.6262L17.3977 6.83207C17.3485 6.88127 17.2746 6.88127 17.2254 6.83207Z"
            fill="#F3F3F3"
        />

        <path
            d="M17.2172 6.84025C17.1935 6.81618 17.1803 6.78378 17.1803 6.75003C17.1803 6.71628 17.1935 6.68388 17.2172 6.65981L18.4312 5.45393C18.4553 5.43024 18.4877 5.41697 18.5215 5.41697C18.5553 5.41697 18.5877 5.43024 18.6118 5.45393C18.6354 5.478 18.6487 5.5104 18.6487 5.54415C18.6487 5.5779 18.6354 5.6103 18.6118 5.63437L17.3977 6.84017C17.3736 6.86383 17.3412 6.87709 17.3074 6.87709C17.2737 6.87709 17.2413 6.86391 17.2172 6.84025ZM18.6035 5.46218C18.5625 5.42112 18.4887 5.42107 18.4478 5.46214L17.2336 6.66794C17.1926 6.70901 17.1926 6.78284 17.2336 6.82383C17.2746 6.8649 17.3485 6.8649 17.3894 6.82383L18.6036 5.61803C18.6446 5.57696 18.6445 5.51138 18.6035 5.46218Z"
            fill="white"
        />

        <path
            d="M18.4559 6.76641C18.4149 6.71722 18.4149 6.64338 18.4641 6.60231L19.0465 6.11018C19.0956 6.0692 19.1695 6.07733 19.2105 6.12661C19.2515 6.17581 19.2515 6.24964 19.2023 6.29063L18.62 6.78284C18.5707 6.82382 18.4968 6.81561 18.4559 6.76641Z"
            fill="#F3F3F3"
        />

        <path
            d="M18.4476 6.77463C18.3984 6.71722 18.4067 6.63516 18.4559 6.59418L19.0382 6.10195C19.0874 6.05276 19.1695 6.06097 19.2187 6.11838C19.2679 6.17579 19.2597 6.25784 19.2105 6.29883L18.6281 6.79105C18.579 6.84017 18.4967 6.83204 18.4476 6.77463ZM19.2023 6.1266C19.1613 6.0774 19.0956 6.07741 19.0465 6.11018L18.4641 6.60231C18.4231 6.6433 18.4149 6.709 18.4559 6.7582C18.4968 6.8074 18.5625 6.8074 18.6117 6.77463L19.1941 6.2824C19.2433 6.24142 19.2433 6.17579 19.2023 6.1266Z"
            fill="white"
        />

        <path
            d="M18.1278 7.9477C18.0868 7.89028 18.1032 7.81644 18.1606 7.78359L19.5879 6.83206C19.6453 6.7992 19.7191 6.81563 19.7519 6.86491C19.7929 6.92233 19.7765 6.99616 19.7191 7.02894L18.2919 7.98046C18.2426 8.01332 18.1687 7.99689 18.1278 7.9477Z"
            fill="#F3F3F3"
        />

        <path
            d="M18.1195 7.94769C18.0785 7.89028 18.095 7.80823 18.1524 7.76724L19.5797 6.81565C19.6371 6.77467 19.7192 6.79109 19.7601 6.85672C19.8012 6.91413 19.7847 6.99618 19.7274 7.03708L18.3001 7.98876C18.2426 8.02983 18.1606 8.01331 18.1195 7.94769ZM19.7437 6.87314C19.711 6.82386 19.6453 6.80744 19.5961 6.84029L18.1687 7.7918C18.1196 7.82466 18.1031 7.89028 18.1442 7.94769C18.1769 7.99689 18.2426 8.01323 18.2919 7.98046L19.7191 7.02894C19.7683 6.98795 19.7766 6.92226 19.7437 6.87314Z"
            fill="white"
        />

        <path
            d="M19.3502 8.11999C19.3173 8.0625 19.3337 7.98874 19.3912 7.95589L20.0556 7.57858C20.113 7.54572 20.1869 7.57036 20.2197 7.62769C20.2525 7.68518 20.2361 7.75893 20.1787 7.79179L19.5142 8.16919C19.4568 8.20195 19.383 8.17748 19.3502 8.11999Z"
            fill="#F3F3F3"
        />

        <path
            d="M19.342 8.12816C19.3091 8.06253 19.3255 7.98869 19.383 7.95591L20.0474 7.57858C20.1048 7.54572 20.1869 7.57036 20.2197 7.62769C20.2525 7.6934 20.2361 7.76725 20.1787 7.80002L19.5142 8.17744C19.4568 8.21021 19.3747 8.18557 19.342 8.12816ZM20.2115 7.63599C20.1787 7.57858 20.1131 7.56215 20.0639 7.59492L19.3994 7.97234C19.3502 8.00511 19.3338 8.07074 19.3583 8.11994C19.3912 8.17735 19.4568 8.19378 19.506 8.16101L20.1705 7.78359C20.2197 7.75903 20.2361 7.69341 20.2115 7.63599Z"
            fill="white"
        />

        <path
            d="M18.8004 9.21098C18.7759 9.14536 18.8004 9.07973 18.8661 9.05518L20.4493 8.39894C20.5067 8.3743 20.5805 8.40707 20.6051 8.46448C20.6297 8.5301 20.6051 8.59572 20.5394 8.62028L18.9563 9.27652C18.8988 9.30116 18.8251 9.27652 18.8004 9.21098Z"
            fill="#F3F3F3"
        />

        <path
            d="M18.7922 9.2191C18.7676 9.15356 18.7922 9.07972 18.8578 9.04687L20.441 8.39065C20.4726 8.37876 20.5075 8.37985 20.5383 8.39369C20.569 8.40753 20.5931 8.43298 20.6051 8.46448C20.6297 8.5301 20.605 8.60394 20.5394 8.63671L18.9563 9.29293C18.9248 9.30485 18.8898 9.30378 18.859 9.28996C18.8283 9.27614 18.8042 9.2506 18.7922 9.2191ZM20.5887 8.4727C20.5641 8.41529 20.4984 8.39065 20.4492 8.40707L18.866 9.0633C18.8086 9.08785 18.784 9.15356 18.8086 9.21097C18.8332 9.26838 18.8988 9.29302 18.9481 9.27659L20.5312 8.62037C20.5887 8.59581 20.6133 8.53011 20.5887 8.4727Z"
            fill="white"
        />

        <path
            d="M19.9572 9.62117C19.9326 9.55546 19.9654 9.48992 20.031 9.46528L20.7528 9.22734C20.8102 9.20278 20.884 9.24377 20.9005 9.30118C20.925 9.3668 20.8923 9.43243 20.8266 9.45707L20.1048 9.69501C20.0474 9.71957 19.9818 9.68688 19.9572 9.62117Z"
            fill="#F3F3F3"
        />

        <path
            d="M19.9488 9.62929C19.9243 9.56367 19.9571 9.48984 20.031 9.46528L20.7528 9.22734C20.8184 9.20278 20.8921 9.24375 20.9168 9.30946C20.9413 9.375 20.9086 9.44884 20.8346 9.47348L20.1129 9.71143C20.0473 9.72778 19.9735 9.69492 19.9488 9.62929ZM20.9003 9.31767C20.8839 9.26017 20.8183 9.22732 20.7609 9.24375L20.0391 9.4817C19.9817 9.49804 19.957 9.56367 19.9735 9.62117C19.9899 9.67858 20.0555 9.71135 20.1129 9.69492L20.8347 9.45706C20.8921 9.4325 20.9168 9.37508 20.9003 9.31767Z"
            fill="white"
        />

        <path
            d="M19.2189 10.5973C19.2025 10.5317 19.2435 10.466 19.3091 10.4578L20.9907 10.1297C21.0562 10.1133 21.1137 10.1625 21.1301 10.2281C21.1465 10.2937 21.1055 10.3594 21.0399 10.3676L19.3583 10.6957C19.2927 10.7039 19.2272 10.6629 19.2189 10.5973Z"
            fill="#F3F3F3"
        />

        <path
            d="M19.2023 10.5974C19.1859 10.5235 19.2351 10.4579 19.3007 10.4415L20.9824 10.1133C21.048 10.0969 21.1136 10.1462 21.13 10.22C21.1464 10.2938 21.0972 10.3594 21.0316 10.3758L19.3499 10.704C19.2844 10.7204 19.2186 10.6713 19.2023 10.5974ZM21.1136 10.2281C21.1054 10.1707 21.048 10.1297 20.9906 10.138L19.3089 10.4661C19.2515 10.4743 19.2105 10.5399 19.2269 10.5974C19.2351 10.6548 19.2925 10.6958 19.35 10.6876L21.0316 10.3594C21.089 10.343 21.13 10.2856 21.1136 10.2281Z"
            fill="white"
        />

        <path
            d="M20.2688 11.2289C20.2606 11.1633 20.3016 11.1059 20.3672 11.0977L21.1218 11.0074C21.1875 10.9993 21.245 11.0485 21.2531 11.1141C21.2613 11.1797 21.2203 11.2372 21.1547 11.2454L20.4 11.3356C20.3426 11.3438 20.277 11.2946 20.2688 11.2289Z"
            fill="#F3F3F3"
        />

        <path
            d="M20.2606 11.2289C20.2524 11.1551 20.3016 11.0895 20.3672 11.0812L21.1218 10.9911C21.1874 10.9829 21.2531 11.0321 21.2613 11.1059C21.2695 11.1797 21.2203 11.2453 21.1547 11.2536L20.4 11.3437C20.3344 11.3519 20.2687 11.3028 20.2606 11.2289ZM21.2531 11.1141C21.245 11.0567 21.1875 11.0074 21.13 11.0156L20.3754 11.1059C20.318 11.1141 20.2769 11.1715 20.2852 11.2289C20.2934 11.2863 20.3508 11.3356 20.4082 11.3274L21.1629 11.2371C21.2203 11.2289 21.2612 11.1715 21.2531 11.1141Z"
            fill="white"
        />

        <path
            d="M19.3502 12.0246C19.3502 11.959 19.3993 11.9016 19.465 11.9016H21.1795C21.2451 11.9016 21.2943 11.959 21.2943 12.0246C21.2943 12.0903 21.2451 12.1477 21.1795 12.1477H19.465C19.3994 12.1477 19.3502 12.0903 19.3502 12.0246Z"
            fill="#F3F3F3"
        />

        <path
            d="M19.3419 12.0246C19.3419 11.9508 19.3993 11.8934 19.465 11.8934H21.1794C21.2451 11.8934 21.3025 11.9508 21.3025 12.0246C21.3025 12.0985 21.2451 12.1559 21.1794 12.1559H19.465C19.3993 12.1559 19.3419 12.0985 19.3419 12.0246ZM21.286 12.0329C21.286 11.9755 21.2368 11.918 21.1793 11.918H19.4651C19.4076 11.918 19.3584 11.9672 19.3584 12.0329C19.3584 12.0903 19.4076 12.1477 19.465 12.1477H21.1795C21.2369 12.1395 21.286 12.0903 21.286 12.0329Z"
            fill="white"
        />

        <path
            d="M20.2606 12.8531C20.2687 12.7875 20.318 12.7383 20.3836 12.7383L21.1465 12.7957C21.2121 12.8039 21.2613 12.8613 21.2531 12.927C21.2449 12.9926 21.1957 13.0418 21.13 13.0418L20.3672 12.9844C20.3098 12.9762 20.2606 12.9187 20.2606 12.8531Z"
            fill="#F3F3F3"
        />

        <path
            d="M20.2524 12.8532C20.2606 12.7793 20.3181 12.7301 20.3837 12.7301L21.1467 12.7875C21.2122 12.7957 21.2697 12.8532 21.2615 12.927C21.2533 13.0008 21.1958 13.05 21.1302 13.05L20.3673 12.9926C20.3016 12.9844 20.2524 12.9188 20.2524 12.8532ZM21.2531 12.927C21.2612 12.8696 21.2122 12.8122 21.1548 12.8122L20.3918 12.7548C20.3345 12.7548 20.2852 12.7957 20.277 12.8615C20.2689 12.9188 20.3181 12.9762 20.3755 12.9762L21.1385 13.0336C21.1958 13.0336 21.2449 12.9845 21.2531 12.927Z"
            fill="white"
        />

        <path
            d="M19.2025 13.452C19.2189 13.3863 19.2763 13.3453 19.342 13.3536L21.0236 13.6899C21.0892 13.7063 21.1303 13.7637 21.1139 13.8293C21.0974 13.8949 21.04 13.936 20.9744 13.9278L19.2927 13.5914C19.2353 13.5832 19.1943 13.5176 19.2025 13.452Z"
            fill="#F3F3F3"
        />

        <path
            d="M19.1941 13.452C19.2105 13.3781 19.2761 13.3371 19.3418 13.3453L21.0235 13.6817C21.0891 13.698 21.1383 13.7636 21.1219 13.8375C21.1055 13.9113 21.0399 13.9524 20.9743 13.9441L19.2925 13.6078C19.2268 13.5914 19.1859 13.5257 19.1941 13.452ZM21.1055 13.8375C21.1138 13.7801 21.081 13.7226 21.0235 13.7062L19.3417 13.3699C19.2843 13.3618 19.2268 13.3946 19.2104 13.4602C19.2023 13.5176 19.2352 13.575 19.2927 13.5914L20.9744 13.9278C21.04 13.936 21.0891 13.8949 21.1055 13.8375Z"
            fill="white"
        />

        <path
            d="M19.9407 14.4363C19.9444 14.4207 19.9512 14.406 19.9607 14.393C19.9702 14.38 19.9821 14.369 19.9958 14.3607C20.0095 14.3523 20.0247 14.3467 20.0406 14.3442C20.0564 14.3417 20.0727 14.3424 20.0883 14.3462L20.8266 14.5512C20.8922 14.5676 20.9249 14.6333 20.9086 14.6989C20.9048 14.7145 20.898 14.7292 20.8886 14.7422C20.8791 14.7552 20.8672 14.7662 20.8535 14.7746C20.8398 14.783 20.8245 14.7886 20.8087 14.7911C20.7928 14.7936 20.7766 14.7929 20.7609 14.7891L20.0226 14.584C19.957 14.5676 19.9243 14.502 19.9407 14.4363Z"
            fill="#F3F3F3"
        />

        <path
            d="M19.9325 14.4363C19.9489 14.3707 20.0226 14.3215 20.0883 14.3462L20.8266 14.5512C20.8922 14.5676 20.9334 14.6414 20.9169 14.707C20.9005 14.7726 20.8267 14.8218 20.761 14.7973L20.0228 14.5922C19.9571 14.5758 19.916 14.5101 19.9325 14.4363ZM20.8923 14.707C20.9087 14.6496 20.8759 14.584 20.8185 14.5676L20.0802 14.3625C20.0228 14.3461 19.9654 14.3789 19.9489 14.4446C19.9326 14.502 19.9652 14.5676 20.0226 14.584L20.7609 14.7891C20.8183 14.7974 20.8759 14.7645 20.8923 14.707Z"
            fill="white"
        />

        <path
            d="M18.784 14.8301C18.8086 14.7645 18.8825 14.7398 18.9398 14.7645L20.5231 15.4207C20.5805 15.4452 20.6132 15.5192 20.5887 15.5765C20.564 15.6422 20.4902 15.6668 20.4328 15.6422L18.8496 14.986C18.784 14.9614 18.7594 14.8874 18.784 14.8301Z"
            fill="#F3F3F3"
        />

        <path
            d="M18.7758 14.8219C18.7878 14.7904 18.8118 14.7649 18.8426 14.7511C18.8733 14.7372 18.9083 14.7361 18.9399 14.7481L20.523 15.4043C20.5887 15.429 20.6132 15.5027 20.5887 15.5765C20.5767 15.608 20.5526 15.6336 20.5219 15.6475C20.4911 15.6613 20.4561 15.6624 20.4246 15.6505L18.8414 14.9942C18.7758 14.9614 18.7512 14.8875 18.7758 14.8219ZM20.5722 15.5684C20.5968 15.511 20.5722 15.4454 20.5148 15.4208L18.9317 14.7645C18.8742 14.7399 18.8168 14.7727 18.7922 14.8301C18.7676 14.8875 18.7922 14.9531 18.8496 14.9778L20.4328 15.6341C20.4902 15.6505 20.5558 15.6259 20.5722 15.5684Z"
            fill="white"
        />

        <path
            d="M19.3172 15.9375C19.35 15.8801 19.4156 15.8555 19.473 15.8801L20.1538 16.2247C20.2112 16.2492 20.2358 16.3231 20.203 16.3887C20.1702 16.4461 20.1046 16.4709 20.0472 16.4461L19.3665 16.1016C19.309 16.0688 19.2843 15.9949 19.3172 15.9375Z"
            fill="#F3F3F3"
        />

        <path
            d="M19.3089 15.9293C19.3418 15.8637 19.4156 15.8391 19.4812 15.8719L20.1621 16.2165C20.2277 16.2493 20.2523 16.3231 20.2195 16.3887C20.1867 16.4543 20.1127 16.479 20.0472 16.4461L19.3665 16.1016C19.3008 16.0771 19.2761 15.9949 19.3089 15.9293ZM20.1949 16.3805C20.2195 16.3231 20.203 16.2574 20.1456 16.2329L19.4648 15.8883C19.4155 15.8638 19.35 15.8883 19.3172 15.9375C19.2926 15.9949 19.3089 16.0606 19.3663 16.0852L20.0472 16.4298C20.1046 16.4543 20.1703 16.438 20.1949 16.3805Z"
            fill="white"
        />

        <path
            d="M18.1113 16.0934C18.1524 16.036 18.218 16.0196 18.2754 16.0605L19.7027 17.0121C19.7602 17.0449 19.7684 17.1188 19.7356 17.1762C19.6945 17.2337 19.6289 17.25 19.5715 17.209L18.1441 16.2574C18.0867 16.2164 18.0703 16.1426 18.1113 16.0934Z"
            fill="#F3F3F3"
        />

        <path
            d="M18.1031 16.0852C18.1442 16.0278 18.2262 16.0113 18.2836 16.0442L19.711 16.9957C19.7684 17.0367 19.7849 17.1105 19.7438 17.1761C19.7028 17.2336 19.6207 17.25 19.5634 17.2172L18.1359 16.2656C18.0703 16.2246 18.0621 16.1426 18.1031 16.0852ZM19.7192 17.1679C19.752 17.1188 19.7438 17.0449 19.6947 17.0121L18.2672 16.0605C18.218 16.0278 18.1524 16.0442 18.1195 16.0934C18.0867 16.1426 18.095 16.2164 18.1441 16.2492L19.5715 17.2008C19.6207 17.2336 19.6864 17.2171 19.7192 17.1679Z"
            fill="white"
        />

        <path
            d="M18.4149 17.2829C18.4559 17.2336 18.5297 17.2172 18.5789 17.2583L19.1777 17.7258C19.2269 17.7668 19.2352 17.8406 19.1942 17.8899C19.1532 17.939 19.0793 17.9556 19.0301 17.9145L18.4312 17.4469C18.3821 17.4059 18.3738 17.3321 18.4149 17.2829Z"
            fill="#F3F3F3"
        />

        <path
            d="M18.4067 17.2746C18.4477 17.2172 18.5297 17.209 18.5871 17.2501L19.1859 17.7176C19.2433 17.7586 19.2516 17.8406 19.2105 17.8981C19.1695 17.9556 19.0875 17.9637 19.0301 17.9227L18.4312 17.4551C18.3738 17.4141 18.3657 17.3321 18.4067 17.2746ZM19.1942 17.8899C19.2352 17.8406 19.2269 17.775 19.1777 17.734L18.5789 17.2664C18.5297 17.2337 18.4641 17.2419 18.4231 17.291C18.382 17.3403 18.3903 17.4059 18.4394 17.4469L19.0383 17.9145C19.0875 17.9473 19.1532 17.939 19.1942 17.8899Z"
            fill="white"
        />

        <path
            d="M17.1926 17.2008C17.2419 17.1516 17.3157 17.1516 17.3567 17.2008L18.5707 18.4066C18.62 18.4559 18.6118 18.5297 18.5707 18.5707C18.5216 18.6199 18.4477 18.6199 18.4067 18.5707L17.1926 17.3649C17.1516 17.3238 17.1516 17.2418 17.1926 17.2008Z"
            fill="#F3F3F3"
        />

        <path
            d="M17.1925 17.1926C17.2166 17.1689 17.249 17.1556 17.2828 17.1556C17.3166 17.1556 17.349 17.1689 17.3731 17.1926L18.5871 18.3984C18.6108 18.4224 18.6241 18.4549 18.6241 18.4886C18.6241 18.5224 18.6108 18.5548 18.5871 18.5789C18.5631 18.6025 18.5307 18.6158 18.4969 18.6158C18.4632 18.6158 18.4308 18.6025 18.4067 18.5789L17.1925 17.3731C17.1351 17.3238 17.1351 17.2419 17.1925 17.1926ZM18.5707 18.5625C18.6118 18.5215 18.6118 18.4476 18.5707 18.4066L17.3567 17.2008C17.3157 17.1598 17.2418 17.1598 17.2008 17.2008C17.1598 17.2418 17.1598 17.3156 17.2008 17.3566L18.4149 18.5625C18.4559 18.6117 18.5216 18.6117 18.5707 18.5625Z"
            fill="white"
        />

        <path
            d="M17.2664 18.423C17.3157 18.3821 17.3894 18.3821 17.4305 18.4313L17.931 19.0055C17.9719 19.0548 17.9637 19.1286 17.9144 19.1696C17.8653 19.2106 17.7914 19.2106 17.7504 19.1614L17.25 18.5872C17.209 18.5462 17.2172 18.4723 17.2664 18.423Z"
            fill="#F3F3F3"
        />

        <path
            d="M17.2583 18.423C17.3157 18.3739 17.3895 18.3821 17.4386 18.4313L17.9391 19.0055C17.9883 19.0547 17.9801 19.1367 17.9227 19.186C17.8653 19.2352 17.7914 19.227 17.7422 19.1778L17.2418 18.6036C17.2008 18.5462 17.2009 18.4641 17.2583 18.423ZM17.9144 19.1696C17.9636 19.1286 17.9636 19.0629 17.9309 19.0138L17.4304 18.4395C17.3894 18.3985 17.3238 18.3903 17.2746 18.4313C17.2254 18.4723 17.2254 18.538 17.2582 18.5871L17.7586 19.1613C17.7996 19.2105 17.8653 19.2106 17.9144 19.1696Z"
            fill="white"
        />

        <path
            d="M16.0852 18.1113C16.1426 18.0704 16.2164 18.0868 16.2493 18.1442L17.2008 19.5633C17.2337 19.6207 17.2172 19.6945 17.168 19.7274C17.1106 19.7684 17.0368 19.7519 17.0039 19.6945L16.0523 18.2754C16.0195 18.218 16.036 18.1441 16.0852 18.1113Z"
            fill="#F3F3F3"
        />

        <path
            d="M16.0852 18.1031C16.1426 18.0621 16.2246 18.0786 16.2656 18.136L17.2171 19.5551C17.2581 19.6124 17.2417 19.6945 17.1762 19.7354C17.1187 19.7765 17.0367 19.7601 16.9956 19.7027L16.0442 18.2836C16.0032 18.218 16.0196 18.1441 16.0852 18.1031ZM17.168 19.7191C17.2171 19.6862 17.2336 19.6206 17.2007 19.5714L16.2493 18.1523C16.2164 18.1032 16.1508 18.0949 16.0935 18.1278C16.0442 18.1605 16.0278 18.2262 16.0606 18.2754L17.0121 19.6945C17.0449 19.7354 17.1188 19.7519 17.168 19.7191Z"
            fill="white"
        />

        <path
            d="M15.9129 19.3253C15.9703 19.2926 16.0442 19.309 16.0769 19.3664L16.4543 20.0309C16.4871 20.0883 16.4625 20.1621 16.405 20.1949C16.3476 20.2278 16.2738 20.2113 16.241 20.1539L15.8637 19.4895C15.8391 19.432 15.8556 19.3581 15.9129 19.3253Z"
            fill="#F3F3F3"
        />

        <path
            d="M15.9129 19.3172C15.9785 19.2844 16.0524 19.3008 16.0851 19.3582L16.4625 20.0228C16.4953 20.0802 16.4789 20.1622 16.4134 20.195C16.3476 20.2279 16.2738 20.2113 16.241 20.1539L15.8637 19.4895C15.8309 19.432 15.8474 19.3582 15.9129 19.3172ZM16.4051 20.1869C16.4543 20.154 16.4789 20.0884 16.4461 20.0392L16.0688 19.3747C16.0359 19.3255 15.9703 19.309 15.9211 19.3336C15.8718 19.3664 15.8473 19.4321 15.8801 19.4813L16.2575 20.1458C16.282 20.195 16.3559 20.2197 16.4051 20.1869Z"
            fill="white"
        />

        <path
            d="M14.822 18.784C14.8876 18.7595 14.9532 18.784 14.9779 18.8414L15.6423 20.4246C15.6669 20.482 15.6341 20.5559 15.5767 20.5804C15.5193 20.6051 15.4455 20.5804 15.4209 20.523L14.7564 18.9399C14.7318 18.8824 14.7646 18.8087 14.822 18.784Z"
            fill="#F3F3F3"
        />

        <path
            d="M14.8218 18.7758C14.8875 18.7512 14.9613 18.7758 14.9941 18.8414L15.6586 20.4246C15.6705 20.4562 15.6694 20.4912 15.6555 20.5219C15.6417 20.5526 15.6162 20.5766 15.5847 20.5887C15.5191 20.6133 15.4453 20.5887 15.4125 20.523L14.7481 18.9399C14.7234 18.8824 14.7563 18.8087 14.8218 18.7758ZM15.5683 20.5723C15.6257 20.5477 15.6504 20.4821 15.6257 20.4329L14.9613 18.8496C14.9367 18.7922 14.8711 18.7676 14.8137 18.7922C14.7563 18.8168 14.7316 18.8824 14.7563 18.9317L15.4206 20.5149C15.4535 20.5723 15.5109 20.5969 15.5683 20.5723Z"
            fill="white"
        />

        <path
            d="M14.4199 19.9488C14.4856 19.9243 14.5511 19.9571 14.5758 20.0227L14.8137 20.7446C14.8383 20.802 14.7973 20.8758 14.7399 20.8923C14.6743 20.9168 14.6086 20.884 14.5841 20.8184L14.3461 20.0965C14.3216 20.0391 14.3543 19.9735 14.4199 19.9488Z"
            fill="#F3F3F3"
        />

        <path
            d="M14.4119 19.9407C14.4434 19.9288 14.4784 19.9299 14.5091 19.9438C14.5399 19.9576 14.5639 19.9831 14.5759 20.0146L14.8139 20.7364C14.8385 20.802 14.7975 20.8759 14.7317 20.9005C14.7002 20.9124 14.6652 20.9113 14.6345 20.8975C14.6037 20.8836 14.5797 20.8582 14.5677 20.8267L14.3298 20.1048C14.3134 20.0392 14.3462 19.9654 14.4119 19.9407ZM14.7318 20.884C14.7892 20.8676 14.822 20.802 14.8057 20.7446L14.5677 20.0228C14.5514 19.9654 14.4857 19.9407 14.4283 19.9572C14.3708 19.9736 14.338 20.0392 14.3545 20.0966L14.5923 20.8184C14.5965 20.8324 14.6036 20.8453 14.6131 20.8563C14.6226 20.8673 14.6343 20.8762 14.6474 20.8824C14.6606 20.8886 14.6749 20.8919 14.6895 20.8922C14.704 20.8925 14.7184 20.8896 14.7318 20.884Z"
            fill="white"
        />

        <path
            d="M13.452 19.2024C13.5176 19.186 13.5833 19.227 13.5914 19.2926L13.936 20.9743C13.9524 21.0399 13.9032 21.0974 13.8375 21.1137C13.772 21.1302 13.7063 21.0892 13.6981 21.0235L13.3534 19.3418C13.3453 19.2844 13.3864 19.2188 13.452 19.2024Z"
            fill="#F3F3F3"
        />

        <path
            d="M13.4521 19.194C13.5258 19.1777 13.5914 19.2269 13.6078 19.2925L13.9523 20.9743C13.9688 21.0399 13.9195 21.1137 13.8539 21.1219C13.7801 21.1384 13.7145 21.0892 13.6981 21.0235L13.3534 19.3418C13.3371 19.2762 13.3783 19.2104 13.4521 19.194ZM13.8375 21.1055C13.8949 21.0974 13.9359 21.0399 13.9277 20.9743L13.5832 19.2925C13.5751 19.2351 13.5095 19.1941 13.452 19.2104C13.3946 19.2187 13.3536 19.2761 13.3618 19.3417L13.7063 21.0235C13.7226 21.081 13.78 21.1136 13.8375 21.1055Z"
            fill="white"
        />

        <path
            d="M12.8286 20.2688C12.8942 20.2605 12.9516 20.3016 12.9681 20.3672L13.0665 21.1218C13.0747 21.1875 13.0255 21.2449 12.9598 21.2531C12.8942 21.2613 12.8368 21.2203 12.8204 21.1547L12.722 20.4C12.7138 20.3344 12.763 20.277 12.8286 20.2688Z"
            fill="#F3F3F3"
        />

        <path
            d="M12.8285 20.2605C12.9023 20.2524 12.968 20.3016 12.9762 20.3672L13.0746 21.1219C13.0829 21.1875 13.0336 21.2532 12.9598 21.2614C12.8859 21.2696 12.8202 21.2204 12.812 21.1547L12.7136 20.4C12.7054 20.3344 12.7546 20.2688 12.8285 20.2605ZM12.9516 21.245C13.009 21.2368 13.0583 21.1793 13.0501 21.1219L12.9516 20.3672C12.9433 20.3098 12.8859 20.2688 12.8285 20.277C12.771 20.2852 12.7217 20.3426 12.7299 20.4L12.8285 21.1548C12.8367 21.2122 12.8941 21.2532 12.9516 21.245Z"
            fill="white"
        />

        <path
            d="M11.9836 19.3499C12.0493 19.3499 12.1067 19.3992 12.1067 19.4648V21.1792C12.1067 21.2449 12.0493 21.2942 11.9836 21.2942C11.918 21.2942 11.8606 21.2449 11.8606 21.1792V19.4648C11.8688 19.3992 11.918 19.3499 11.9836 19.3499Z"
            fill="#F3F3F3"
        />

        <path
            d="M11.9836 19.3417C12.0575 19.3417 12.1149 19.3991 12.1149 19.4647V21.1792C12.1149 21.2448 12.0575 21.3022 11.9836 21.3022C11.9098 21.3022 11.8524 21.2448 11.8524 21.1792V19.4648C11.8524 19.3992 11.918 19.3417 11.9836 19.3417ZM11.9836 21.2859C12.041 21.2859 12.0984 21.2367 12.0984 21.1792V19.4648C12.0984 19.4073 12.0492 19.3581 11.9836 19.3581C11.9262 19.3581 11.8688 19.4073 11.8688 19.4648V21.1792C11.8769 21.2367 11.9262 21.2859 11.9836 21.2859Z"
            fill="white"
        />

        <path
            d="M11.1633 20.2687C11.2289 20.277 11.2781 20.3262 11.2781 20.3918L11.2207 21.1547C11.2126 21.2203 11.1551 21.2695 11.0895 21.2614C11.0239 21.2531 10.9747 21.2039 10.9747 21.1383L11.0321 20.3754C11.0403 20.3098 11.0977 20.2605 11.1633 20.2687Z"
            fill="#F3F3F3"
        />

        <path
            d="M11.1633 20.2605C11.2371 20.2688 11.2863 20.3262 11.2863 20.3918L11.2289 21.1548C11.2207 21.2204 11.1633 21.2778 11.0895 21.2696C11.0157 21.2614 10.9664 21.204 10.9664 21.1383L11.0238 20.3754C11.032 20.3016 11.0895 20.2524 11.1633 20.2605ZM11.0895 21.2532C11.1469 21.2532 11.2044 21.2122 11.2044 21.1548L11.2618 20.3918C11.2618 20.3344 11.2207 20.2852 11.1551 20.277C11.0977 20.277 11.0403 20.318 11.0403 20.3755L10.9828 21.1383C10.9828 21.1958 11.032 21.245 11.0895 21.2532Z"
            fill="white"
        />

        <path
            d="M10.548 19.2023C10.6137 19.2186 10.6546 19.2761 10.6464 19.3417L10.3101 21.0235C10.2937 21.0892 10.2363 21.1302 10.1706 21.1137C10.105 21.0974 10.064 21.04 10.0723 20.9742L10.4086 19.2925C10.4168 19.2351 10.4824 19.1941 10.548 19.2023Z"
            fill="#F3F3F3"
        />

        <path
            d="M10.5482 19.194C10.6219 19.2104 10.663 19.2762 10.6548 19.3417L10.3185 21.0235C10.302 21.0891 10.2364 21.1383 10.1626 21.1219C10.0888 21.1054 10.0477 21.0398 10.056 20.9742L10.3923 19.2925C10.4087 19.2269 10.4744 19.1857 10.5482 19.194ZM10.1626 21.1054C10.2201 21.1136 10.2775 21.0809 10.2939 21.0235L10.6302 19.3417C10.6384 19.2843 10.6056 19.2269 10.54 19.2104C10.4826 19.2023 10.425 19.235 10.4086 19.2925L10.0723 20.9742C10.064 21.0399 10.1052 21.0891 10.1626 21.1054Z"
            fill="white"
        />

        <path
            d="M9.56376 19.9407C9.62947 19.9572 9.67046 20.0228 9.65403 20.0884L9.44894 20.8266C9.4326 20.8922 9.36697 20.925 9.30135 20.9087C9.28572 20.9049 9.27098 20.8981 9.25798 20.8886C9.24498 20.8792 9.23397 20.8673 9.22559 20.8535C9.2172 20.8398 9.21161 20.8246 9.20912 20.8087C9.20663 20.7928 9.20729 20.7766 9.21108 20.761L9.41617 20.0228C9.4326 19.9572 9.49814 19.9244 9.56376 19.9407Z"
            fill="#F3F3F3"
        />

        <path
            d="M9.56369 19.9326C9.6294 19.9489 9.67867 20.0228 9.65403 20.0884L9.44894 20.8266C9.4326 20.8922 9.35869 20.9334 9.29307 20.9169C9.22745 20.9005 9.17825 20.8267 9.20281 20.7611L9.40789 20.0228C9.42432 19.9571 9.48994 19.9162 9.56369 19.9326ZM9.29307 20.8923C9.35048 20.9087 9.4161 20.8759 9.43253 20.8185L9.63753 20.0802C9.65395 20.0228 9.62119 19.9654 9.55556 19.9489C9.49815 19.9325 9.4326 19.9654 9.41617 20.0228L9.21108 20.761C9.20287 20.8184 9.23558 20.8759 9.29307 20.8923Z"
            fill="white"
        />

        <path
            d="M9.16167 18.784C9.2273 18.8086 9.25185 18.8824 9.2273 18.9398L8.57107 20.5231C8.54651 20.5806 8.47259 20.6133 8.41526 20.5806C8.35777 20.5477 8.32491 20.4821 8.34956 20.4247L9.00579 18.8414C9.03034 18.784 9.10435 18.7512 9.16167 18.784Z"
            fill="#F3F3F3"
        />

        <path
            d="M9.16166 18.7758C9.19318 18.7878 9.21866 18.8118 9.2325 18.8426C9.24634 18.8734 9.24742 18.9083 9.2355 18.9399L8.57924 20.523C8.5546 20.5886 8.48076 20.6133 8.40692 20.5886C8.37542 20.5766 8.34996 20.5526 8.33612 20.5219C8.32228 20.4911 8.32119 20.4562 8.33308 20.4246L8.98934 18.8414C9.0222 18.7758 9.09604 18.743 9.16166 18.7758ZM8.41513 20.5723C8.47255 20.5969 8.53817 20.5723 8.56281 20.5149L9.21908 18.9317C9.24363 18.8743 9.21086 18.8168 9.15345 18.7922C9.09604 18.7677 9.03041 18.7922 9.00577 18.8496L8.34951 20.4328C8.33308 20.482 8.35772 20.5477 8.41513 20.5723Z"
            fill="white"
        />

        <path
            d="M8.05434 19.3091C8.11175 19.3419 8.1363 19.4075 8.11175 19.4649L7.7672 20.1457C7.73435 20.2031 7.66872 20.2277 7.6031 20.1948C7.54569 20.1621 7.52113 20.0965 7.54569 20.0391L7.89032 19.3584C7.92309 19.3009 7.98871 19.2763 8.05434 19.3091Z"
            fill="#F3F3F3"
        />

        <path
            d="M8.05444 19.3008C8.12006 19.3336 8.14462 19.4075 8.11185 19.473L7.7673 20.1539C7.73444 20.2195 7.6606 20.2441 7.59507 20.2113C7.52944 20.1785 7.5048 20.1046 7.53765 20.0391L7.88212 19.3583C7.91497 19.2926 7.98881 19.2681 8.05444 19.3008ZM7.6031 20.1948C7.66051 20.2194 7.72631 20.2031 7.75087 20.1457L8.09542 19.4649C8.11998 19.4156 8.09542 19.35 8.04622 19.3173C7.98881 19.2927 7.92319 19.309 7.89855 19.3664L7.554 20.0472C7.52944 20.0965 7.55382 20.1621 7.6031 20.1948Z"
            fill="white"
        />

        <path
            d="M7.8902 18.095C7.94761 18.136 7.96404 18.2098 7.92305 18.259L6.97146 19.6783C6.93869 19.7357 6.86476 19.7439 6.80744 19.7111C6.75003 19.67 6.7336 19.5963 6.77458 19.547L7.72618 18.1277C7.75895 18.0704 7.83279 18.054 7.8902 18.095Z"
            fill="#F3F3F3"
        />

        <path
            d="M7.89026 18.0867C7.94767 18.1278 7.9641 18.2098 7.93124 18.2672L6.9797 19.6865C6.93871 19.7438 6.86487 19.7602 6.79924 19.7192C6.74183 19.6782 6.7254 19.5962 6.75817 19.5387L7.70981 18.1196C7.75079 18.0621 7.83285 18.0457 7.89026 18.0867ZM6.80746 19.7028C6.85657 19.7356 6.9305 19.7274 6.96327 19.6782L7.9149 18.259C7.94767 18.2098 7.93133 18.1442 7.88205 18.1113C7.83285 18.0786 7.75901 18.0868 7.72623 18.1359L6.77458 19.547C6.74181 19.5963 6.75817 19.67 6.80746 19.7028Z"
            fill="white"
        />

        <path
            d="M6.69258 18.3985C6.74186 18.4395 6.7582 18.5133 6.71722 18.5625L6.24143 19.1613C6.20044 19.2105 6.12661 19.2187 6.07741 19.1777C6.02821 19.1368 6.01178 19.0629 6.05285 19.0136L6.52856 18.4148C6.56955 18.3657 6.64338 18.3574 6.69258 18.3985Z"
            fill="#F3F3F3"
        />

        <path
            d="M6.7008 18.3903C6.75821 18.4313 6.76643 18.5133 6.72536 18.5707L6.24963 19.1696C6.20865 19.227 6.1266 19.2352 6.06918 19.186C6.01177 19.1449 6.00356 19.063 6.04463 19.0055L6.52035 18.4067C6.56134 18.3492 6.64339 18.3411 6.7008 18.3903ZM6.08561 19.1696C6.13472 19.2106 6.20043 19.2024 6.24142 19.1532L6.71723 18.5543C6.75008 18.5052 6.74169 18.4395 6.69258 18.3985C6.6433 18.3574 6.57776 18.3656 6.53678 18.4149L6.06097 19.0137C6.0282 19.063 6.0365 19.1367 6.08561 19.1696Z"
            fill="white"
        />

        <path
            d="M6.77458 17.168C6.82377 17.2172 6.82377 17.2911 6.77458 17.3321L5.5606 18.5379C5.51132 18.5872 5.43756 18.5789 5.3965 18.5379C5.35551 18.4969 5.3473 18.4148 5.3965 18.3738L6.60226 17.168C6.65155 17.1188 6.72538 17.1188 6.77458 17.168Z"
            fill="#F3F3F3"
        />

        <path
            d="M6.78282 17.1598C6.80646 17.1839 6.8197 17.2163 6.8197 17.25C6.8197 17.2838 6.80646 17.3161 6.78282 17.3402L5.56876 18.5462C5.54469 18.5698 5.51231 18.5831 5.47858 18.5831C5.44485 18.5831 5.41246 18.5698 5.3884 18.5462C5.36471 18.5221 5.35144 18.4897 5.35144 18.4559C5.35144 18.4222 5.36471 18.3897 5.3884 18.3657L6.60238 17.1598C6.62645 17.1362 6.65885 17.1229 6.6926 17.1229C6.72635 17.1229 6.75875 17.1362 6.78282 17.1598ZM5.3965 18.5379C5.43748 18.5789 5.51135 18.5789 5.55233 18.5379L6.76639 17.332C6.80746 17.291 6.80746 17.2172 6.76639 17.1762C6.72541 17.1351 6.65158 17.1351 6.61059 17.1762L5.39653 18.382C5.35554 18.423 5.35551 18.4888 5.3965 18.5379Z"
            fill="white"
        />

        <path
            d="M5.54415 17.2337C5.58514 17.2828 5.58514 17.3567 5.53594 17.3977L4.95353 17.89C4.90433 17.931 4.83049 17.9228 4.78942 17.8736C4.74844 17.8243 4.74844 17.7505 4.79764 17.7094L5.38005 17.2172C5.42933 17.1762 5.50309 17.1844 5.54415 17.2337Z"
            fill="#F3F3F3"
        />

        <path
            d="M5.5523 17.2254C5.6015 17.2829 5.59329 17.3648 5.54409 17.4059L4.96168 17.898C4.91248 17.9473 4.83042 17.9391 4.78123 17.8817C4.73194 17.8242 4.74016 17.7422 4.78936 17.7011L5.37186 17.209C5.42097 17.1598 5.50319 17.168 5.5523 17.2254ZM4.79757 17.8734C4.83864 17.9226 4.90442 17.9227 4.95353 17.89L5.53594 17.3977C5.57693 17.3567 5.58507 17.291 5.54409 17.2419C5.50302 17.1926 5.4374 17.1926 5.38828 17.2254L4.80578 17.7176C4.75659 17.7585 4.75659 17.8243 4.79757 17.8734Z"
            fill="white"
        />

        <path
            d="M5.87239 16.0523C5.91337 16.1098 5.89695 16.1836 5.83954 16.2164L4.41222 17.168C4.35481 17.2007 4.28098 17.1843 4.24821 17.1351C4.20714 17.0777 4.22356 17.0039 4.28098 16.971L5.70837 16.0195C5.75765 15.9868 5.83132 16.0031 5.87239 16.0523Z"
            fill="#F3F3F3"
        />

        <path
            d="M5.88049 16.0523C5.92147 16.1098 5.90504 16.1918 5.84763 16.2329L4.42034 17.1844C4.36293 17.2254 4.28088 17.2089 4.2399 17.1434C4.19883 17.086 4.21534 17.0039 4.27267 16.9629L5.70004 16.0113C5.75745 15.9704 5.8395 15.9868 5.88049 16.0523ZM4.25632 17.1269C4.28909 17.1761 4.35472 17.1926 4.40391 17.1598L5.83121 16.2082C5.88049 16.1754 5.89683 16.1098 5.85585 16.0524C5.82308 16.0031 5.75765 15.9868 5.70837 16.0195L4.28098 16.971C4.23178 17.012 4.22347 17.0777 4.25632 17.1269Z"
            fill="white"
        />

        <path
            d="M4.65005 15.8801C4.68291 15.9375 4.66648 16.0113 4.60907 16.0442L3.9446 16.4215C3.88718 16.4542 3.81334 16.4297 3.78057 16.3723C3.74772 16.3149 3.76415 16.241 3.82156 16.2082L4.48603 15.8309C4.54344 15.798 4.6172 15.8227 4.65005 15.8801Z"
            fill="#F3F3F3"
        />

        <path
            d="M4.65833 15.8719C4.6911 15.9375 4.67467 16.0113 4.61726 16.0442L3.9528 16.4215C3.89539 16.4542 3.81334 16.4297 3.78057 16.3723C3.74772 16.3067 3.76415 16.2328 3.82156 16.2L4.48601 15.8227C4.54342 15.7898 4.62556 15.8145 4.65833 15.8719ZM3.7887 16.3641C3.82156 16.4215 3.88718 16.4379 3.93638 16.405L4.60083 16.0278C4.65003 15.9949 4.66646 15.9293 4.6419 15.8801C4.60905 15.8227 4.54342 15.8063 4.49423 15.8391L3.82977 16.2164C3.78057 16.241 3.76406 16.3067 3.7887 16.3641Z"
            fill="white"
        />

        <path
            d="M5.19955 14.7891C5.2241 14.8547 5.19955 14.9204 5.13392 14.9449L3.55071 15.6012C3.4933 15.6258 3.41946 15.593 3.3949 15.5356C3.37026 15.4699 3.3949 15.4043 3.46053 15.3797L5.04374 14.7235C5.10115 14.6989 5.17499 14.7235 5.19955 14.7891Z"
            fill="#F3F3F3"
        />

        <path
            d="M5.20776 14.7809C5.23232 14.8465 5.20776 14.9204 5.14214 14.9532L3.55892 15.6094C3.52738 15.6213 3.4924 15.6202 3.46166 15.6064C3.43092 15.5925 3.40692 15.5671 3.3949 15.5356C3.37026 15.4699 3.3949 15.3961 3.46053 15.3633L5.04374 14.7071C5.07529 14.6952 5.11026 14.6963 5.141 14.7101C5.17174 14.724 5.19575 14.7494 5.20776 14.7809ZM3.41125 15.5273C3.43589 15.5848 3.50151 15.6095 3.55071 15.593L5.13392 14.9367C5.19133 14.9122 5.21598 14.8465 5.19133 14.7891C5.16678 14.7317 5.10115 14.7071 5.05187 14.7235L3.46866 15.3798C3.41125 15.4043 3.38669 15.4698 3.41125 15.5273Z"
            fill="white"
        />

        <path
            d="M4.04301 14.3789C4.06756 14.4446 4.03479 14.5102 3.96917 14.5347L3.24729 14.7727C3.18988 14.7972 3.11604 14.7562 3.09961 14.6988C3.07505 14.6332 3.10782 14.5676 3.17345 14.543L3.89533 14.3051C3.95274 14.2805 4.01836 14.3133 4.04301 14.3789Z"
            fill="#F3F3F3"
        />

        <path
            d="M4.05102 14.3707C4.07566 14.4364 4.043 14.5101 3.96917 14.5347L3.24729 14.7727C3.18166 14.7972 3.10772 14.7563 3.08308 14.6907C3.05853 14.625 3.0913 14.5512 3.16522 14.5266L3.887 14.2887C3.95263 14.2723 4.02638 14.305 4.05102 14.3707ZM3.0996 14.6825C3.11602 14.74 3.18165 14.7728 3.23906 14.7564L3.96092 14.5184C4.01833 14.5021 4.04297 14.4364 4.02655 14.379C4.01012 14.3216 3.9445 14.2887 3.88709 14.3052L3.16522 14.5431C3.10781 14.5677 3.08317 14.6251 3.0996 14.6825Z"
            fill="white"
        />

        <path
            d="M4.78138 13.4028C4.79772 13.4684 4.75674 13.534 4.69111 13.5422L3.00943 13.8703C2.94381 13.8868 2.88639 13.8375 2.87005 13.7719C2.85362 13.7062 2.89461 13.6406 2.96023 13.6324L4.64192 13.3043C4.70754 13.2962 4.77325 13.3371 4.78138 13.4028Z"
            fill="#F3F3F3"
        />

        <path
            d="M4.79766 13.4028C4.81409 13.4766 4.76489 13.5423 4.69927 13.5586L3.01757 13.8867C2.95195 13.9031 2.88632 13.8539 2.86998 13.7801C2.85355 13.7063 2.90275 13.6406 2.96837 13.6243L4.65007 13.2962C4.71561 13.2798 4.78132 13.329 4.79766 13.4028ZM2.88632 13.772C2.89454 13.8293 2.95195 13.8704 3.00936 13.8622L4.69105 13.534C4.74846 13.5258 4.78945 13.4602 4.7731 13.4028C4.76489 13.3454 4.70748 13.3043 4.64998 13.3125L2.96837 13.6406C2.91096 13.6571 2.86998 13.7146 2.88632 13.772Z"
            fill="white"
        />

        <path
            d="M3.73136 12.7712C3.73949 12.8368 3.6985 12.8943 3.63288 12.9025L2.87823 12.9927C2.81252 13.0009 2.75511 12.9517 2.74698 12.886C2.73877 12.8204 2.77975 12.763 2.84538 12.7547L3.60011 12.6645C3.65752 12.6563 3.72315 12.7055 3.73136 12.7712Z"
            fill="#F3F3F3"
        />

        <path
            d="M3.73958 12.7712C3.74771 12.8449 3.69852 12.9105 3.63289 12.9187L2.87825 13.009C2.81254 13.0172 2.747 12.968 2.73878 12.8942C2.73057 12.8203 2.77977 12.7547 2.84539 12.7465L3.60012 12.6563C3.66566 12.6481 3.73145 12.6974 3.73958 12.7712ZM2.74698 12.886C2.7552 12.9434 2.81262 12.9926 2.87003 12.9843L3.62468 12.8942C3.68209 12.886 3.72316 12.8286 3.71494 12.7712C3.70673 12.7137 3.64932 12.6645 3.59191 12.6727L2.83718 12.7629C2.77977 12.7712 2.73886 12.8286 2.74698 12.886Z"
            fill="white"
        />

        <path
            d="M4.64995 11.9754C4.64995 12.0411 4.60083 12.0985 4.53512 12.0985H2.82075C2.75513 12.0985 2.70593 12.0411 2.70593 11.9755C2.70593 11.9098 2.75513 11.8523 2.82075 11.8523H4.53521C4.60083 11.8523 4.64995 11.9097 4.64995 11.9754Z"
            fill="#F3F3F3"
        />

        <path
            d="M4.65832 11.9753C4.65832 12.0493 4.60082 12.1066 4.5352 12.1066H2.82082C2.7552 12.1066 2.69778 12.0492 2.69778 11.9753C2.69778 11.9016 2.7552 11.8441 2.82082 11.8441H4.53528C4.60091 11.8441 4.65832 11.9016 4.65832 11.9753ZM2.71413 11.9672C2.71413 12.0246 2.76332 12.082 2.82082 12.082H4.5352C4.59261 12.082 4.64189 12.0328 4.64189 11.9672C4.64189 11.9098 4.59262 11.8523 4.53521 11.8523H2.82075C2.76334 11.8606 2.71413 11.9098 2.71413 11.9672Z"
            fill="white"
        />

        <path
            d="M3.73964 11.1469C3.73135 11.2125 3.68215 11.2617 3.61652 11.2617L2.85357 11.2043C2.78803 11.1961 2.73883 11.1387 2.74696 11.073C2.75517 11.0074 2.80445 10.9582 2.87008 10.9582L3.63295 11.0156C3.69036 11.0238 3.73964 11.0812 3.73964 11.1469Z"
            fill="#E2E2E2"
        />

        <path
            d="M3.7476 11.1469C3.73938 11.2207 3.68197 11.2699 3.61635 11.2699L2.85341 11.2125C2.78787 11.2043 2.73046 11.1469 2.73867 11.0731C2.7468 10.9993 2.80429 10.95 2.86992 10.95L3.63277 11.0074C3.6984 11.0156 3.7476 11.0813 3.7476 11.1469ZM2.74696 11.073C2.73883 11.1304 2.78787 11.188 2.84528 11.188L3.60822 11.2454C3.66554 11.2454 3.71483 11.2043 3.72304 11.1387C3.73125 11.0813 3.68197 11.0239 3.62456 11.0239L2.86162 10.9664C2.80429 10.9664 2.75517 11.0155 2.74696 11.073Z"
            fill="white"
        />

        <path
            d="M4.79759 10.548C4.78116 10.6136 4.72375 10.6547 4.65813 10.6465L2.97652 10.302C2.91089 10.2855 2.86982 10.2281 2.88625 10.1625C2.90268 10.0969 2.96009 10.0558 3.02572 10.0641L4.70741 10.4004C4.76482 10.4168 4.8058 10.4824 4.79759 10.548Z"
            fill="#F3F3F3"
        />

        <path
            d="M4.80589 10.548C4.78946 10.6219 4.72384 10.6629 4.65821 10.6547L2.97661 10.3184C2.91099 10.302 2.86179 10.2363 2.87822 10.1626C2.89456 10.0887 2.96019 10.0477 3.02581 10.0559L4.70749 10.3922C4.77312 10.4086 4.8141 10.4743 4.80589 10.548ZM2.89456 10.1625C2.88635 10.2199 2.91912 10.2773 2.97661 10.2937L4.6583 10.6301C4.71571 10.6383 4.77312 10.6055 4.78955 10.5398C4.79767 10.4824 4.7649 10.425 4.70741 10.4086L3.0259 10.0723C2.96027 10.0641 2.91099 10.1051 2.89456 10.1625Z"
            fill="white"
        />

        <path
            d="M4.05954 9.56375C4.05578 9.57938 4.04897 9.5941 4.03951 9.60709C4.03004 9.62008 4.01811 9.63108 4.0044 9.63945C3.99068 9.64783 3.97545 9.65342 3.95957 9.6559C3.94369 9.65839 3.92748 9.65772 3.91186 9.65393L3.17355 9.44885C3.10793 9.43243 3.07516 9.36681 3.0915 9.30118C3.09526 9.28556 3.10207 9.27084 3.11153 9.25785C3.121 9.24486 3.13293 9.23386 3.14664 9.22549C3.16036 9.21711 3.17559 9.21152 3.19147 9.20904C3.20735 9.20655 3.22356 9.20722 3.23918 9.21101L3.97749 9.41609C4.04311 9.43243 4.07589 9.49813 4.05954 9.56375Z"
            fill="#F3F3F3"
        />

        <path
            d="M4.06753 9.56374C4.05119 9.62927 3.97749 9.67857 3.91186 9.65393L3.17355 9.44885C3.10793 9.43243 3.06671 9.35858 3.08314 9.29304C3.09956 9.22733 3.1734 9.17814 3.23903 9.20278L3.97735 9.40785C4.04297 9.42428 4.08404 9.48999 4.06753 9.56374ZM3.10778 9.29287C3.09135 9.35036 3.12421 9.41598 3.18162 9.43232L3.91993 9.6374C3.97735 9.65383 4.03476 9.62097 4.05119 9.55535C4.06753 9.49795 4.0349 9.43243 3.97749 9.41609L3.23918 9.21101C3.18177 9.2028 3.12421 9.23538 3.10778 9.29287Z"
            fill="white"
        />

        <path
            d="M5.21599 9.16999C5.19143 9.23553 5.11751 9.26017 5.06018 9.23553L3.47688 8.5793C3.41947 8.55474 3.3867 8.4809 3.41126 8.42349C3.4359 8.35787 3.50974 8.33323 3.56715 8.35787L5.15036 9.0141C5.21599 9.03866 5.24063 9.11258 5.21599 9.16999Z"
            fill="#F3F3F3"
        />

        <path
            d="M5.22421 9.17813C5.2122 9.20965 5.18818 9.23512 5.15742 9.24896C5.12666 9.2628 5.09166 9.26388 5.0601 9.25197L3.47688 8.59573C3.41126 8.57117 3.3867 8.49733 3.41126 8.42349C3.42327 8.39197 3.44729 8.36651 3.47805 8.35267C3.50881 8.33883 3.5438 8.33774 3.57536 8.34966L5.15859 9.0059C5.22421 9.03867 5.24877 9.11259 5.22421 9.17813ZM3.42768 8.43171C3.40313 8.48912 3.42768 8.55475 3.48509 8.5793L5.06832 9.23554C5.12573 9.26018 5.18314 9.22733 5.20778 9.16992C5.23234 9.11251 5.20778 9.04688 5.15037 9.02233L3.56715 8.36609C3.50974 8.34966 3.44411 8.3743 3.42768 8.43171Z"
            fill="white"
        />

        <path
            d="M4.68289 8.06254C4.65012 8.11995 4.58449 8.14459 4.52708 8.11995L3.84619 7.77546C3.78878 7.75082 3.76414 7.67698 3.79699 7.61135C3.82976 7.55393 3.89539 7.52929 3.9528 7.55393L4.6336 7.89851C4.6911 7.93128 4.71574 8.00521 4.68289 8.06254Z"
            fill="#F3F3F3"
        />

        <path
            d="M4.69114 8.07074C4.65828 8.13637 4.58444 8.16101 4.51882 8.12816L3.83802 7.7836C3.77239 7.75083 3.74775 7.67699 3.7806 7.61136C3.81337 7.54573 3.88726 7.52108 3.9528 7.55393L4.6336 7.89851C4.69931 7.92306 4.72391 8.0052 4.69114 8.07074ZM3.80516 7.61957C3.7806 7.67699 3.79703 7.74261 3.85444 7.76725L4.53525 8.11181C4.58453 8.13637 4.65012 8.11182 4.68289 8.06254C4.70744 8.00512 4.69114 7.93949 4.63372 7.91485L3.94454 7.57046C3.89534 7.5459 3.8298 7.56216 3.80516 7.61957Z"
            fill="white"
        />

        <path
            d="M5.88858 7.90663C5.8476 7.96413 5.78197 7.98055 5.72456 7.93949L4.30534 6.99618C4.24801 6.96332 4.23979 6.88948 4.27256 6.83207C4.30542 6.77466 4.37926 6.75824 4.43667 6.79922L5.86403 7.75082C5.91322 7.78368 5.92965 7.85752 5.88858 7.90663Z"
            fill="#F3F3F3"
        />

        <path
            d="M5.89679 7.91483C5.85581 7.97233 5.77376 7.98867 5.71643 7.9559L4.29725 7.00429C4.23984 6.96331 4.22341 6.88947 4.26439 6.82393C4.30546 6.76643 4.38751 6.75001 4.44492 6.78286L5.86402 7.73438C5.92965 7.77545 5.93786 7.85742 5.89679 7.91483ZM4.28082 6.83206C4.24805 6.88126 4.25626 6.9551 4.30538 6.98787L5.73277 7.93956C5.78197 7.97241 5.84759 7.95598 5.88045 7.90679C5.91322 7.8575 5.905 7.78366 5.85589 7.75089L4.42841 6.79929C4.37921 6.76643 4.31367 6.78286 4.28082 6.83206Z"
            fill="white"
        />

        <path
            d="M5.58518 6.7172C5.54419 6.76639 5.47035 6.78282 5.42116 6.74175L4.82231 6.27426C4.77311 6.23319 4.7649 6.15936 4.80588 6.11016C4.84687 6.06096 4.92071 6.04454 4.96999 6.0856L5.56875 6.5531C5.61803 6.59416 5.62625 6.66792 5.58518 6.7172Z"
            fill="#F3F3F3"
        />

        <path
            d="M5.59335 6.72536C5.55237 6.78285 5.47032 6.79106 5.41291 6.75L4.81408 6.2825C4.75667 6.24152 4.74846 6.15947 4.78953 6.10214C4.83051 6.04465 4.91256 6.03643 4.96989 6.0775L5.56871 6.545C5.62621 6.58606 5.63442 6.66786 5.59335 6.72536ZM4.80588 6.11016C4.7649 6.15936 4.7731 6.22501 4.8223 6.26599L5.42112 6.73365C5.47032 6.76642 5.53594 6.75821 5.57693 6.70901C5.61799 6.65982 5.60978 6.59419 5.56059 6.55321L4.96176 6.08554C4.91256 6.05277 4.84678 6.06096 4.80588 6.11016Z"
            fill="white"
        />

        <path
            d="M6.80736 6.79923C6.75825 6.84851 6.68432 6.84851 6.64334 6.79923L5.42116 5.59341C5.37196 5.54422 5.38009 5.47038 5.42116 5.42931C5.47036 5.38019 5.5442 5.38019 5.58518 5.42931L6.79932 6.63521C6.84851 6.67619 6.84835 6.75816 6.80736 6.79923Z"
            fill="#F3F3F3"
        />

        <path
            d="M6.80748 6.80748C6.78341 6.83112 6.75103 6.84436 6.7173 6.84436C6.68356 6.84436 6.65118 6.83112 6.62711 6.80748L5.41294 5.60152C5.38925 5.57744 5.37598 5.54502 5.37598 5.51125C5.37598 5.47748 5.38925 5.44506 5.41294 5.42099C5.43701 5.39733 5.46941 5.38407 5.50316 5.38407C5.53691 5.38407 5.56931 5.39733 5.59338 5.42099L6.80748 6.62687C6.86489 6.67607 6.86489 6.75829 6.80748 6.80748ZM5.42953 5.43741C5.38846 5.47848 5.38846 5.55232 5.42953 5.59322L6.64334 6.79923C6.6844 6.8403 6.75836 6.84017 6.79935 6.7991C6.84042 6.75812 6.84042 6.68428 6.79935 6.6433L5.58518 5.42931C5.5442 5.38832 5.47864 5.38822 5.42953 5.43741Z"
            fill="white"
        />

        <path
            d="M6.73362 5.57698C6.68442 5.61804 6.61059 5.61804 6.56952 5.56876L6.06908 4.99456C6.02818 4.94537 6.03631 4.87153 6.08559 4.83054C6.13471 4.78948 6.20863 4.78947 6.24961 4.83867L6.75005 5.41296C6.79103 5.45394 6.78282 5.52778 6.73362 5.57698Z"
            fill="#F3F3F3"
        />

        <path
            d="M6.7418 5.57699C6.68439 5.62619 6.61055 5.61806 6.56127 5.56877L6.06091 4.99457C6.01171 4.94537 6.01992 4.86332 6.07733 4.81412C6.13475 4.76484 6.20858 4.77305 6.25778 4.82234L6.75823 5.39645C6.79921 5.45395 6.79921 5.536 6.7418 5.57699ZM6.08559 4.83054C6.03631 4.87153 6.03627 4.93716 6.06912 4.98636L6.56956 5.56056C6.61055 5.60163 6.67617 5.60984 6.72537 5.56877C6.77457 5.52779 6.77457 5.46208 6.7418 5.41297L6.24135 4.83868C6.20037 4.78957 6.13471 4.78956 6.08559 4.83054Z"
            fill="white"
        />

        <path
            d="M7.91486 5.88876C7.85745 5.92974 7.78362 5.91331 7.75076 5.8559L6.79104 4.43672C6.75818 4.37931 6.77461 4.30547 6.82381 4.2727C6.88122 4.23172 6.95506 4.24814 6.98791 4.30555L7.93942 5.72465C7.98049 5.78206 7.96406 5.85599 7.91486 5.88876Z"
            fill="#F3F3F3"
        />

        <path
            d="M7.91491 5.89691C7.8575 5.93798 7.77545 5.92147 7.73438 5.86414L6.78291 4.44494C6.74193 4.38753 6.75835 4.30556 6.82389 4.26458C6.8813 4.22351 6.96335 4.23993 7.00441 4.29735L7.95589 5.71646C7.99687 5.78209 7.98044 5.85593 7.91491 5.89691ZM6.83202 4.28092C6.78282 4.31369 6.7664 4.37931 6.79925 4.4286L7.75072 5.84771C7.78358 5.89691 7.8492 5.90513 7.90652 5.87227C7.9558 5.8395 7.97227 5.77385 7.93942 5.72465L6.98799 4.31369C6.95513 4.26457 6.88113 4.24806 6.83202 4.28092Z"
            fill="white"
        />

        <path
            d="M8.08711 4.67468C8.0297 4.70745 7.95587 4.69111 7.9231 4.6337L7.54571 3.96924C7.51295 3.91183 7.5375 3.83799 7.59499 3.80513C7.6524 3.77236 7.72624 3.7887 7.759 3.8462L8.1363 4.51058C8.16094 4.56799 8.14443 4.64183 8.08711 4.67468Z"
            fill="#F3F3F3"
        />

        <path
            d="M8.08706 4.6829C8.02144 4.71567 7.9476 4.69933 7.91483 4.64184L7.53743 3.97745C7.50466 3.91996 7.52109 3.83799 7.58671 3.80513C7.65233 3.77236 7.72623 3.7887 7.759 3.8462L8.1363 4.51058C8.16916 4.56799 8.1526 4.64184 8.08706 4.6829ZM7.59492 3.81335C7.54564 3.84612 7.52109 3.91174 7.55386 3.96102L7.93126 4.62549C7.96403 4.67461 8.02965 4.69112 8.07885 4.66648C8.12813 4.63371 8.15269 4.568 8.11992 4.5188L7.74251 3.85433C7.71796 3.80522 7.64412 3.78049 7.59492 3.81335Z"
            fill="white"
        />

        <path
            d="M9.17799 5.21604C9.11246 5.24059 9.04675 5.21604 9.02219 5.15863L8.35776 3.57533C8.33321 3.51792 8.36597 3.44408 8.42338 3.41944C8.489 3.39488 8.55463 3.41944 8.57918 3.47685L9.24362 5.06006C9.26826 5.11747 9.23549 5.19148 9.17799 5.21604Z"
            fill="#F3F3F3"
        />

        <path
            d="M9.17824 5.22432C9.1127 5.24888 9.03886 5.22432 9.006 5.15861L8.34153 3.57549C8.32961 3.54394 8.33069 3.50894 8.34454 3.47818C8.35838 3.44742 8.38385 3.4234 8.41537 3.41139C8.481 3.38683 8.55484 3.41139 8.58769 3.47701L9.25208 5.06022C9.27672 5.11763 9.24386 5.19147 9.17824 5.22432ZM8.4318 3.42782C8.37438 3.45237 8.34974 3.51808 8.37439 3.56728L9.03877 5.1504C9.06333 5.20781 9.12895 5.23237 9.18637 5.20781C9.24378 5.18325 9.26851 5.11755 9.24378 5.06835L8.57939 3.48514C8.54654 3.42773 8.48921 3.40318 8.4318 3.42782Z"
            fill="white"
        />

        <path
            d="M9.57996 4.05126C9.51434 4.07582 9.44872 4.04297 9.42417 3.97743L9.18625 3.25548C9.16169 3.19807 9.20267 3.12423 9.26008 3.10789C9.31749 3.09146 9.39132 3.1161 9.41587 3.18172L9.65379 3.90359C9.67835 3.961 9.64558 4.02671 9.57996 4.05126Z"
            fill="#F3F3F3"
        />

        <path
            d="M9.5883 4.05941C9.55675 4.0713 9.52178 4.07021 9.49104 4.05637C9.46029 4.04253 9.43629 4.01708 9.42427 3.98558L9.18632 3.2637C9.16176 3.19808 9.20275 3.12432 9.26846 3.09968C9.30001 3.08779 9.33498 3.08889 9.36572 3.10272C9.39647 3.11656 9.42047 3.14202 9.43249 3.17352L9.67036 3.89539C9.68679 3.96102 9.65393 4.03486 9.5883 4.05941ZM9.26837 3.11611C9.21096 3.13245 9.1781 3.19808 9.19453 3.25549L9.43249 3.97745C9.44883 4.03486 9.51446 4.05941 9.57196 4.04299C9.62937 4.02664 9.66214 3.96102 9.64571 3.90361L9.40785 3.18165C9.40366 3.16772 9.3966 3.15483 9.3871 3.14382C9.37761 3.13281 9.36591 3.12392 9.35275 3.11773C9.33959 3.11154 9.32528 3.10818 9.31074 3.10789C9.29621 3.1076 9.28177 3.11045 9.26837 3.11611Z"
            fill="white"
        />

        <path
            d="M10.548 4.79767C10.4824 4.81409 10.4168 4.77311 10.4085 4.7074L10.064 3.0258C10.0476 2.96018 10.0969 2.90277 10.1624 2.88634C10.2281 2.86991 10.2936 2.91089 10.3019 2.9766L10.6465 4.65829C10.6546 4.71561 10.6136 4.78124 10.548 4.79767Z"
            fill="#F3F3F3"
        />

        <path
            d="M10.548 4.8059C10.4742 4.82233 10.4086 4.77304 10.3921 4.70742L10.0476 3.02581C10.0311 2.96019 10.0804 2.88635 10.1461 2.87813C10.2199 2.86171 10.2855 2.91098 10.3019 2.9766L10.6465 4.65829C10.6628 4.72383 10.6219 4.78956 10.548 4.8059ZM10.1625 2.89456C10.105 2.90277 10.064 2.96019 10.0722 3.02581L10.4168 4.7075C10.425 4.76483 10.4905 4.8059 10.548 4.78947C10.6054 4.78126 10.6464 4.72385 10.6382 4.65822L10.2936 2.97653C10.2773 2.9192 10.22 2.88635 10.1625 2.89456Z"
            fill="white"
        />

        <path
            d="M11.1715 3.73128C11.1059 3.73949 11.0485 3.69851 11.0321 3.63288L10.9337 2.87814C10.9255 2.81252 10.9746 2.7551 11.0404 2.74689C11.1059 2.73868 11.1633 2.77975 11.1797 2.84537L11.2781 3.60003C11.2863 3.66565 11.2371 3.72306 11.1715 3.73128Z"
            fill="#F3F3F3"
        />

        <path
            d="M11.1715 3.73947C11.0977 3.74768 11.0321 3.69848 11.0239 3.63277L10.9255 2.87812C10.9173 2.8125 10.9665 2.74687 11.0403 2.73866C11.1141 2.73053 11.1797 2.77973 11.188 2.84535L11.2863 3.6C11.2946 3.66563 11.2454 3.73125 11.1715 3.73947ZM11.0485 2.75509C10.9911 2.7633 10.9418 2.82071 10.95 2.87812L11.0485 3.63286C11.0567 3.69027 11.1141 3.73125 11.1715 3.72304C11.2289 3.71491 11.2782 3.65741 11.27 3.6L11.1715 2.84535C11.1633 2.78794 11.1059 2.74687 11.0485 2.75509Z"
            fill="white"
        />

        <path
            d="M12.0575 21.7043C17.4216 21.7043 21.77 17.3559 21.77 11.9918C21.77 6.62773 17.4216 2.2793 12.0575 2.2793C6.69342 2.2793 2.34499 6.62773 2.34499 11.9918C2.34499 17.3559 6.69342 21.7043 12.0575 21.7043Z"
            fill="url(#paint2_linear_2436_7337)"
            fill-opacity="0.2"
        />

        <path
            d="M18.784 5.83125L10.95 10.8516H10.9418V10.8597L10.9336 10.868L6.04463 18.9317L13.2305 13.1485L13.2387 13.1404V13.1321L18.784 5.83125Z"
            fill="currentColor"
            fill-opacity="0.05"
        />

        <path
            d="M18.6363 5.36366L10.8926 10.8679L13.1895 13.1484L18.6363 5.36366Z"
            fill="#CD151E"
        />

        <path
            d="M10.9008 10.8516L12.0575 11.9918L18.6363 5.36366L10.9008 10.8516Z"
            fill="#FA5153"
        />

        <path
            d="M10.9008 10.8516L13.1977 13.132L5.45393 18.6363L10.9008 10.8516Z"
            fill="#ACACAC"
        />

        <path
            d="M5.45393 18.6363L12.0575 11.9918L10.9008 10.8516L5.45393 18.6363Z"
            fill="#EEEEEE"
        />

        <defs>
            <linearGradient
                id="paint0_linear_2436_7337"
                gradientunits="userSpaceOnUse"
                x1="12"
                x2="12"
                y1="22.5"
                y2="1.5"
            >
                <stop
                    offset="0.25"
                    stop-color="#DBDBDA"
                />

                <stop
                    offset="1"
                    stop-color="white"
                />
            </linearGradient>

            <radialGradient
                id="paint1_radial_2436_7337"
                cx="0"
                cy="0"
                gradienttransform="translate(13.4753 9.69357) scale(12.8167)"
                gradientunits="userSpaceOnUse"
                r="1"
            >
                <stop stop-color="#2ABCE1" />

                <stop
                    offset="0.11363"
                    stop-color="#2ABBE1"
                />

                <stop
                    offset="1"
                    stop-color="#3375F8"
                />
            </radialGradient>

            <linearGradient
                id="paint2_linear_2436_7337"
                gradientunits="userSpaceOnUse"
                x1="11.8005"
                x2="6.89973"
                y1="8.99763"
                y2="17.7901"
            >
                <stop stop-opacity="0" />

                <stop offset="1" />
            </linearGradient>
        </defs>
    </svg>

