


    <svg
        fill="none"
        height="24"
        viewBox="0 0 24 24"
        width="24"
        xmlns="http://www.w3.org/2000/svg"
        v-bind="$props"
    >
        <path
            d="M19.9118 5.90273C20.3843 6.51352 20.7785 7.18348 21.1135 7.8926L12.01 14.6113L8.18744 12.2073V9.33083L11.99 11.7148L19.9118 5.90273Z"
            fill="#21A038"
        />

        <path
            d="M4.30587 12.0105C4.30587 11.8722 4.30587 11.7539 4.32504 11.6164L2.02 11.4981C2.02 11.6564 2 11.833 2 11.9905C2 14.7487 3.12335 17.2518 4.93588 19.0642L6.57174 17.4285C5.85215 16.7218 5.28098 15.8786 4.89174 14.9482C4.50249 14.0178 4.30386 13.019 4.30587 12.0105Z"
            fill="url(#paint0_linear_2670_10500)"
        />

        <path
            d="M11.9905 4.32437C12.128 4.32437 12.2464 4.32437 12.3847 4.34437L12.5031 2.0387C12.3447 2.0387 12.168 2.01953 12.0105 2.01953C9.25217 2.01953 6.74879 3.14195 4.93543 4.95516L6.57212 6.59005C7.2801 5.87225 8.1237 5.30232 9.05389 4.91337C9.98408 4.52441 10.9823 4.3242 11.9905 4.32437Z"
            fill="url(#paint1_linear_2670_10500)"
        />

        <path
            d="M11.9902 19.6943C11.8527 19.6943 11.7344 19.6943 11.596 19.6752L11.4777 21.98C11.636 21.98 11.8127 22 11.971 22C14.7294 22 17.2319 20.8767 19.0445 19.0644L17.4095 17.4286C16.0303 18.8477 14.1186 19.6943 11.9902 19.6943Z"
            fill="url(#paint2_linear_2670_10500)"
        />

        <path
            d="M16.3255 5.66475L18.2763 4.22652C16.4971 2.78771 14.2786 2.0019 11.9904 2V4.30568C13.6071 4.32484 15.1038 4.81731 16.3255 5.66475Z"
            fill="url(#paint3_linear_2670_10500)"
        />

        <path
            d="M22 12.0088C22 11.398 21.9408 10.8064 21.8417 10.2156L19.6941 11.8113V12.0088C19.6951 13.0833 19.4692 14.1458 19.0312 15.127C18.5932 16.1082 17.953 16.9858 17.1524 17.7026L18.7091 19.4175C19.7455 18.4814 20.574 17.3382 21.1408 16.0619C21.7077 14.7856 22.0004 13.4045 22 12.008V12.0088Z"
            fill="#21A038"
        />

        <path
            d="M11.9899 19.6935C10.9153 19.6944 9.85265 19.4685 8.8714 19.0306C7.89015 18.5926 7.01242 17.9524 6.29562 17.152L4.58142 18.7085C5.51583 19.7466 6.65851 20.5762 7.93499 21.1432C9.21148 21.7101 10.5931 22.0018 11.9899 21.9991V19.6935Z"
            fill="url(#paint4_linear_2670_10500)"
        />

        <path
            d="M6.84759 6.31479L5.2909 4.60074C4.25277 5.5351 3.42316 6.67769 2.85614 7.95406C2.28912 9.23043 1.99741 10.6119 2.00002 12.0086H4.30589C4.30698 10.9344 4.53381 9.87249 4.97167 8.89162C5.40953 7.91075 6.04865 7.03283 6.84759 6.31479Z"
            fill="url(#paint5_linear_2670_10500)"
        />

        <defs>
            <linearGradient
                id="paint0_linear_2670_10500"
                gradientunits="userSpaceOnUse"
                x1="16.918"
                x2="12.5935"
                y1="21.2577"
                y2="0.567214"
            >
                <stop
                    offset="0.144"
                    stop-color="#F2E913"
                />

                <stop
                    offset="0.304"
                    stop-color="#E7E518"
                />

                <stop
                    offset="0.582"
                    stop-color="#CADB26"
                />

                <stop
                    offset="0.891"
                    stop-color="#A3CD39"
                />
            </linearGradient>

            <linearGradient
                id="paint1_linear_2670_10500"
                gradientunits="userSpaceOnUse"
                x1="3.7399"
                x2="22.4291"
                y1="16.6071"
                y2="12.3041"
            >
                <stop
                    offset="0.059"
                    stop-color="#0FA8E0"
                />

                <stop
                    offset="0.538"
                    stop-color="#0099F9"
                />

                <stop
                    offset="0.923"
                    stop-color="#0291EB"
                />
            </linearGradient>

            <linearGradient
                id="paint2_linear_2670_10500"
                gradientunits="userSpaceOnUse"
                x1="1.64317"
                x2="21.6958"
                y1="15.8389"
                y2="13.1008"
            >
                <stop
                    offset="0.123"
                    stop-color="#A3CD39"
                />

                <stop
                    offset="0.285"
                    stop-color="#86C339"
                />

                <stop
                    offset="0.869"
                    stop-color="#21A038"
                />
            </linearGradient>

            <linearGradient
                id="paint3_linear_2670_10500"
                gradientunits="userSpaceOnUse"
                x1="0.493968"
                x2="21.7119"
                y1="6.24284"
                y2="10.061"
            >
                <stop
                    offset="0.057"
                    stop-color="#0291EB"
                />

                <stop
                    offset="0.79"
                    stop-color="#0C8ACB"
                />
            </linearGradient>

            <linearGradient
                id="paint4_linear_2670_10500"
                gradientunits="userSpaceOnUse"
                x1="3.58155"
                x2="23.4456"
                y1="7.23636"
                y2="12.0929"
            >
                <stop
                    offset="0.132"
                    stop-color="#F2E913"
                />

                <stop
                    offset="0.298"
                    stop-color="#EBE716"
                />

                <stop
                    offset="0.531"
                    stop-color="#D9E01F"
                />

                <stop
                    offset="0.802"
                    stop-color="#BBD62D"
                />

                <stop
                    offset="0.983"
                    stop-color="#A3CD39"
                />
            </linearGradient>

            <linearGradient
                id="paint5_linear_2670_10500"
                gradientunits="userSpaceOnUse"
                x1="2.86503"
                x2="5.61134"
                y1="12.2877"
                y2="5.14304"
            >
                <stop
                    offset="0.07"
                    stop-color="#A3CD39"
                />

                <stop
                    offset="0.26"
                    stop-color="#81C55F"
                />

                <stop
                    offset="0.922"
                    stop-color="#0FA8E0"
                />
            </linearGradient>
        </defs>
    </svg>

