
  <svg
    fill="none"
    height="24"
    viewBox="0 0 24 24"
    width="24"
    xmlns="http://www.w3.org/2000/svg"
  >
    <path
      d="M15.9997 21.75H16.9997C20.4397 21.75 22.7497 19.44 22.7497 16V5.84694C22.7497 5.84694 22.8338 5 21.9997 5C21.1655 5 21.2497 5.84694 21.2497 5.84694V16C21.2497 18.58 19.5797 20.25 16.9997 20.25H15.9997C15.5897 20.25 15.2497 20.59 15.2497 21C15.2497 21.41 15.5897 21.75 15.9997 21.75Z"
      fill="currentColor"
    />
    <path
      d="M6.99967 3.75H17.138C17.138 3.75 17.9997 3.75 17.9997 3C17.9997 2.25 17.138 2.25 17.138 2.25H6.99967C3.55967 2.25 1.24967 4.56 1.24967 8V9C1.24967 9.41 1.58967 9.75 1.99967 9.75C2.40967 9.75 2.74967 9.41 2.74967 9V8C2.74967 5.42 4.41967 3.75 6.99967 3.75Z"
      fill="currentColor"
    />
    <path
      d="M5.50269 20.6173C5.68893 21.0223 5.81952 21.4618 5.87964 21.9288C5.92963 22.3387 5.64004 22.7185 5.23023 22.7686C5.20023 22.7686 5.16964 22.7686 5.12964 22.7686C4.75984 22.7685 4.43952 22.489 4.38941 22.1192C4.3753 22.0072 4.35398 21.8979 4.32886 21.7911L5.50269 20.6173ZM8.37281 17.7472C9.04901 18.7628 9.50023 19.9581 9.66969 21.2784C9.71949 21.6883 9.42919 22.0683 9.0193 22.1183C8.98939 22.1282 8.95936 22.128 8.92945 22.128C8.55949 22.128 8.23921 21.8476 8.18922 21.4776C8.06443 20.5022 7.75076 19.6113 7.28297 18.837L8.37281 17.7472ZM11.0193 15.1007C12.08 16.5342 12.7846 18.2686 13.03 20.2091C13.0798 20.6189 12.7895 20.9989 12.3797 21.0489C12.3596 21.0588 12.3197 21.0587 12.2898 21.0587C11.9198 21.0587 11.5996 20.7783 11.5496 20.4083C11.3448 18.8152 10.7829 17.3824 9.93825 16.1817L11.0193 15.1007ZM2.07006 18.1192C2.53707 18.1794 2.97661 18.3099 3.38159 18.4962L2.20776 19.67C2.10096 19.6449 1.99166 19.6226 1.87963 19.6085C1.46979 19.5583 1.18023 19.1785 1.23022 18.7686C1.28035 18.3588 1.66015 18.0692 2.07006 18.1192ZM2.70971 14.3185C4.03763 14.4885 5.23716 14.9423 6.25464 15.6231L5.16187 16.7159C4.38712 16.2476 3.49547 15.9325 2.51928 15.8077C2.10944 15.7576 1.81988 15.3778 1.86987 14.9679C1.92 14.558 2.2998 14.2685 2.70971 14.3185ZM3.78003 10.9591C5.72388 11.2089 7.46201 11.9162 8.8982 12.9796L7.81812 14.0597C6.61838 13.2151 5.18494 12.6529 3.5896 12.4483C3.17975 12.3982 2.8902 12.0184 2.94018 11.6085C2.99031 11.1986 3.37012 10.9091 3.78003 10.9591Z"
      fill="currentColor"
    />
    <path
      d="M21.4693 1.46967C21.7622 1.17678 22.237 1.17678 22.5299 1.46967C22.8228 1.76256 22.8228 2.23732 22.5299 2.53022L2.52989 22.5302C2.23699 22.8231 1.76223 22.8231 1.46934 22.5302C1.17645 22.2373 1.17645 21.7626 1.46934 21.4697L21.4693 1.46967Z"
      fill="currentColor"
    />
  </svg>
