


    <svg
        fill="none"
        height="24"
        viewBox="0 0 24 24"
        width="24"
        xmlns="http://www.w3.org/2000/svg"
        v-bind="$props"
    >
        <path
            clip-rule="evenodd"
            d="M11 3.75C6.99594 3.75 3.75 6.99594 3.75 11C3.75 15.0041 6.99594 18.25 11 18.25C15.0041 18.25 18.25 15.0041 18.25 11C18.25 6.99594 15.0041 3.75 11 3.75ZM2.25 11C2.25 6.16751 6.16751 2.25 11 2.25C15.8325 2.25 19.75 6.16751 19.75 11C19.75 15.8325 15.8325 19.75 11 19.75C6.16751 19.75 2.25 15.8325 2.25 11Z"
            fill="currentColor"
            fill-rule="evenodd"
        />

        <path
            clip-rule="evenodd"
            d="M16.5 16.5C16.7929 16.2071 17.2678 16.2071 17.5607 16.5L22.5607 21.5C22.8536 21.7929 22.8536 22.2071 22.5607 22.5C22.2678 22.7929 21.7929 22.8536 21.5 22.5607L16 17.0607C15.7071 16.7678 16.2071 16.7929 16.5 16.5Z"
            fill="currentColor"
            fill-rule="evenodd"
        />
    </svg>

