


    <svg
        fill="none"
        height="24"
        viewBox="0 0 24 24"
        width="24"
        xmlns="http://www.w3.org/2000/svg"
        v-bind="$props"
    >
        <path
            clip-rule="evenodd"
            d="M11 3.75C6.99594 3.75 3.75 6.99594 3.75 11C3.75 15.0041 6.99594 18.25 11 18.25C15.0041 18.25 18.25 15.0041 18.25 11C18.25 6.99594 15.0041 3.75 11 3.75ZM2.25 11C2.25 6.16751 6.16751 2.25 11 2.25C15.8325 2.25 19.75 6.16751 19.75 11C19.75 15.8325 15.8325 19.75 11 19.75C6.16751 19.75 2.25 15.8325 2.25 11Z"
            fill="currentColor"
            fill-rule="evenodd"
        />
        <path
            clip-rule="evenodd"
            d="M17.1231 17.2506C17.416 16.9577 17.5421 16.8108 17.7138 16.6117L22.5607 21.5C22.8536 21.7929 22.8536 22.2071 22.5607 22.5C22.2678 22.7929 21.7929 22.8536 21.5 22.5607L16.5937 17.7288C16.6693 17.6652 16.8302 17.5435 17.1231 17.2506Z"
            fill="currentColor"
            fill-rule="evenodd"
        />
        <path
            clip-rule="evenodd"
            d="M6.25 11C6.25 10.5858 6.58579 10.25 7 10.25H15C15.4142 10.25 15.75 10.5858 15.75 11C15.75 11.4142 15.4142 11.75 15 11.75H7C6.58579 11.75 6.25 11.4142 6.25 11Z"
            fill="currentColor"
            fill-rule="evenodd"
        />
    </svg>

