


    <svg
        fill="none"
        height="24"
        viewBox="0 0 24 24"
        width="24"
        xmlns="http://www.w3.org/2000/svg"
        v-bind="$props"
    >
        <path
            d="M14.2199 21.6293C13.0399 21.6293 11.3699 20.7993 10.0499 16.8293L9.32988 14.6693L7.16988 13.9493C3.20988 12.6293 2.37988 10.9593 2.37988 9.77934C2.37988 8.60934 3.20988 6.92934 7.16988 5.59934L15.6599 2.76934C17.7799 2.05934 19.5499 2.26934 20.6399 3.34934C21.7299 4.42934 21.9399 6.20934 21.2299 8.32934L18.3999 16.8193C17.0699 20.7993 15.3999 21.6293 14.2199 21.6293ZM7.63988 7.02934C4.85988 7.95934 3.86988 9.05934 3.86988 9.77934C3.86988 10.4993 4.85988 11.5993 7.63988 12.5193L10.1599 13.3593C10.3799 13.4293 10.5599 13.6093 10.6299 13.8293L11.4699 16.3493C12.3899 19.1293 13.4999 20.1193 14.2199 20.1193C14.9399 20.1193 16.0399 19.1293 16.9699 16.3493L19.7999 7.85934C20.3099 6.31934 20.2199 5.05934 19.5699 4.40934C18.9199 3.75934 17.6599 3.67934 16.1299 4.18934L7.63988 7.02934Z"
            fill="currentColor"
        />

        <path
            d="M10.1099 14.3993C9.91988 14.3993 9.72988 14.3293 9.57988 14.1793C9.28988 13.8893 9.28988 13.4093 9.57988 13.1193L13.1599 9.52934C13.4499 9.23934 13.9299 9.23934 14.2199 9.52934C14.5099 9.81934 14.5099 10.2993 14.2199 10.5893L10.6399 14.1793C10.4999 14.3293 10.2999 14.3993 10.1099 14.3993Z"
            fill="currentColor"
        />
    </svg>

