


    <svg
        fill="none"
        height="24"
        viewBox="0 0 24 24"
        width="24"
        xmlns="http://www.w3.org/2000/svg"
        v-bind="$props"
    >
        <path
            d="M20.1 9.2175C18.29 9.2175 17.55 7.9375 18.45 6.3675C18.97 5.45749 18.66 4.2975 17.75 3.7775L16.02 2.7875C15.23 2.3175 14.21 2.5975 13.74 3.3875L13.63 3.57749C12.73 5.1475 11.25 5.1475 10.34 3.57749L10.23 3.3875C9.78 2.5975 8.76 2.3175 7.97 2.7875L6.24 3.7775C5.33 4.2975 5.02 5.4675 5.54 6.3775C6.45 7.9375 5.71 9.2175 3.9 9.2175C2.86 9.2175 2 10.0675 2 11.1175V12.8775C2 13.9175 2.85 14.7775 3.9 14.7775C5.71 14.7775 6.45 16.0575 5.54 17.6275C5.02 18.5375 5.33 19.6975 6.24 20.2175L7.97 21.2075C8.76 21.6775 9.78 21.3975 10.25 20.6075L10.36 20.4175C11.26 18.8475 12.74 18.8475 13.65 20.4175L13.76 20.6075C14.23 21.3975 15.25 21.6775 16.04 21.2075L17.77 20.2175C18.68 19.6975 18.99 18.5275 18.47 17.6275C17.56 16.0575 18.3 14.7775 20.11 14.7775C21.15 14.7775 22.01 13.9275 22.01 12.8775V11.1175C22 10.0775 21.15 9.2175 20.1 9.2175ZM12 15.2475C10.21 15.2475 8.75 13.7875 8.75 11.9975C8.75 10.2075 10.21 8.7475 12 8.7475C13.79 8.7475 15.25 10.2075 15.25 11.9975C15.25 13.7875 13.79 15.2475 12 15.2475Z"
            fill="currentColor"
        />
    </svg>

