


    <svg
        fill="none"
        height="24"
        viewBox="0 0 24 24"
        width="24"
        xmlns="http://www.w3.org/2000/svg"
        v-bind="$props"
    >
        <path
            d="M18.6102 6.68031C18.2002 6.68031 17.8602 6.34031 17.8602 5.93031V4.42031C17.8602 3.82031 17.3702 3.32031 16.7602 3.32031H3.83023C3.23023 3.32031 2.73023 3.81031 2.73023 4.42031V5.93031C2.73023 6.34031 2.39023 6.68031 1.98023 6.68031C1.57023 6.68031 1.24023 6.34031 1.24023 5.93031V4.42031C1.24023 2.99031 2.41023 1.82031 3.84023 1.82031H16.7602C18.1902 1.82031 19.3602 2.98031 19.3602 4.42031V5.93031C19.3602 6.34031 19.0202 6.68031 18.6102 6.68031Z"
            fill="currentColor"
        />

        <path
            d="M10.3002 18.8503C9.89023 18.8503 9.55023 18.5103 9.55023 18.1003V3.32031C9.55023 2.91031 9.89023 2.57031 10.3002 2.57031C10.7102 2.57031 11.0502 2.91031 11.0502 3.32031V18.1003C11.0502 18.5203 10.7102 18.8503 10.3002 18.8503Z"
            fill="currentColor"
        />

        <path
            d="M12.4802 18.8503H6.90023C6.49023 18.8503 6.15023 18.5103 6.15023 18.1003C6.15023 17.6903 6.49023 17.3503 6.90023 17.3503H12.4802C12.8902 17.3503 13.2302 17.6903 13.2302 18.1003C13.2302 18.5103 12.8902 18.8503 12.4802 18.8503Z"
            fill="currentColor"
        />

        <path
            d="M22.0102 13.2003C21.6002 13.2003 21.2602 12.8603 21.2602 12.4503V11.6503C21.2602 11.3403 21.0002 11.0803 20.6902 11.0803H13.6802C13.2702 11.0803 12.9302 10.7403 12.9302 10.3303C12.9302 9.92031 13.2702 9.58031 13.6802 9.58031H20.6902C21.8302 9.58031 22.7602 10.5103 22.7602 11.6503V12.4503C22.7602 12.8703 22.4302 13.2003 22.0102 13.2003Z"
            fill="currentColor"
        />

        <path
            d="M16.0802 22.1803C15.6702 22.1803 15.3302 21.8403 15.3302 21.4303V10.8703C15.3302 10.4603 15.6702 10.1203 16.0802 10.1203C16.4902 10.1203 16.8302 10.4603 16.8302 10.8703V21.4303C16.8302 21.8403 16.4902 22.1803 16.0802 22.1803Z"
            fill="currentColor"
        />

        <path
            d="M18.2202 22.1803H13.9402C13.5302 22.1803 13.1902 21.8403 13.1902 21.4303C13.1902 21.0203 13.5302 20.6803 13.9402 20.6803H18.2202C18.6302 20.6803 18.9702 21.0203 18.9702 21.4303C18.9702 21.8403 18.6302 22.1803 18.2202 22.1803Z"
            fill="currentColor"
        />
    </svg>

