


    <svg
        fill="none"
        height="24"
        viewBox="0 0 24 24"
        width="24"
        xmlns="http://www.w3.org/2000/svg"
        v-bind="$props"
    >
        <path
            d="M5.30035 14.46C5.65035 14.81 5.85035 15.51 5.74035 16L5.22035 18.25C5.18035 18.45 4.90746 20.5603 5.05035 20.95C5.16035 21.25 5.33035 21.48 5.56035 21.65C6.17035 22.1 7.12035 21.99 8.23035 21.34L11.1603 19.6C11.6203 19.33 12.3803 19.33 12.8403 19.6L15.7703 21.34C16.4303 21.73 17.0303 21.92 17.5403 21.92C17.8903 21.92 18.1903 21.83 18.4403 21.65C19.0603 21.2 19.2403 20.26 18.9503 19.01L18.2603 16C18.1403 15.51 18.3403 14.82 18.7003 14.46L21.1203 12.03C21.8803 11.27 22.1803 10.46 21.9603 9.76C21.7303 9.06 21.0203 8.58 19.9603 8.4L18.9503 8.23C18.3203 8.12 16.6203 7.84 16.3303 7.67C16.0403 7.5 15.7703 7.25 15.6403 6.99L13.9203 3.54C13.4203 2.55 12.7403 2 12.0003 2C11.2603 2 10.5803 2.55 10.0803 3.54L8.36035 6.99C8.15035 7.4 7.60035 7.8 7.15035 7.88L4.03035 8.4C2.97035 8.58 2.26035 9.06 2.03035 9.76C1.81035 10.46 2.11035 11.27 2.87035 12.03L5.30035 14.46Z"
            fill="currentColor"
        />
    </svg>

