


    <svg
        fill="none"
        height="24"
        viewBox="0 0 24 24"
        width="24"
        xmlns="http://www.w3.org/2000/svg"
        v-bind="$props"
    >
        <path
            d="M16.8305 15.6425C17.5005 15.2025 18.3805 15.6825 18.3805 16.4825V17.7725C18.3805 19.0425 17.3905 20.4025 16.2005 20.8025L13.0105 21.8625C12.4505 22.0525 11.5405 22.0525 10.9905 21.8625L7.80051 20.8025C6.60051 20.4025 5.62051 19.0425 5.62051 17.7725V16.4725C5.62051 15.6825 6.50051 15.2025 7.16051 15.6325L9.22051 16.9725C10.0105 17.5025 11.0105 17.7625 12.0105 17.7625C13.0105 17.7625 14.0105 17.5025 14.8005 16.9725L16.8305 15.6425Z"
            fill="currentColor"
        />

        <path
            d="M19.9805 6.4625L13.9905 2.5325C12.9105 1.8225 11.1305 1.8225 10.0505 2.5325L4.03051 6.4625C2.10051 7.7125 2.10051 10.5425 4.03051 11.8025L5.63051 12.8425L10.0505 15.7225C11.1305 16.4325 12.9105 16.4325 13.9905 15.7225L19.7505 11.9425V15.0025C19.7505 15.4125 20.0905 15.7525 20.5005 15.7525C20.9105 15.7525 21.2505 15.4125 21.2505 15.0025V10.0825C21.6505 8.7925 21.2405 7.2925 19.9805 6.4625Z"
            fill="currentColor"
        />
    </svg>

