


    <svg
        fill="none"
        height="24"
        viewBox="0 0 24 24"
        width="24"
        xmlns="http://www.w3.org/2000/svg"
        v-bind="$props"
    >
        <path
            d="M12.0093 16.9973C11.1593 16.9973 10.2993 16.7773 9.62934 16.3473L3.60934 12.4173C2.48934 11.6873 1.81934 10.4573 1.81934 9.11735C1.81934 7.77735 2.48934 6.54735 3.60934 5.81735L9.63934 1.89735C10.9793 1.02735 13.0693 1.02735 14.3993 1.90735L20.3893 5.83735C21.4993 6.56735 22.1693 7.79735 22.1693 9.12735C22.1693 10.4573 21.4993 11.6873 20.3893 12.4173L14.3993 16.3473C13.7293 16.7873 12.8693 16.9973 12.0093 16.9973ZM12.0093 2.74735C11.4393 2.74735 10.8693 2.87735 10.4593 3.15735L4.43934 7.07735C3.73934 7.53735 3.32934 8.27735 3.32934 9.11735C3.32934 9.95735 3.72934 10.6973 4.43934 11.1573L10.4593 15.0873C11.2893 15.6273 12.7493 15.6273 13.5793 15.0873L19.5693 11.1573C20.2693 10.6973 20.6693 9.95735 20.6693 9.11735C20.6693 8.27735 20.2693 7.53735 19.5693 7.07735L13.5793 3.14735C13.1593 2.88735 12.5893 2.74735 12.0093 2.74735Z"
            fill="currentColor"
        />

        <path
            d="M11.9993 22.7473C11.5593 22.7473 11.1093 22.6873 10.7493 22.5673L7.55934 21.5073C6.04934 21.0073 4.85934 19.3573 4.86934 17.7673L4.87934 13.0773C4.87934 12.6673 5.21934 12.3273 5.62934 12.3273C6.03934 12.3273 6.37934 12.6673 6.37934 13.0773L6.36934 17.7673C6.36934 18.7073 7.14934 19.7873 8.03934 20.0873L11.2293 21.1473C11.6293 21.2773 12.3693 21.2773 12.7693 21.1473L15.9593 20.0873C16.8493 19.7873 17.6293 18.7073 17.6293 17.7773V13.1373C17.6293 12.7273 17.9693 12.3873 18.3793 12.3873C18.7893 12.3873 19.1293 12.7273 19.1293 13.1373V17.7773C19.1293 19.3673 17.9493 21.0073 16.4393 21.5173L13.2493 22.5773C12.8893 22.6873 12.4393 22.7473 11.9993 22.7473Z"
            fill="currentColor"
        />

        <path
            d="M21.3993 15.7473C20.9893 15.7473 20.6493 15.4073 20.6493 14.9973V8.99735C20.6493 8.58735 20.9893 8.24735 21.3993 8.24735C21.8093 8.24735 22.1493 8.58735 22.1493 8.99735V14.9973C22.1493 15.4073 21.8093 15.7473 21.3993 15.7473Z"
            fill="currentColor"
        />
    </svg>

