


    <svg
        fill="none"
        height="24"
        viewBox="0 0 24 24"
        width="24"
        xmlns="http://www.w3.org/2000/svg"
        v-bind="$props"
    >
        <path
            d="M1.5 12C1.5 6.20101 6.20101 1.5 12 1.5C17.799 1.5 22.5 6.20101 22.5 12C22.5 17.799 17.799 22.5 12 22.5C6.20101 22.5 1.5 17.799 1.5 12Z"
            fill="#59316B"
        />

        <path
            d="M12.7756 4.23172L12.3471 5.97554C12.954 4.74391 13.9179 3.81713 15.0246 3C14.2154 3.96339 13.4777 4.92687 13.0255 5.89026C13.7871 4.79266 14.8105 4.18297 15.9647 3.78052C14.4296 5.18297 13.2111 6.68786 12.2829 8.20006L11.5452 7.87083C11.6759 6.66349 12.121 5.42692 12.7756 4.23172Z"
            fill="#ABCD03"
        />

        <path
            d="M10.8054 7.55022L12.2096 8.14724C12.2096 8.51316 12.1806 9.62925 12.4038 9.95848C14.7392 13.0408 14.3463 19.2194 11.9308 19.3779C8.25234 19.3779 6.84947 16.8171 6.84947 14.4634C6.84947 12.317 9.36027 10.8902 10.8597 9.62195C11.2405 9.2805 11.1744 8.52585 10.8054 7.55022Z"
            fill="#FFFCDB"
        />

        <path
            d="M12.21 8.12572L12.7161 8.39029C12.6685 8.73166 12.7399 9.48789 13.073 9.6829C14.5486 10.6219 15.9408 11.6463 16.4883 12.6707C18.4399 16.2805 15.1198 19.6219 12.2519 19.3048C13.8108 18.1218 14.263 15.6951 13.6799 13.0487C13.442 12.012 13.073 11.073 12.4184 10.012C12.1349 9.49124 12.2339 8.84534 12.21 8.12572Z"
            fill="white"
        />

        <path
            d="M11.9664 8.03663L13.0135 8.18298C12.7041 9.23174 13.6205 9.96341 13.918 10.1342C14.5844 10.5123 15.227 10.9025 15.7387 11.3781C16.7026 12.2805 17.25 13.5488 17.25 14.8903C17.25 16.2195 16.655 17.5 15.6554 18.3536C14.7153 19.1585 13.4183 19.5 12.1569 19.5C11.3715 19.5 10.6693 19.4635 9.9078 19.2073C8.17048 18.6097 6.87334 17.0854 6.76625 15.256C6.67102 13.8292 6.98042 12.7438 8.06339 11.6097C8.6226 11.0122 9.75315 10.3292 10.5267 9.78045C10.9076 9.51212 11.3121 8.75598 10.5386 7.32924L10.6933 7.20726L11.8397 7.99412L10.8718 7.58533C10.9551 7.70731 11.1812 8.25611 11.2289 8.41461C11.336 8.86581 11.2884 9.30496 11.1932 9.49997C10.7053 10.4025 9.87234 10.6463 9.26547 11.1585C8.19444 12.0609 7.02826 12.7805 7.15913 15.256C7.21864 16.4755 8.14686 17.9633 9.53906 18.6585C10.3245 19.0488 11.2289 19.2073 12.1452 19.256C12.9662 19.2927 14.5371 18.7926 15.3938 18.0609C16.3101 17.2805 16.8218 16.0975 16.8218 14.8903C16.8218 13.6707 16.3458 12.5122 15.4533 11.6951C14.9416 11.2195 14.0968 10.6463 13.5732 10.3414C13.0496 10.0365 12.3951 9.18289 12.6093 8.36585L11.9664 8.03663Z"
            fill="currentColor"
        />

        <path
            d="M11.6451 9.8415C11.538 10.4025 11.419 11.4147 10.943 11.7928C10.7407 11.939 10.5384 12.0855 10.3242 12.2317C9.46743 12.8294 8.61057 13.3902 8.21795 14.8293C8.13466 15.1342 8.2061 15.4634 8.27755 15.7683C8.49172 16.6463 9.0986 17.5976 9.5746 18.1586C9.5746 18.183 9.66984 18.244 9.66984 18.2683C10.0625 18.744 10.1816 18.8781 11.669 19.2195L11.6333 19.3903C10.7408 19.1465 10.003 18.927 9.53888 18.3781C9.53888 18.3659 9.45558 18.2805 9.45558 18.2805C8.95579 17.6951 8.34883 16.7195 8.12281 15.8049C8.03951 15.439 7.96815 15.1586 8.0633 14.7804C8.46785 13.2927 9.3485 12.7073 10.241 12.0854C10.4433 11.9512 10.6813 11.8292 10.8717 11.6707C11.2405 11.3903 11.4427 10.5366 11.6451 9.8415Z"
            fill="currentColor"
        />

        <path
            d="M12.0257 12.1585C12.0376 12.7927 11.9772 13.1108 12.1318 13.5621C12.227 13.8303 12.5485 14.1962 12.6437 14.5499C12.7746 15.0256 12.9172 15.5499 12.9051 15.867C12.9051 16.2329 12.8828 16.9155 12.7282 17.6473C12.6102 18.2519 12.3384 18.7707 11.8813 19.0648C11.4132 18.966 10.8634 18.7974 10.539 18.5123C9.9083 17.9514 9.34972 17.0134 9.27827 16.1963C9.21884 15.5256 9.82483 14.5364 10.6697 14.0365C11.3836 13.6096 11.5497 13.1232 11.7044 12.3427C11.4902 13.0256 11.289 13.5981 10.5989 13.9639C9.59928 14.5005 9.08638 15.4012 9.13396 16.2549C9.20532 17.3524 9.63422 18.0961 10.4791 18.6937C10.836 18.9498 11.503 19.2204 11.9195 19.2937V19.2378C12.2353 19.1772 12.6442 18.6456 12.848 17.9263C13.0265 17.28 13.0969 16.4528 13.0849 15.9284C13.0729 15.6235 12.9417 14.9633 12.7037 14.3657C12.5728 14.0365 12.3717 13.7073 12.2408 13.4756C12.0981 13.2437 12.0971 12.7438 12.0257 12.1585Z"
            fill="currentColor"
        />

        <path
            d="M11.9549 14.5499C11.9667 14.9767 12.134 15.5236 12.2054 16.0846C12.265 16.4993 12.2391 16.9158 12.2272 17.2817C12.2154 17.7052 12.0777 18.4642 11.8895 18.8332C11.7121 18.7498 11.6427 18.6547 11.5274 18.5011C11.3847 18.2938 11.2877 18.0864 11.1925 17.8426C11.1211 17.6596 11.0377 17.4502 11.0019 17.2064C10.9543 16.8405 10.9676 16.2682 11.3722 15.6828C11.6816 15.2194 11.7525 15.1841 11.8596 14.6475C11.7167 15.1231 11.6102 15.1716 11.2769 15.574C10.908 16.013 10.8467 16.6597 10.8467 17.184C10.8467 17.4036 10.9321 17.6472 11.0155 17.8789C11.1106 18.1228 11.1923 18.3657 11.3232 18.5486C11.5199 18.8451 11.7717 19.0137 11.895 19.0453H11.8977C11.9003 19.0459 11.9033 19.0475 11.9059 19.048V19.0341C12.1367 18.7703 12.2757 18.5082 12.3225 18.2444C12.382 17.9273 12.3956 17.6095 12.4314 17.2315C12.467 16.9144 12.4412 16.4873 12.3579 16.0483C12.2389 15.4995 12.0382 14.94 11.9549 14.5499Z"
            fill="currentColor"
        />

        <path
            d="M11.9902 9.32936C12.0021 9.96343 12.0497 11.1465 12.2163 11.6098C12.2639 11.7683 12.7041 12.4635 13.0135 13.3049C13.2277 13.8903 13.2753 14.4269 13.311 14.5854C13.4538 15.2805 13.2753 16.4513 13.0372 17.561C12.9183 18.1586 12.5137 18.9025 12.0496 19.1952L11.9545 19.3659C12.2163 19.3537 12.8588 18.7074 13.0849 17.9025C13.4658 16.5366 13.6204 15.9025 13.442 14.3903C13.4182 14.2438 13.3587 13.744 13.1326 13.2073C12.7994 12.3902 12.3234 11.6097 12.2639 11.4512C12.1568 11.1952 12.014 10.0854 11.9902 9.32936Z"
            fill="currentColor"
        />

        <path
            d="M12.2134 8.46203C12.1781 9.1137 12.1687 9.35369 12.2876 9.82927C12.4185 10.3537 13.085 11.1097 13.3587 11.9756C13.8822 13.6342 13.7514 15.8049 13.3705 17.5C13.2278 18.0974 12.5494 18.9634 11.8711 19.2438L12.3709 19.3658C12.6446 19.3535 13.3466 18.6829 13.6204 17.9146C14.0606 16.7072 14.144 15.2683 13.9655 13.7561C13.9535 13.6097 13.7155 12.3049 13.4894 11.7561C13.1681 10.939 12.5969 10.2073 12.5374 10.0488C12.4304 9.78052 12.1953 9.22344 12.2134 8.46203Z"
            fill="currentColor"
        />

        <path
            d="M11.8351 8.00341H12.2041V19.2561H11.8351V8.00341Z"
            fill="currentColor"
        />
    </svg>

