


    <svg
        fill="none"
        height="20"
        viewBox="0 0 20 20"
        width="20"
        xmlns="http://www.w3.org/2000/svg"
        v-bind="$props"
    >
        <path
            clip-rule="evenodd"
            d="M10.607 5.25575C10.9496 5.59743 10.9504 6.15218 10.6087 6.49483L7.1135 10L10.6087 13.5052C10.9504 13.8478 10.9496 14.4026 10.607 14.7443C10.2643 15.0859 9.70957 15.0851 9.3679 14.7425L5.25575 10.6187C4.91475 10.2767 4.91475 9.7233 5.25575 9.38133L9.3679 5.2575C9.70957 4.91485 10.2643 4.91407 10.607 5.25575Z"
            fill="currentColor"
            fill-rule="evenodd"
        />

        <path
            clip-rule="evenodd"
            d="M15.607 5.25575C15.9496 5.59743 15.9504 6.15218 15.6087 6.49483L12.1135 10L15.6087 13.5052C15.9504 13.8478 15.9496 14.4026 15.607 14.7443C15.2643 15.0859 14.7096 15.0851 14.3679 14.7425L10.2557 10.6187C9.91475 10.2767 9.91475 9.7233 10.2557 9.38133L14.3679 5.2575C14.7096 4.91485 15.2643 4.91407 15.607 5.25575Z"
            fill="currentColor"
            fill-rule="evenodd"
        />
    </svg>

