


    <svg
        fill="none"
        height="20"
        viewBox="0 0 20 20"
        width="20"
        xmlns="http://www.w3.org/2000/svg"
        v-bind="$props"
    >
        <path
            clip-rule="evenodd"
            d="M10.2573 5.25575C9.91463 5.59743 9.91384 6.15218 10.2555 6.49483L13.7508 10L10.2555 13.5052C9.91384 13.8478 9.91463 14.4026 10.2573 14.7443C10.5999 15.0859 11.1547 15.0851 11.4964 14.7425L15.6085 10.6187C15.9495 10.2767 15.9495 9.7233 15.6085 9.38133L11.4964 5.2575C11.1547 4.91485 10.5999 4.91407 10.2573 5.25575Z"
            fill="currentColor"
            fill-rule="evenodd"
        />

        <path
            clip-rule="evenodd"
            d="M5.25728 5.25575C4.91463 5.59743 4.91384 6.15218 5.25552 6.49483L8.75075 10L5.25552 13.5052C4.91384 13.8478 4.91463 14.4026 5.25728 14.7443C5.59992 15.0859 6.15468 15.0851 6.49636 14.7425L10.6085 10.6187C10.9495 10.2767 10.9495 9.7233 10.6085 9.38133L6.49636 5.2575C6.15468 4.91485 5.59992 4.91407 5.25728 5.25575Z"
            fill="currentColor"
            fill-rule="evenodd"
        />
    </svg>

