


    <svg
        fill="none"
        height="24"
        viewBox="0 0 24 24"
        width="24"
        xmlns="http://www.w3.org/2000/svg"
        v-bind="$props"
    >
        <path
            d="M12.0002 22.7511C11.3302 22.7511 10.6502 22.5811 10.0502 22.2311L4.11016 18.8011C2.91016 18.1011 2.16016 16.8111 2.16016 15.4211V8.58109C2.16016 7.19109 2.91016 5.90109 4.11016 5.20109L10.0502 1.77109C11.2502 1.07109 12.7402 1.07109 13.9502 1.77109L19.8902 5.20109C21.0902 5.90109 21.8402 7.19109 21.8402 8.58109V15.4211C21.8402 16.8111 21.0902 18.1011 19.8902 18.8011L13.9502 22.2311C13.3502 22.5811 12.6702 22.7511 12.0002 22.7511ZM12.0002 2.75107C11.5902 2.75107 11.1702 2.86108 10.8002 3.07108L4.86016 6.50107C4.12016 6.93107 3.66016 7.72109 3.66016 8.58109V15.4211C3.66016 16.2711 4.12016 17.0711 4.86016 17.5011L10.8002 20.9311C11.5402 21.3611 12.4602 21.3611 13.2002 20.9311L19.1402 17.5011C19.8802 17.0711 20.3402 16.2811 20.3402 15.4211V8.58109C20.3402 7.73109 19.8802 6.93107 19.1402 6.50107L13.2002 3.07108C12.8302 2.86108 12.4102 2.75107 12.0002 2.75107Z"
            fill="currentColor"
        />

        <path
            d="M11.9999 11.7501C10.2999 11.7501 8.91992 10.37 8.91992 8.67004C8.91992 6.97004 10.2999 5.59009 11.9999 5.59009C13.6999 5.59009 15.0799 6.97004 15.0799 8.67004C15.0799 10.37 13.6999 11.7501 11.9999 11.7501ZM11.9999 7.09009C11.1299 7.09009 10.4199 7.80004 10.4199 8.67004C10.4199 9.54004 11.1299 10.2501 11.9999 10.2501C12.8699 10.2501 13.5799 9.54004 13.5799 8.67004C13.5799 7.80004 12.8699 7.09009 11.9999 7.09009Z"
            fill="currentColor"
        />

        <path
            d="M16 17.4101C15.59 17.4101 15.25 17.0701 15.25 16.6601C15.25 15.2801 13.79 14.1501 12 14.1501C10.21 14.1501 8.75 15.2801 8.75 16.6601C8.75 17.0701 8.41 17.4101 8 17.4101C7.59 17.4101 7.25 17.0701 7.25 16.6601C7.25 14.4501 9.38 12.6501 12 12.6501C14.62 12.6501 16.75 14.4501 16.75 16.6601C16.75 17.0701 16.41 17.4101 16 17.4101Z"
            fill="currentColor"
        />
    </svg>

