


    <svg
        fill="none"
        height="24"
        viewBox="0 0 24 24"
        width="24"
        xmlns="http://www.w3.org/2000/svg"
        v-bind="$props"
    >
        <path
            d="M1 11.56C1 6.58197 1 4.09296 2.54648 2.54648C4.09296 1 6.58197 1 11.56 1H12.44C17.418 1 19.907 1 21.4535 2.54648C23 4.09296 23 6.58197 23 11.56V12.44C23 17.418 23 19.907 21.4535 21.4535C19.907 23 17.418 23 12.44 23H11.56C6.58197 23 4.09296 23 2.54648 21.4535C1 19.907 1 17.418 1 12.44V11.56Z"
            fill="#0077FF"
        />

        <path
            d="M12.7333 16.5375C7.71915 16.5375 4.85917 13.1 4.74 7.38H7.25167C7.33417 11.5783 9.1858 13.3567 10.6525 13.7233V7.38H13.0175V11.0008C14.4659 10.845 15.9873 9.195 16.5007 7.38H18.8658C18.4716 9.61667 16.8216 11.2667 15.6483 11.945C16.8216 12.495 18.7009 13.9342 19.4159 16.5375H16.8124C16.2533 14.7958 14.86 13.4483 13.0175 13.265V16.5375H12.7333Z"
            fill="white"
        />
    </svg>

