
  <svg
    fill="none"
    height="24"
    viewBox="0 0 24 24"
    width="24"
    xmlns="http://www.w3.org/2000/svg"
  >
    <path
      d="M12.55 20.5886C11.76 20.5886 10.89 20.3086 10.02 19.7586L7.1 17.9286C6.9 17.8086 6.67 17.7386 6.44 17.7386H5C2.58 17.7386 1.25 16.4086 1.25 13.9886V9.98864C1.25 7.56864 2.58 6.23864 5 6.23864H6.43C6.66 6.23864 6.89 6.16864 7.09 6.04864L10.01 4.21864C11.47 3.30864 12.89 3.13864 14.01 3.75864C15.13 4.37864 15.74 5.66864 15.74 7.39864V16.5686C15.74 18.2886 15.12 19.5886 14.01 20.2086C13.57 20.4686 13.07 20.5886 12.55 20.5886ZM5 7.74864C3.42 7.74864 2.75 8.41864 2.75 9.99864V13.9986C2.75 15.5786 3.42 16.2486 5 16.2486H6.43C6.95 16.2486 7.45 16.3886 7.89 16.6686L10.81 18.4986C11.77 19.0986 12.68 19.2586 13.29 18.9186C13.9 18.5786 14.25 17.7286 14.25 16.5986V7.40864C14.25 6.26864 13.9 5.41864 13.29 5.08864C12.68 4.74864 11.77 4.89864 10.81 5.50864L7.88 7.32864C7.45 7.60864 6.94 7.74864 6.43 7.74864H5Z"
      fill="currentColor"
    />
    <path
      d="M18 16.7486C17.84 16.7486 17.69 16.6986 17.55 16.5986C17.22 16.3486 17.15 15.8786 17.4 15.5486C18.97 13.4586 18.97 10.5386 17.4 8.44864C17.15 8.11864 17.22 7.64864 17.55 7.39864C17.88 7.14864 18.35 7.21864 18.6 7.54864C20.56 10.1686 20.56 13.8286 18.6 16.4486C18.45 16.6486 18.23 16.7486 18 16.7486Z"
      fill="currentColor"
    />
    <path
      d="M19.83 19.2486C19.67 19.2486 19.52 19.1986 19.38 19.0986C19.05 18.8486 18.98 18.3786 19.23 18.0486C21.9 14.4886 21.9 9.50864 19.23 5.94864C18.98 5.61864 19.05 5.14864 19.38 4.89864C19.71 4.64864 20.18 4.71864 20.43 5.04864C23.5 9.13864 23.5 14.8586 20.43 18.9486C20.29 19.1486 20.06 19.2486 19.83 19.2486Z"
      fill="currentColor"
    />
  </svg>
